/* XPM */
static const char * life4[] = {
/* columns rows colors chars-per-pixel */
"64 12 5 1 ",
"  c None",
". c #400426",
"X c #84235C",
"o c #E070B2",
"O c #F2C1DF",
/* pixels */
"  XXXX  XXXX                                                    ",
" XOoooXXooooX                                                   ",
"XOoooooooOOooX................................................  ",
"XOoooooooOOOoX.Xooo............................................ ",
"XOooooooooOooX.XoOO.............................................",
"XOoooooooooooX.Xooo.............................................",
" XOoooooooooX.XXooo.............................................",
"  XOoooooooX.XXXooo.............................................",
"   XOoooooX.XXXXXoo.............................................",
"    XOoooX.XXXXXXoX.............................................",
"     XOoX.XXXXXXXXX............................................ ",
"      XX......................................................  "
};

