/* XPM */
static const char * life1[]  = {
/* columns rows colors chars-per-pixel */
"64 12 14 1 ",
"  c None",
". c #400426",
"X c #4A082E",
"o c #57143A",
"O c #7A1F54",
"+ c #84235C",
"@ c #912E68",
"# c #863F69",
"$ c #D365A6",
"% c #E070B2",
"& c #E37CB9",
"* c #E2AACC",
"= c #EFB5D8",
"- c #F2C1DF",
/* pixels */
"  #+++  #+++                                                    ",
" #*&%%@+$%%%@                                                   ",
"#*&%%%%%%=-&%@X...............................................  ",
"#*&%%%%%%=--&@XO$%%%%%%%%%%%%%%%%%%%%%%%%%%%%%%%%%%%%%%%%%%%%%o ",
"#*&%%%%%%%=&%@XO$=-------------------------------------------&%o",
"#*&%%%%%%%%%%@XO$%%%%%%%%%%%%%%%%%%%%%%%%%%%%%%%%%%%%%%%%%%%%=&o",
" #*&%%%%%%%%@XO+$%%%%%%%%%%%%%%%%%%%%%%%%%%%%%%%%%%%%%%%%%%%%%%o",
"  #*&%%%%%%@XO++$%%%%%%%%%%%%%%%%%%%%%%%%%%%%%%%%%%%%%%%%%%%%%@X",
"   #*&%%%%@XO++++$%%%%%%%%%%%%%%%%%%%%%%%%%%%%%%%%%%%%%%%%%%@++X",
"    #*&%%@XO+++++$@$@$@$@$@$@$@$@$@$@$@$@$@$@$@$@$@$@$@$@++++++X",
"     #*&@XO+++++++++++++++++++++++++++++++++++++++++++++++++++X ",
"      #+X.....................................................  "
};

