/* XPM */
static char *level3_[] = {
/* columns rows colors chars-per-pixel */
"149 53 6 1 ",
"  c None",
". c #2C240C",
"X c #BC9414",
"o c #C49C1C",
"O c #F4CC24",
"+ c #FCF4A4",
/* pixels */
"          ................................................................................................................................           ",
"          ................................................................................................................................           ",
"          ................................................................................................................................           ",
"          ................................................................................................................................           ",
"      ........OOOOOOOOOOOOOOOOOOOOOOOOOOOOOOOOOOOOOOOOOOOOOOOOOOOOOOOOOOOOOOOOOOOOOOOOOOOOOOOOOOOOOOOOOOOOOOOOOOOOOOOOOOOOOOOOOOOOOOOOO.......       ",
"      ........OOOOOOOOOOOOOOOOOOOOOOOOOOOOOOOOOOOOOOOOOOOOOOOOOOOOOOOOOOOOOOOOOOOOOOOOOOOOOOOOOOOOOOOOOOOOOOOOOOOOOOOOOOOOOOOOOOOOOOOOO.......       ",
"      ........OOOOOOOOOOOOOOOOOOOOOOOOOOOOOOOOOOOOOOOOOOOOOOOOOOOOOOOOOOOOOOOOOOOOOOOOOOOOOOOOOOOOOOOOOOOOOOOOOOOOOOOOOOOOOOOOOOOOOOOOO.......       ",
"      ........OOOOOOOOOOOOOOOOOOOOOOOOOOOOOOOOOOOOOOOOOOOOOOOOOOOOOOOOOOOOOOOOOOOOOOOOOOOOOOOOOOOOOOOOOOOOOOOOOOOOOOOOOOOOOOOOOOOOOOOOO.......       ",
"  ........OOOOOOOOOOOOOOOOOOOOOOOOOOOOOOOOOOOOOOOOOOOOOOOOOOOOOOOOOOOOOOOOOOOOOOOOOOOOOOOOOOOOOOOOOOOOOOOOOOOOOOOOOOOOOOOOOOOOOOOOOOOOOOOOO.......   ",
"  ........OOOOOOOOOOOOOOOOOOOOOOOOOOOOOOOOOOOOOOOOOOOOOOOOOOOOOOOOOOOOOOOOOOOOOOOOOOOOOOOOOOOOOOOOOOOOOOOOOOOOOOOOOOOOOOOOOOOOOOOOOOOOOOOOO.......   ",
"  ........OOOOOOOOOOOOOOOOOOOOOOOOOOOOOOOOOOOOOOOOOOOOOOOOOOOOOOOOOOOOOOOOOOOOOOOOOOOOOOOOOOOOOOOOOOOOOOOOOOOOOOOOOOOOOOOOOOOOOOOOOOOOOOOOO.......   ",
"  ........OOOOOOOOOOOOOOOOOOOOOOOOOOOOOOOOOOOOOOOOOOOOOOOOOOOOOOOOOOOOOOOOOOOOOOOOOOOOOOOOOOOOOOOOOOOOOOOOOOOOOOOOOOOOOOOOOOOOOOOOOOOOOOOOO.......   ",
"  ....OOOOOOOOOOOOXXXXXXXXXXXXooooOOOOOOOOooooXXXXXXXXooooOOOOOOOOOOOOOOOOOOOOOOOOOOOOOOOOooooXXXXXXXXooooOOOOOOOOooooXXXXXXXXXXXXooooOOOOOOOO....   ",
"  ....OOOOOOOOOOOOXXXXXXXXXXXXooooOOOOOOOOooooXXXXXXXXooooOOOOOOOOOOOOOOOOOOOOOOOOOOOOOOOOooooXXXXXXXXooooOOOOOOOOooooXXXXXXXXXXXXooooOOOOOOOO....   ",
"  ....OOOOOOOOOOOOXXXXXXXXXXXXooooOOOOOOOOooooXXXXXXXXooooOOOOOOOOOOOOOOOOOOOOOOOOOOOOOOOOooooXXXXXXXXooooOOOOOOOOooooXXXXXXXXXXXXooooOOOOOOOO....   ",
"  ....OOOOOOOOOOOOXXXXXXXXXXXXooooOOOOOOOOooooXXXXXXXXooooOOOOOOOOOOOOOOOOOOOOOOOOOOOOOOOOooooXXXXXXXXooooOOOOOOOOooooXXXXXXXXXXXXooooOOOOOOOO....   ",
"  ....OOOOOOOOXXXXoooo++++++++XXXXOOOOooooXXXX++++++++XXXXooooOOOOOOOOOOOOOOOOOOOOOOOOooooXXXX++++++++XXXXooooOOOOXXXX++++++++++++XXXXOOOOOOOO....   ",
"  ....OOOOOOOOXXXXoooo++++++++XXXXOOOOooooXXXX++++++++XXXXooooOOOOOOOOOOOOOOOOOOOOOOOOooooXXXX++++++++XXXXooooOOOOXXXX++++++++++++XXXXOOOOOOOO....   ",
"  ....OOOOOOOOXXXXoooo++++++++XXXXOOOOooooXXXX++++++++XXXXooooOOOOOOOOOOOOOOOOOOOOOOOOooooXXXX++++++++XXXXooooOOOOXXXX++++++++++++XXXXOOOOOOOO....   ",
"  ....OOOOOOOOXXXXoooo++++++++XXXXOOOOooooXXXX++++++++XXXXooooOOOOOOOOOOOOOOOOOOOOOOOOooooXXXX++++++++XXXXooooOOOOXXXX++++++++++++XXXXOOOOOOOO....   ",
"  ....OOOOOOOOXXXX++++XXXXXXXXooooOOOOXXXX++++XXXXXXXX++++XXXXOOOOooooXXXXXXXXooooOOOOXXXX++++XXXXXXXX++++XXXXOOOOXXXX++++XXXX++++XXXXOOOOOOOO....   ",
"  ....OOOOOOOOXXXX++++XXXXXXXXooooOOOOXXXX++++XXXXXXXX++++XXXXOOOOooooXXXXXXXXooooOOOOXXXX++++XXXXXXXX++++XXXXOOOOXXXX++++XXXX++++XXXXOOOOOOOO....   ",
"  ....OOOOOOOOXXXX++++XXXXXXXXooooOOOOXXXX++++XXXXXXXX++++XXXXOOOOooooXXXXXXXXooooOOOOXXXX++++XXXXXXXX++++XXXXOOOOXXXX++++XXXX++++XXXXOOOOOOOO....   ",
"  ....OOOOOOOOXXXX++++XXXXXXXXooooOOOOXXXX++++XXXXXXXX++++XXXXOOOOooooXXXXXXXXooooOOOOXXXX++++XXXXXXXX++++XXXXOOOOXXXX++++XXXX++++XXXXOOOOOOOO....   ",
"  ....OOOOOOOOXXXX++++XXXXOOOOOOOOOOOOXXXX++++XXXXXXXX++++XXXXOOOOXXXX++++++++XXXXOOOOXXXX++++XXXXXXXX++++XXXXOOOOXXXX++++++++ooooXXXXOOOOOOOO....   ",
"  ....OOOOOOOOXXXX++++XXXXOOOOOOOOOOOOXXXX++++XXXXXXXX++++XXXXOOOOXXXX++++++++XXXXOOOOXXXX++++XXXXXXXX++++XXXXOOOOXXXX++++++++ooooXXXXOOOOOOOO....   ",
"  ....OOOOOOOOXXXX++++XXXXOOOOOOOOOOOOXXXX++++XXXXXXXX++++XXXXOOOOXXXX++++++++XXXXOOOOXXXX++++XXXXXXXX++++XXXXOOOOXXXX++++++++ooooXXXXOOOOOOOO....   ",
"  ....OOOOOOOOXXXX++++XXXXOOOOOOOOOOOOXXXX++++XXXXXXXX++++XXXXOOOOXXXX++++++++XXXXOOOOXXXX++++XXXXXXXX++++XXXXOOOOXXXX++++++++ooooXXXXOOOOOOOO....   ",
"  ....OOOOOOOOXXXX++++XXXXXXXXooooOOOOXXXX++++XXXXXXXX++++XXXXOOOOooooXXXXXXXXooooOOOOXXXX++++XXXXXXXX++++XXXXOOOOXXXX++++XXXXXXXXOOOOOOOOOOOO....   ",
"  ....OOOOOOOOXXXX++++XXXXXXXXooooOOOOXXXX++++XXXXXXXX++++XXXXOOOOooooXXXXXXXXooooOOOOXXXX++++XXXXXXXX++++XXXXOOOOXXXX++++XXXXXXXXOOOOOOOOOOOO....   ",
"  ....OOOOOOOOXXXX++++XXXXXXXXooooOOOOXXXX++++XXXXXXXX++++XXXXOOOOooooXXXXXXXXooooOOOOXXXX++++XXXXXXXX++++XXXXOOOOXXXX++++XXXXXXXXOOOOOOOOOOOO....   ",
"  ....OOOOOOOOXXXX++++XXXXXXXXooooOOOOXXXX++++XXXXXXXX++++XXXXOOOOooooXXXXXXXXooooOOOOXXXX++++XXXXXXXX++++XXXXOOOOXXXX++++XXXXXXXXOOOOOOOOOOOO....   ",
"  ....OOOOOOOOXXXXoooo++++++++XXXXOOOOooooXXXX++++++++XXXXooooOOOOOOOOOOOOOOOOOOOOOOOOooooXXXX++++++++XXXXooooOOOOXXXX++++XXXXOOOOOOOOOOOOOOOO....   ",
"  ....OOOOOOOOXXXXoooo++++++++XXXXOOOOooooXXXX++++++++XXXXooooOOOOOOOOOOOOOOOOOOOOOOOOooooXXXX++++++++XXXXooooOOOOXXXX++++XXXXOOOOOOOOOOOOOOOO....   ",
"  ....OOOOOOOOXXXXoooo++++++++XXXXOOOOooooXXXX++++++++XXXXooooOOOOOOOOOOOOOOOOOOOOOOOOooooXXXX++++++++XXXXooooOOOOXXXX++++XXXXOOOOOOOOOOOOOOOO....   ",
"  ....OOOOOOOOXXXXoooo++++++++XXXXOOOOooooXXXX++++++++XXXXooooOOOOOOOOOOOOOOOOOOOOOOOOooooXXXX++++++++XXXXooooOOOOXXXX++++XXXXOOOOOOOOOOOOOOOO....   ",
"  ....OOOOOOOOOOOOXXXXXXXXXXXXooooOOOOOOOOooooXXXXXXXXooooOOOOOOOOOOOOOOOOOOOOOOOOOOOOOOOOooooXXXXXXXXooooOOOOOOOOooooXXXXooooOOOOOOOOOOOOOOOO....   ",
"  ....OOOOOOOOOOOOXXXXXXXXXXXXooooOOOOOOOOooooXXXXXXXXooooOOOOOOOOOOOOOOOOOOOOOOOOOOOOOOOOooooXXXXXXXXooooOOOOOOOOooooXXXXooooOOOOOOOOOOOOOOOO....   ",
"  ....OOOOOOOOOOOOXXXXXXXXXXXXooooOOOOOOOOooooXXXXXXXXooooOOOOOOOOOOOOOOOOOOOOOOOOOOOOOOOOooooXXXXXXXXooooOOOOOOOOooooXXXXooooOOOOOOOOOOOOOOOO....   ",
"  ....OOOOOOOOOOOOXXXXXXXXXXXXooooOOOOOOOOooooXXXXXXXXooooOOOOOOOOOOOOOOOOOOOOOOOOOOOOOOOOooooXXXXXXXXooooOOOOOOOOooooXXXXooooOOOOOOOOOOOOOOOO....   ",
"  ........OOOOOOOOOOOOOOOOOOOOOOOOOOOOOOOOOOOOOOOOOOOOOOOOOOOOOOOOOOOOOOOOOOOOOOOOOOOOOOOOOOOOOOOOOOOOOOOOOOOOOOOOOOOOOOOOOOOOOOOOOOOOOOOO........   ",
"  ........OOOOOOOOOOOOOOOOOOOOOOOOOOOOOOOOOOOOOOOOOOOOOOOOOOOOOOOOOOOOOOOOOOOOOOOOOOOOOOOOOOOOOOOOOOOOOOOOOOOOOOOOOOOOOOOOOOOOOOOOOOOOOOOO........   ",
"  ........OOOOOOOOOOOOOOOOOOOOOOOOOOOOOOOOOOOOOOOOOOOOOOOOOOOOOOOOOOOOOOOOOOOOOOOOOOOOOOOOOOOOOOOOOOOOOOOOOOOOOOOOOOOOOOOOOOOOOOOOOOOOOOOO........   ",
"  ........OOOOOOOOOOOOOOOOOOOOOOOOOOOOOOOOOOOOOOOOOOOOOOOOOOOOOOOOOOOOOOOOOOOOOOOOOOOOOOOOOOOOOOOOOOOOOOOOOOOOOOOOOOOOOOOOOOOOOOOOOOOOOOOO........   ",
"      ........OOOOOOOOOOOOOOOOOOOOOOOOOOOOOOOOOOOOOOOOOOOOOOOOOOOOOOOOOOOOOOOOOOOOOOOOOOOOOOOOOOOOOOOOOOOOOOOOOOOOOOOOOOOOOOOOOOOOOOOO........       ",
"      ........OOOOOOOOOOOOOOOOOOOOOOOOOOOOOOOOOOOOOOOOOOOOOOOOOOOOOOOOOOOOOOOOOOOOOOOOOOOOOOOOOOOOOOOOOOOOOOOOOOOOOOOOOOOOOOOOOOOOOOOO........       ",
"      ........OOOOOOOOOOOOOOOOOOOOOOOOOOOOOOOOOOOOOOOOOOOOOOOOOOOOOOOOOOOOOOOOOOOOOOOOOOOOOOOOOOOOOOOOOOOOOOOOOOOOOOOOOOOOOOOOOOOOOOOO........       ",
"      ........OOOOOOOOOOOOOOOOOOOOOOOOOOOOOOOOOOOOOOOOOOOOOOOOOOOOOOOOOOOOOOOOOOOOOOOOOOOOOOOOOOOOOOOOOOOOOOOOOOOOOOOOOOOOOOOOOOOOOOOO........       ",
"          ................................................................................................................................           ",
"          ................................................................................................................................           ",
"          ................................................................................................................................           ",
"          ................................................................................................................................           ",
"                                                                                                                                                     "
};
