/* XPM */
static char *level2_[] = {
/* columns rows colors chars-per-pixel */
"165 52 6 1 ",
"  c None",
". c #2C240C",
"X c #BC9414",
"o c #C49C1C",
"O c #F4CC24",
"+ c #FCF4A4",
/* pixels */
"        .....................................................................................................................................................        ",
"        .....................................................................................................................................................        ",
"        .....................................................................................................................................................        ",
"        .....................................................................................................................................................        ",
"    .........OOOOOOOOOOOOOOOOOOOOOOOOOOOOOOOOOOOOOOOOOOOOOOOOOOOOOOOOOOOOOOOOOOOOOOOOOOOOOOOOOOOOOOOOOOOOOOOOOOOOOOOOOOOOOOOOOOOOOOOOOOOOOOOOOOOOOOOOOOOO........    ",
"    .........OOOOOOOOOOOOOOOOOOOOOOOOOOOOOOOOOOOOOOOOOOOOOOOOOOOOOOOOOOOOOOOOOOOOOOOOOOOOOOOOOOOOOOOOOOOOOOOOOOOOOOOOOOOOOOOOOOOOOOOOOOOOOOOOOOOOOOOOOOOO........    ",
"    .........OOOOOOOOOOOOOOOOOOOOOOOOOOOOOOOOOOOOOOOOOOOOOOOOOOOOOOOOOOOOOOOOOOOOOOOOOOOOOOOOOOOOOOOOOOOOOOOOOOOOOOOOOOOOOOOOOOOOOOOOOOOOOOOOOOOOOOOOOOOO........    ",
"    .........OOOOOOOOOOOOOOOOOOOOOOOOOOOOOOOOOOOOOOOOOOOOOOOOOOOOOOOOOOOOOOOOOOOOOOOOOOOOOOOOOOOOOOOOOOOOOOOOOOOOOOOOOOOOOOOOOOOOOOOOOOOOOOOOOOOOOOOOOOOO........    ",
" ........OOOOOOOOOOOOOOOOOOOOOOOOOOOOOOOOOOOOOOOOOOOOOOOOOOOOOOOOOOOOOOOOOOOOOOOOOOOOOOOOOOOOOOOOOOOOOOOOOOOOOOOOOOOOOOOOOOOOOOOOOOOOOOOOOOOOOOOOOOOOOOOOOOOO........",
" ........OOOOOOOOOOOOOOOOOOOOOOOOOOOOOOOOOOOOOOOOOOOOOOOOOOOOOOOOOOOOOOOOOOOOOOOOOOOOOOOOOOOOOOOOOOOOOOOOOOOOOOOOOOOOOOOOOOOOOOOOOOOOOOOOOOOOOOOOOOOOOOOOOOOO........",
" ........OOOOOOOOOOOOOOOOOOOOOOOOOOOOOOOOOOOOOOOOOOOOOOOOOOOOOOOOOOOOOOOOOOOOOOOOOOOOOOOOOOOOOOOOOOOOOOOOOOOOOOOOOOOOOOOOOOOOOOOOOOOOOOOOOOOOOOOOOOOOOOOOOOOO........",
" ........OOOOOOOOOOOOOOOOOOOOOOOOOOOOOOOOOOOOOOOOOOOOOOOOOOOOOOOOOOOOOOOOOOOOOOOOOOOOOOOOOOOOOOOOOOOOOOOOOOOOOOOOOOOOOOOOOOOOOOOOOOOOOOOOOOOOOOOOOOOOOOOOOOOO........",
" ....OOOOOOOOooooXXXXXXXXOOOOOOOOooooXXXXXXXXooooOOOOooooXXXXooooOOOOooooXXXXooooOOOOooooXXXXXXXXooooOOOOooooXXXXooooOOOOOOOOOOOOooooXXXXXXXXXXXXooooOOOOOOOOOOOO....",
" ....OOOOOOOOooooXXXXXXXXOOOOOOOOooooXXXXXXXXooooOOOOooooXXXXooooOOOOooooXXXXooooOOOOooooXXXXXXXXooooOOOOooooXXXXooooOOOOOOOOOOOOooooXXXXXXXXXXXXooooOOOOOOOOOOOO....",
" ....OOOOOOOOooooXXXXXXXXOOOOOOOOooooXXXXXXXXooooOOOOooooXXXXooooOOOOooooXXXXooooOOOOooooXXXXXXXXooooOOOOooooXXXXooooOOOOOOOOOOOOooooXXXXXXXXXXXXooooOOOOOOOOOOOO....",
" ....OOOOOOOOooooXXXXXXXXOOOOOOOOooooXXXXXXXXooooOOOOooooXXXXooooOOOOooooXXXXooooOOOOooooXXXXXXXXooooOOOOooooXXXXooooOOOOOOOOOOOOooooXXXXXXXXXXXXooooOOOOOOOOOOOO....",
" ....OOOOOOOOXXXX++++XXXXOOOOOOOOXXXX++++++++XXXXOOOOXXXX++++XXXXOOOOXXXX++++XXXXOOOOXXXX++++++++XXXXOOOOXXXX++++XXXXOOOOOOOOOOOOXXXX++++++++++++XXXXOOOOOOOOOOOO....",
" ....OOOOOOOOXXXX++++XXXXOOOOOOOOXXXX++++++++XXXXOOOOXXXX++++XXXXOOOOXXXX++++XXXXOOOOXXXX++++++++XXXXOOOOXXXX++++XXXXOOOOOOOOOOOOXXXX++++++++++++XXXXOOOOOOOOOOOO....",
" ....OOOOOOOOXXXX++++XXXXOOOOOOOOXXXX++++++++XXXXOOOOXXXX++++XXXXOOOOXXXX++++XXXXOOOOXXXX++++++++XXXXOOOOXXXX++++XXXXOOOOOOOOOOOOXXXX++++++++++++XXXXOOOOOOOOOOOO....",
" ....OOOOOOOOXXXX++++XXXXOOOOOOOOXXXX++++++++XXXXOOOOXXXX++++XXXXOOOOXXXX++++XXXXOOOOXXXX++++++++XXXXOOOOXXXX++++XXXXOOOOOOOOOOOOXXXX++++++++++++XXXXOOOOOOOOOOOO....",
" ....OOOOOOOOXXXX++++XXXXOOOOOOOOXXXX++++XXXXooooOOOOXXXX++++XXXXOOOOXXXX++++XXXXOOOOXXXX++++XXXXooooOOOOXXXX++++XXXXOOOOOOOOOOOOooooXXXXXXXX++++XXXXOOOOOOOOOOOO....",
" ....OOOOOOOOXXXX++++XXXXOOOOOOOOXXXX++++XXXXooooOOOOXXXX++++XXXXOOOOXXXX++++XXXXOOOOXXXX++++XXXXooooOOOOXXXX++++XXXXOOOOOOOOOOOOooooXXXXXXXX++++XXXXOOOOOOOOOOOO....",
" ....OOOOOOOOXXXX++++XXXXOOOOOOOOXXXX++++XXXXooooOOOOXXXX++++XXXXOOOOXXXX++++XXXXOOOOXXXX++++XXXXooooOOOOXXXX++++XXXXOOOOOOOOOOOOooooXXXXXXXX++++XXXXOOOOOOOOOOOO....",
" ....OOOOOOOOXXXX++++XXXXOOOOOOOOXXXX++++XXXXooooOOOOXXXX++++XXXXOOOOXXXX++++XXXXOOOOXXXX++++XXXXooooOOOOXXXX++++XXXXOOOOOOOOOOOOooooXXXXXXXX++++XXXXOOOOOOOOOOOO....",
" ....OOOOOOOOXXXX++++XXXXOOOOOOOOXXXX++++++++XXXXOOOOooooXXXX++++XXXX++++XXXXooooOOOOXXXX++++++++XXXXOOOOXXXX++++XXXXOOOOOOOOOOOOXXXX++++++++++++XXXXOOOOOOOOOOOO....",
" ....OOOOOOOOXXXX++++XXXXOOOOOOOOXXXX++++++++XXXXOOOOooooXXXX++++XXXX++++XXXXooooOOOOXXXX++++++++XXXXOOOOXXXX++++XXXXOOOOOOOOOOOOXXXX++++++++++++XXXXOOOOOOOOOOOO....",
" ....OOOOOOOOXXXX++++XXXXOOOOOOOOXXXX++++++++XXXXOOOOooooXXXX++++XXXX++++XXXXooooOOOOXXXX++++++++XXXXOOOOXXXX++++XXXXOOOOOOOOOOOOXXXX++++++++++++XXXXOOOOOOOOOOOO....",
" ....OOOOOOOOXXXX++++XXXXOOOOOOOOXXXX++++++++XXXXOOOOooooXXXX++++XXXX++++XXXXooooOOOOXXXX++++++++XXXXOOOOXXXX++++XXXXOOOOOOOOOOOOXXXX++++++++++++XXXXOOOOOOOOOOOO....",
" ....OOOOOOOOXXXX++++XXXXOOOOOOOOXXXX++++XXXXooooOOOOOOOOXXXX++++XXXX++++XXXXOOOOOOOOXXXX++++XXXXooooOOOOXXXX++++XXXXOOOOOOOOOOOOXXXX++++XXXXXXXXooooOOOOOOOOOOOO....",
" ....OOOOOOOOXXXX++++XXXXOOOOOOOOXXXX++++XXXXooooOOOOOOOOXXXX++++XXXX++++XXXXOOOOOOOOXXXX++++XXXXooooOOOOXXXX++++XXXXOOOOOOOOOOOOXXXX++++XXXXXXXXooooOOOOOOOOOOOO....",
" ....OOOOOOOOXXXX++++XXXXOOOOOOOOXXXX++++XXXXooooOOOOOOOOXXXX++++XXXX++++XXXXOOOOOOOOXXXX++++XXXXooooOOOOXXXX++++XXXXOOOOOOOOOOOOXXXX++++XXXXXXXXooooOOOOOOOOOOOO....",
" ....OOOOOOOOXXXX++++XXXXOOOOOOOOXXXX++++XXXXooooOOOOOOOOXXXX++++XXXX++++XXXXOOOOOOOOXXXX++++XXXXooooOOOOXXXX++++XXXXOOOOOOOOOOOOXXXX++++XXXXXXXXooooOOOOOOOOOOOO....",
" ....OOOOOOOOXXXX++++++++XXXXOOOOXXXX++++++++XXXXOOOOOOOOOOOOXXXX++++XXXXOOOOOOOOOOOOXXXX++++++++XXXXOOOOXXXX++++++++XXXXOOOOOOOOXXXX++++++++++++XXXXOOOOOOOOOOOO....",
" ....OOOOOOOOXXXX++++++++XXXXOOOOXXXX++++++++XXXXOOOOOOOOOOOOXXXX++++XXXXOOOOOOOOOOOOXXXX++++++++XXXXOOOOXXXX++++++++XXXXOOOOOOOOXXXX++++++++++++XXXXOOOOOOOOOOOO....",
" ....OOOOOOOOXXXX++++++++XXXXOOOOXXXX++++++++XXXXOOOOOOOOOOOOXXXX++++XXXXOOOOOOOOOOOOXXXX++++++++XXXXOOOOXXXX++++++++XXXXOOOOOOOOXXXX++++++++++++XXXXOOOOOOOOOOOO....",
" ....OOOOOOOOXXXX++++++++XXXXOOOOXXXX++++++++XXXXOOOOOOOOOOOOXXXX++++XXXXOOOOOOOOOOOOXXXX++++++++XXXXOOOOXXXX++++++++XXXXOOOOOOOOXXXX++++++++++++XXXXOOOOOOOOOOOO....",
" ....OOOOOOOOooooXXXXXXXXooooOOOOooooXXXXXXXXooooOOOOOOOOOOOOooooXXXXooooOOOOOOOOOOOOooooXXXXXXXXooooOOOOooooXXXXXXXXooooOOOOOOOOooooXXXXXXXXXXXXooooOOOOOOOOOOOO....",
" ....OOOOOOOOooooXXXXXXXXooooOOOOooooXXXXXXXXooooOOOOOOOOOOOOooooXXXXooooOOOOOOOOOOOOooooXXXXXXXXooooOOOOooooXXXXXXXXooooOOOOOOOOooooXXXXXXXXXXXXooooOOOOOOOOOOOO....",
" ....OOOOOOOOooooXXXXXXXXooooOOOOooooXXXXXXXXooooOOOOOOOOOOOOooooXXXXooooOOOOOOOOOOOOooooXXXXXXXXooooOOOOooooXXXXXXXXooooOOOOOOOOooooXXXXXXXXXXXXooooOOOOOOOOOOOO....",
" ....OOOOOOOOooooXXXXXXXXooooOOOOooooXXXXXXXXooooOOOOOOOOOOOOooooXXXXooooOOOOOOOOOOOOooooXXXXXXXXooooOOOOooooXXXXXXXXooooOOOOOOOOooooXXXXXXXXXXXXooooOOOOOOOOOOOO....",
" ........OOOOOOOOOOOOOOOOOOOOOOOOOOOOOOOOOOOOOOOOOOOOOOOOOOOOOOOOOOOOOOOOOOOOOOOOOOOOOOOOOOOOOOOOOOOOOOOOOOOOOOOOOOOOOOOOOOOOOOOOOOOOOOOOOOOOOOOOOOOOOOOOOOOO........",
" ........OOOOOOOOOOOOOOOOOOOOOOOOOOOOOOOOOOOOOOOOOOOOOOOOOOOOOOOOOOOOOOOOOOOOOOOOOOOOOOOOOOOOOOOOOOOOOOOOOOOOOOOOOOOOOOOOOOOOOOOOOOOOOOOOOOOOOOOOOOOOOOOOOOOO........",
" ........OOOOOOOOOOOOOOOOOOOOOOOOOOOOOOOOOOOOOOOOOOOOOOOOOOOOOOOOOOOOOOOOOOOOOOOOOOOOOOOOOOOOOOOOOOOOOOOOOOOOOOOOOOOOOOOOOOOOOOOOOOOOOOOOOOOOOOOOOOOOOOOOOOOO........",
" ........OOOOOOOOOOOOOOOOOOOOOOOOOOOOOOOOOOOOOOOOOOOOOOOOOOOOOOOOOOOOOOOOOOOOOOOOOOOOOOOOOOOOOOOOOOOOOOOOOOOOOOOOOOOOOOOOOOOOOOOOOOOOOOOOOOOOOOOOOOOOOOOOOOOO........",
"    .........OOOOOOOOOOOOOOOOOOOOOOOOOOOOOOOOOOOOOOOOOOOOOOOOOOOOOOOOOOOOOOOOOOOOOOOOOOOOOOOOOOOOOOOOOOOOOOOOOOOOOOOOOOOOOOOOOOOOOOOOOOOOOOOOOOOOOOOOOOOO........    ",
"    .........OOOOOOOOOOOOOOOOOOOOOOOOOOOOOOOOOOOOOOOOOOOOOOOOOOOOOOOOOOOOOOOOOOOOOOOOOOOOOOOOOOOOOOOOOOOOOOOOOOOOOOOOOOOOOOOOOOOOOOOOOOOOOOOOOOOOOOOOOOOO........    ",
"    .........OOOOOOOOOOOOOOOOOOOOOOOOOOOOOOOOOOOOOOOOOOOOOOOOOOOOOOOOOOOOOOOOOOOOOOOOOOOOOOOOOOOOOOOOOOOOOOOOOOOOOOOOOOOOOOOOOOOOOOOOOOOOOOOOOOOOOOOOOOOO........    ",
"    .........OOOOOOOOOOOOOOOOOOOOOOOOOOOOOOOOOOOOOOOOOOOOOOOOOOOOOOOOOOOOOOOOOOOOOOOOOOOOOOOOOOOOOOOOOOOOOOOOOOOOOOOOOOOOOOOOOOOOOOOOOOOOOOOOOOOOOOOOOOOO........    ",
"        .....................................................................................................................................................        ",
"        .....................................................................................................................................................        ",
"        .....................................................................................................................................................        ",
"        .....................................................................................................................................................        "
};
