/* XPM */
static char *level1[] = {
/* columns rows colors chars-per-pixel */
"165 52 11 1 ",
"  c None",
". c #2C240C",
"X c #2D250D",
"o c #2D270F",
"O c #2E260E",
"+ c #2F2711",
"@ c #332B14",
"# c #BC9414",
"$ c #C49C1C",
"% c #F4CC24",
"& c #FCF4A4",
/* pixels */
"        .....................................................................................................................................................        ",
"        .....................................................................................................................................................        ",
"        .....................................................................................................................................................        ",
"        .....................................................................................................................................................        ",
"    .........%%%%%%%%%%%%%%%%%%%%%%%%%%%%%%%%%%%%%%%%%%%%%%%%%%%%%%%%%%%%%%%%%%%%%%%%%%%%%%%%%%%%%%%%%%%%%%%%%%%%%%%%%%%%%%%%%%%%%%%%%%%%%%%%%%%%%%%%%%%%........    ",
"    .........%%%%%%%%%%%%%%%%%%%%%%%%%%%%%%%%%%%%%%%%%%%%%%%%%%%%%%%%%%%%%%%%%%%%%%%%%%%%%%%%%%%%%%%%%%%%%%%%%%%%%%%%%%%%%%%%%%%%%%%%%%%%%%%%%%%%%%%%%%%%........    ",
"    .........%%%%%%%%%%%%%%%%%%%%%%%%%%%%%%%%%%%%%%%%%%%%%%%%%%%%%%%%%%%%%%%%%%%%%%%%%%%%%%%%%%%%%%%%%%%%%%%%%%%%%%%%%%%%%%%%%%%%%%%%%%%%%%%%%%%%%%%%%%%%........    ",
"    .........%%%%%%%%%%%%%%%%%%%%%%%%%%%%%%%%%%%%%%%%%%%%%%%%%%%%%%%%%%%%%%%%%%%%%%%%%%%%%%%%%%%%%%%%%%%%%%%%%%%%%%%%%%%%%%%%%%%%%%%%%%%%%%%%%%%%%%%%%%%%........    ",
" ........%%%%%%%%%%%%%%%%%%%%%%%%%%%%%%%%%%%%%%%%%%%%%%%%%%%%%%%%%%%%%%%%%%%%%%%%%%%%%%%%%%%%%%%%%%%%%%%%%%%%%%%%%%%%%%%%%%%%%%%%%%%%%%%%%%%%%%%%%%%%%%%%%%%%........",
" ........%%%%%%%%%%%%%%%%%%%%%%%%%%%%%%%%%%%%%%%%%%%%%%%%%%%%%%%%%%%%%%%%%%%%%%%%%%%%%%%%%%%%%%%%%%%%%%%%%%%%%%%%%%%%%%%%%%%%%%%%%%%%%%%%%%%%%%%%%%%%%%%%%%%%........",
" ........%%%%%%%%%%%%%%%%%%%%%%%%%%%%%%%%%%%%%%%%%%%%%%%%%%%%%%%%%%%%%%%%%%%%%%%%%%%%%%%%%%%%%%%%%%%%%%%%%%%%%%%%%%%%%%%%%%%%%%%%%%%%%%%%%%%%%%%%%%%%%%%%%%%%........",
" ........%%%%%%%%%%%%%%%%%%%%%%%%%%%%%%%%%%%%%%%%%%%%%%%%%%%%%%%%%%%%%%%%%%%%%%%%%%%%%%%%%%%%%%%%%%%%%%%%%%%%%%%%%%%%%%%%%%%%%%%%%%%%%%%%%%%%%%%%%%%%%%%%%%%%........",
" ....%%%%%%%%$$$$########%%%%%%%%$$$$########$$$$%%%%$$$$####$$$$%%%%$$$$####$$$$%%%%$$$$########$$$$%%%%$$$$####$$$$%%%%%%%%%%%%$$$$########$$$$%%%%%%%%%%%%%%%%....",
" ....%%%%%%%%$$$$########%%%%%%%%$$$$########$$$$%%%%$$$$####$$$$%%%%$$$$####$$$$%%%%$$$$########$$$$%%%%$$$$####$$$$%%%%%%%%%%%%$$$$########$$$$%%%%%%%%%%%%%%%%....",
" ....%%%%%%%%$$$$########%%%%%%%%$$$$########$$$$%%%%$$$$####$$$$%%%%$$$$####$$$$%%%%$$$$########$$$$%%%%$$$$####$$$$%%%%%%%%%%%%$$$$########$$$$%%%%%%%%%%%%%%%%....",
" ....%%%%%%%%$$$$########%%%%%%%%$$$$########$$$$%%%%$$$$####$$$$%%%%$$$$####$$$$%%%%$$$$########$$$$%%%%$$$$####$$$$%%%%%%%%%%%%$$$$########$$$$%%%%%%%%%%%%%%%%....",
" ....%%%%%%%%####&&&&####%%%%%%%%####&&&&&&&&####%%%%####&&&&####%%%%####&&&&####%%%%####&&&&&&&&####%%%%####&&&&####%%%%%%%%%%%%####&&&&&&&&####%%%%%%%%%%%%%%%%....",
" ....%%%%%%%%####&&&&####%%%%%%%%####&&&&&&&&####%%%%####&&&&####%%%%####&&&&####%%%%####&&&&&&&&####%%%%####&&&&####%%%%%%%%%%%%####&&&&&&&&####%%%%%%%%%%%%%%%%....",
" ....%%%%%%%%####&&&&####%%%%%%%%####&&&&&&&&####%%%%####&&&&####%%%%####&&&&####%%%%####&&&&&&&&####%%%%####&&&&####%%%%%%%%%%%%####&&&&&&&&####%%%%%%%%%%%%%%%%....",
" ....%%%%%%%%####&&&&####%%%%%%%%####&&&&&&&&####%%%%####&&&&####%%%%####&&&&####%%%%####&&&&&&&&####%%%%####&&&&####%%%%%%%%%%%%####&&&&&&&&####%%%%%%%%%%%%%%%%....",
" ....%%%%%%%%####&&&&####%%%%%%%%####&&&&####$$$$%%%%####&&&&####%%%%####&&&&####%%%%####&&&&####$$$$%%%%####&&&&####%%%%%%%%%%%%%%%%####&&&&####%%%%%%%%%%%%%%%%....",
" ....%%%%%%%%####&&&&####%%%%%%%%####&&&&####$$$$%%%%####&&&&####%%%%####&&&&####%%%%####&&&&####$$$$%%%%####&&&&####%%%%%%%%%%%%%%%%####&&&&####%%%%%%%%%%%%%%%%....",
" ....%%%%%%%%####&&&&####%%%%%%%%####&&&&####$$$$%%%%####&&&&####%%%%####&&&&####%%%%####&&&&####$$$$%%%%####&&&&####%%%%%%%%%%%%%%%%####&&&&####%%%%%%%%%%%%%%%%....",
" ....%%%%%%%%####&&&&####%%%%%%%%####&&&&####$$$$%%%%####&&&&####%%%%####&&&&####%%%%####&&&&####$$$$%%%%####&&&&####%%%%%%%%%%%%%%%%####&&&&####%%%%%%%%%%%%%%%%....",
" ....%%%%%%%%####&&&&####%%%%%%%%####&&&&&&&&####%%%%$$$$####&&&&####&&&&####$$$$%%%%####&&&&&&&&####%%%%####&&&&####%%%%%%%%%%%%%%%%####&&&&####%%%%%%%%%%%%%%%%....",
" ....%%%%%%%%####&&&&####%%%%%%%%####&&&&&&&&####%%%%$$$$####&&&&####&&&&####$$$$%%%%####&&&&&&&&####%%%%####&&&&####%%%%%%%%%%%%%%%%####&&&&####%%%%%%%%%%%%%%%%....",
" ....%%%%%%%%####&&&&####%%%%%%%%####&&&&&&&&####%%%%$$$$####&&&&####&&&&####$$$$%%%%####&&&&&&&&####%%%%####&&&&####%%%%%%%%%%%%%%%%####&&&&####%%%%%%%%%%%%%%%%....",
" ....%%%%%%%%####&&&&####%%%%%%%%####&&&&&&&&####%%%%$$$$####&&&&####&&&&####$$$$%%%%####&&&&&&&&####%%%%####&&&&####%%%%%%%%%%%%%%%%####&&&&####%%%%%%%%%%%%%%%%....",
" ....%%%%%%%%####&&&&####%%%%%%%%####&&&&####$$$$%%%%%%%%####&&&&####&&&&####%%%%%%%%####&&&&####$$$$%%%%####&&&&####%%%%%%%%%%%%%%%%####&&&&####%%%%%%%%%%%%%%%%....",
" ....%%%%%%%%####&&&&####%%%%%%%%####&&&&####$$$$%%%%%%%%####&&&&####&&&&####%%%%%%%%####&&&&####$$$$%%%%####&&&&####%%%%%%%%%%%%%%%%####&&&&####%%%%%%%%%%%%%%%%....",
" ....%%%%%%%%####&&&&####%%%%%%%%####&&&&####$$$$%%%%%%%%####&&&&####&&&&####%%%%%%%%####&&&&####$$$$%%%%####&&&&####%%%%%%%%%%%%%%%%####&&&&####%%%%%%%%%%%%%%%%....",
" ....%%%%%%%%####&&&&####%%%%%%%%####&&&&####$$$$%%%%%%%%####&&&&####&&&&####%%%%%%%%####&&&&####$$$$%%%%####&&&&####%%%%%%%%%%%%%%%%####&&&&####%%%%%%%%%%%%%%%%....",
" ....%%%%%%%%####&&&&&&&&####%%%%####&&&&&&&&####%%%%%%%%%%%%####&&&&####%%%%%%%%%%%%####&&&&&&&&####%%%%####&&&&&&&&####%%%%%%%%####&&&&&&&&&&&&####%%%%%%%%%%%%....",
" ....%%%%%%%%####&&&&&&&&####%%%%####&&&&&&&&####%%%%%%%%%%%%####&&&&####%%%%%%%%%%%%####&&&&&&&&####%%%%####&&&&&&&&####%%%%%%%%####&&&&&&&&&&&&####%%%%%%%%%%%%....",
" +...%%%%%%%%####&&&&&&&&####%%%%####&&&&&&&&####%%%%%%%%%%%%####&&&&####%%%%%%%%%%%%####&&&&&&&&####%%%%####&&&&&&&&####%%%%%%%%####&&&&&&&&&&&&####%%%%%%%%%%%%....",
" ....%%%%%%%%####&&&&&&&&####%%%%####&&&&&&&&####%%%%%%%%%%%%####&&&&####%%%%%%%%%%%%####&&&&&&&&####%%%%####&&&&&&&&####%%%%%%%%####&&&&&&&&&&&&####%%%%%%%%%%%%....",
" +...%%%%%%%%$$$$########$$$$%%%%$$$$########$$$$%%%%%%%%%%%%$$$$####$$$$%%%%%%%%%%%%$$$$########$$$$%%%%$$$$########$$$$%%%%%%%%$$$$############$$$$%%%%%%%%%%%%....",
" ....%%%%%%%%$$$$########$$$$%%%%$$$$########$$$$%%%%%%%%%%%%$$$$####$$$$%%%%%%%%%%%%$$$$########$$$$%%%%$$$$########$$$$%%%%%%%%$$$$############$$$$%%%%%%%%%%%%....",
" ....%%%%%%%%$$$$########$$$$%%%%$$$$########$$$$%%%%%%%%%%%%$$$$####$$$$%%%%%%%%%%%%$$$$########$$$$%%%%$$$$########$$$$%%%%%%%%$$$$############$$$$%%%%%%%%%%%%....",
" ....%%%%%%%%$$$$########$$$$%%%%$$$$########$$$$%%%%%%%%%%%%$$$$####$$$$%%%%%%%%%%%%$$$$########$$$$%%%%$$$$########$$$$%%%%%%%%$$$$############$$$$%%%%%%%%%%%%....",
" ........%%%%%%%%%%%%%%%%%%%%%%%%%%%%%%%%%%%%%%%%%%%%%%%%%%%%%%%%%%%%%%%%%%%%%%%%%%%%%%%%%%%%%%%%%%%%%%%%%%%%%%%%%%%%%%%%%%%%%%%%%%%%%%%%%%%%%%%%%%%%%%%%%%%%........",
" @.......%%%%%%%%%%%%%%%%%%%%%%%%%%%%%%%%%%%%%%%%%%%%%%%%%%%%%%%%%%%%%%%%%%%%%%%%%%%%%%%%%%%%%%%%%%%%%%%%%%%%%%%%%%%%%%%%%%%%%%%%%%%%%%%%%%%%%%%%%%%%%%%%%%%%........",
" ........%%%%%%%%%%%%%%%%%%%%%%%%%%%%%%%%%%%%%%%%%%%%%%%%%%%%%%%%%%%%%%%%%%%%%%%%%%%%%%%%%%%%%%%%%%%%%%%%%%%%%%%%%%%%%%%%%%%%%%%%%%%%%%%%%%%%%%%%%%%%%%%%%%%%........",
" ........%%%%%%%%%%%%%%%%%%%%%%%%%%%%%%%%%%%%%%%%%%%%%%%%%%%%%%%%%%%%%%%%%%%%%%%%%%%%%%%%%%%%%%%%%%%%%%%%%%%%%%%%%%%%%%%%%%%%%%%%%%%%%%%%%%%%%%%%%%%%%%%%%%%%........",
"    .........%%%%%%%%%%%%%%%%%%%%%%%%%%%%%%%%%%%%%%%%%%%%%%%%%%%%%%%%%%%%%%%%%%%%%%%%%%%%%%%%%%%%%%%%%%%%%%%%%%%%%%%%%%%%%%%%%%%%%%%%%%%%%%%%%%%%%%%%%%%%........    ",
"    .........%%%%%%%%%%%%%%%%%%%%%%%%%%%%%%%%%%%%%%%%%%%%%%%%%%%%%%%%%%%%%%%%%%%%%%%%%%%%%%%%%%%%%%%%%%%%%%%%%%%%%%%%%%%%%%%%%%%%%%%%%%%%%%%%%%%%%%%%%%%%........    ",
"    .........%%%%%%%%%%%%%%%%%%%%%%%%%%%%%%%%%%%%%%%%%%%%%%%%%%%%%%%%%%%%%%%%%%%%%%%%%%%%%%%%%%%%%%%%%%%%%%%%%%%%%%%%%%%%%%%%%%%%%%%%%%%%%%%%%%%%%%%%%%%%........    ",
"    .........%%%%%%%%%%%%%%%%%%%%%%%%%%%%%%%%%%%%%%%%%%%%%%%%%%%%%%%%%%%%%%%%%%%%%%%%%%%%%%%%%%%%%%%%%%%%%%%%%%%%%%%%%%%%%%%%%%%%%%%%%%%%%%%%%%%%%%%%%%%%........    ",
"        .....................................................................................................................................................        ",
"        .....................................................................................................................................................        ",
"        .....................................................................................................................................................        ",
"        .....................................................................................................................................................        "
};
