/* XPM */
static char *num0_[] = {
/* columns rows colors chars-per-pixel */
"36 44 5 1 ",
"  c #000000",
". c #464646",
"X c #F2CB21",
"o c #FFF9BD",
"O c None",
/* pixels */
"OOOOOOOO..                ..OOOOOOOO",
"OOOOOOOO..                ..OOOOOOOO",
"OOOOOOOO  oooooooooooooooo  OOOOOOOO",
"OOOOOOOO  oooooooooooooooo  OOOOOOOO",
"OOOOOOOO  ooXXXXXXXXXXXXXX  OOOOOOOO",
"OOOOOOOO  ooXXXXXXXXXXXXXX  OOOOOOOO",
"OOOOOOOO  ooXXXXXXXXXXXXXX  OOOOOOOO",
"OOOOOOOO  ooXXXXXXXXXXXXXX  OOOOOOOO",
"..        ooXXXXXXXXXXXXXX        ..",
"..        ooXXXXXXXXXXXXXX        ..",
"  oooooooo                oooooooo  ",
"  oooooooo                oooooooo  ",
"  ooXXXXXX  OOOOOOOOOOOO  ooXXXXXX  ",
"  ooXXXXXX  OOOOOOOOOOOO  ooXXXXXX  ",
"  ooXXXXXX  OOOOOOOOOOOO  ooXXXXXX  ",
"  ooXXXXXX  OOOOOOOOOOOO  ooXXXXXX  ",
"  ooXXXXXX  OOOOOOOOOOOO  ooXXXXXX  ",
"  ooXXXXXX  OOOOOOOOOOOO  ooXXXXXX  ",
"  ooXXXXXX  OOOOOOOOOOOO  ooXXXXXX  ",
"  ooXXXXXX  OOOOOOOOOOOO  ooXXXXXX  ",
"  ooXXXXXX  OOOOOOOOOOOO  ooXXXXXX  ",
"  ooXXXXXX  OOOOOOOOOOOO  ooXXXXXX  ",
"  ooXXXXXX  OOOOOOOOOOOO  ooXXXXXX  ",
"  ooXXXXXX  OOOOOOOOOOOO  ooXXXXXX  ",
"  ooXXXXXX  OOOOOOOOOOOO  ooXXXXXX  ",
"  ooXXXXXX  OOOOOOOOOOOO  ooXXXXXX  ",
"  ooXXXXXX  OOOOOOOOOOOO  ooXXXXXX  ",
"  ooXXXXXX  OOOOOOOOOOOO  ooXXXXXX  ",
"  ooXXXXXX  OOOOOOOOOOOO  ooXXXXXX  ",
"  ooXXXXXX  OOOOOOOOOOOO  ooXXXXXX  ",
"  ooXXXXXX  OOOOOOOOOOOO  ooXXXXXX  ",
"  ooXXXXXX  OOOOOOOOOOOO  ooXXXXXX  ",
"  ooXXXXXX                ooXXXXXX  ",
"  ooXXXXXX                ooXXXXXX  ",
"..        oooooooooooooooo        ..",
"..        oooooooooooooooo        ..",
"OOOOOOOO  ooXXXXXXXXXXXXXX  OOOOOOOO",
"OOOOOOOO  ooXXXXXXXXXXXXXX  OOOOOOOO",
"OOOOOOOO  ooXXXXXXXXXXXXXX  OOOOOOOO",
"OOOOOOOO  ooXXXXXXXXXXXXXX  OOOOOOOO",
"OOOOOOOO  ooXXXXXXXXXXXXXX  OOOOOOOO",
"OOOOOOOO  ooXXXXXXXXXXXXXX  OOOOOOOO",
"OOOOOOOO..                ..OOOOOOOO",
"OOOOOOOO..                ..OOOOOOOO"
};
