/* XPM */
static char *num1_[] = {
/* columns rows colors chars-per-pixel */
"28 44 5 1 ",
"  c #000000",
". c #464646",
"X c #cc9900",
"o c #FFF9BD",
"O c None",
/* pixels */
"OOOOOOOO..        ..OOOOOOOO",
"OOOOOOOO..        ..OOOOOOOO",
"OOOOOOOO  oooooooo  OOOOOOOO",
"OOOOOOOO  oooooooo  OOOOOOOO",
"OOOOOOOO  ooXXXXXX  OOOOOOOO",
"OOOOOOOO  ooXXXXXX  OOOOOOOO",
"OOOOOOOO  ooXXXXXX  OOOOOOOO",
"OOOOOOOO  ooXXXXXX  OOOOOOOO",
"..        ooXXXXXX  OOOOOOOO",
"..       oooXXXXXX  OOOOOOOO",
"  ooooooooooXXXXXX  OOOOOOOO",
"  oooooooooXXXXXXX  OOOOOOOO",
"  ooXXXXXXXXXXXXXX  OOOOOOOO",
"  ooXXXXXXXXXXXXXX  OOOOOOOO",
"  ooXXXXXXXXXXXXXX  OOOOOOOO",
"  ooXXXXXXXXXXXXXX  OOOOOOOO",
"  ooXXXXXXXXXXXXXX  OOOOOOOO",
"  ooXXXXXXXXXXXXXX  OOOOOOOO",
"..        ooXXXXXX  OOOOOOOO",
"..        ooXXXXXX  OOOOOOOO",
"OOOOOOOO  ooXXXXXX  OOOOOOOO",
"OOOOOOOO  ooXXXXXX  OOOOOOOO",
"OOOOOOOO  ooXXXXXX  OOOOOOOO",
"OOOOOOOO  ooXXXXXX  OOOOOOOO",
"OOOOOOOO  ooXXXXXX  OOOOOOOO",
"OOOOOOOO  ooXXXXXX  OOOOOOOO",
"OOOOOOOO  ooXXXXXX  OOOOOOOO",
"OOOOOOOO  ooXXXXXX  OOOOOOOO",
"OOOOOOOO  ooXXXXXX  OOOOOOOO",
"OOOOOOOO  ooXXXXXX  OOOOOOOO",
"OOOOOOOO  ooXXXXXX  OOOOOOOO",
"OOOOOOOO  ooXXXXXX  OOOOOOOO",
"..        ooXXXXXX        ..",
"..        ooXXXXXX        ..",
"  ooooooooooXXXXXXXXXXXXXX  ",
"  ooooooooooXXXXXXXXXXXXXX  ",
"  ooXXXXXXXXXXXXXXXXXXXXXX  ",
"  ooXXXXXXXXXXXXXXXXXXXXXX  ",
"  ooXXXXXXXXXXXXXXXXXXXXXX  ",
"  ooXXXXXXXXXXXXXXXXXXXXXX  ",
"  ooXXXXXXXXXXXXXXXXXXXXXX  ",
"  ooXXXXXXXXXXXXXXXXXXXXXX  ",
"..                        ..",
"..                        .."
};
