/* XPM */
static char *num2_[] = {
/* columns rows colors chars-per-pixel */
"36 44 5 1 ",
"  c #000000",
". c #464646",
"X c #cc9900",
"o c #FFF9BD",
"O c None",
/* pixels */
"OOOOOOOO..                ..OOOOOOOO",
"OOOOOOOO..                ..OOOOOOOO",
"OOOOOOOO  oooooooooooooooo  OOOOOOOO",
"OOOOOOOO  oooooooooooooooo  OOOOOOOO",
"OOOOOOOO  ooXXXXXXXXXXXXXX  OOOOOOOO",
"OOOOOOOO  ooXXXXXXXXXXXXXX  OOOOOOOO",
"OOOOOOOO  ooXXXXXXXXXXXXXX  OOOOOOOO",
"OOOOOOOO  ooXXXXXXXXXXXXXX  OOOOOOOO",
"..        ooXXXXXXXXXXXXXX        ..",
"..                       X        ..",
"  oooooooo                XXXXXXXX  ",
"  oooooooo  OOOOOOOOOOOO  XXXXXXXX  ",
"  ooXXXXXX  OOOOOOOOOOOO  XXXXXXXX  ",
"  ooXXXXXX  OOOOOOOOOOOO  XXXXXXXX  ",
"  ooXXXXXX  OOOOOOOOOOOO  XXXXXXXX  ",
"  ooXXXXXX  OOOOOOOOOOOO  XXXXXXXX  ",
"  ooXXXXXX  OOOO..        XXXXXXXX  ",
"  ooXXXXXX  OOOO..        XXXXXXXX  ",
"..        OOOOOO  oooooooo        ..",
"..        OOOOOO  oooooooo        ..",
"OOOOOOOOOOOOOOOO  ooXXXXXX  OOOOOOOO",
"OOOOOOOOOOOOOOOO  ooXXXXXX  OOOOOOOO",
"OOOOOOOOOOOOOOOO  ooXXXXXX  OOOOOOOO",
"OOOOOOOOOOOOOOOO  ooXXXXXX  OOOOOOOO",
"OOOOOOOO..        ooXXXXXX  OOOOOOOO",
"OOOOOOOO..        ooXXXXXX  OOOOOOOO",
"OOOOOOOO  ooXXXXXX        ..OOOOOOOO",
"OOOOOOOO  ooXXXXXX        ..OOOOOOOO",
"OOOOOOOO  ooXXXXXX  OOOOOOOOOOOOOOOO",
"OOOOOOOO  ooXXXXXX  OOOOOOOOOOOOOOOO",
"OOOOOOOO  ooXXXXXX  OOOOOOOOOOOOOOOO",
"OOOOOOOO  ooXXXXXX  OOOOOOOOOOOOOOOO",
"..        ooXXXXXX                ..",
"..        ooXXXXXX                ..",
"  ooooooooooXXXXXXXXXXXXXXXXXXXXXX  ",
"  ooooooooooXXXXXXXXXXXXXXXXXXXXXX  ",
"  ooXXXXXXXXXXXXXXXXXXXXXXXXXXXXXX  ",
"  ooXXXXXXXXXXXXXXXXXXXXXXXXXXXXXX  ",
"  ooXXXXXXXXXXXXXXXXXXXXXXXXXXXXXX  ",
"  ooXXXXXXXXXXXXXXXXXXXXXXXXXXXXXX  ",
"  ooXXXXXXXXXXXXXXXXXXXXXXXXXXXXXX  ",
"  ooXXXXXXXXXXXXXXXXXXXXXXXXXXXXXX  ",
"..                                ..",
"..                                .."
};
