/* XPM */
static char *num3_[] = {
/* columns rows colors chars-per-pixel */
"36 44 5 1 ",
"  c #000000",
". c #464646",
"X c #cc9900",
"o c #FFF9BD",
"O c None",
/* pixels */
"OOOOOOOO..                ..OOOOOOOO",
"OOOOOOOO..                ..OOOOOOOO",
"OOOOOOOO  oooooooooooooooo  OOOOOOOO",
"OOOOOOOO  oooooooooooooooo  OOOOOOOO",
"OOOOOOOO  ooXXXXXXXXXXXXXX  OOOOOOOO",
"OOOOOOOO  ooXXXXXXXXXXXXXX  OOOOOOOO",
"OOOOOOOO  ooXXXXXXXXXXXXXX  OOOOOOOO",
"OOOOOOOO  ooXXXXXXXXXXXXXX  OOOOOOOO",
"..        ooXXXXXXXXXXXXXX        ..",
"..        ooXXXXXXXXXXXXXX        ..",
"  oooooooo                XXXXXXXX  ",
"  oooooooo                XXXXXXXX  ",
"  ooXXXXXX  OOOOOOOOOOOO  XXXXXXXX  ",
"  ooXXXXXX  OOOOOOOOOOOO  XXXXXXXX  ",
"  ooXXXXXX  OOOOOOOOOOOO  XXXXXXXX  ",
"  ooXXXXXX  OOOOOOOOOOOO  XXXXXXXX  ",
"  ooXXXXXX  OOOO..        XXXXXXXX  ",
"  ooXXXXXX  OOOO..        XXXXXXXX  ",
"..        ..OOOO  oooooooo        ..",
"..        ..OOOO  oooooooo        ..",
"OOOOOOOOOOOOOOOO  ooXXXXXX  OOOOOOOO",
"OOOOOOOOOOOOOOOO  ooXXXXXX  OOOOOOOO",
"OOOOOOOOOOOOOOOO  ooXXXXXX  OOOOOOOO",
"OOOOOOOOOOOOOOOO  ooXXXXXX  OOOOOOOO",
"..        ..OOOO  ooXXXXXX        ..",
"..        ..OOOO  ooXXXXXX        ..",
"  oooooooo  OOOO..        XXXXXXXX  ",
"  oooooooo  OOOO..        XXXXXXXX  ",
"  ooXXXXXX  OOOOOOOOOOOO  XXXXXXXX  ",
"  ooXXXXXX  OOOOOOOOOOOO  XXXXXXXX  ",
"  ooXXXXXX  OOOOOOOOOOOO  XXXXXXXX  ",
"  ooXXXXXX  OOOOOOOOOOOO  XXXXXXXX  ",
"  ooXXXXXX                XXXXXXXX  ",
"  ooXXXXXX                XXXXXXXX  ",
"..        XXXXXXXXXXXXXXXX        ..",
"..        XXXXXXXXXXXXXXXX        ..",
"OOOOOOOO  XXXXXXXXXXXXXXXX  OOOOOOOO",
"OOOOOOOO  XXXXXXXXXXXXXXXX  OOOOOOOO",
"OOOOOOOO  ooXXXXXXXXXXXXXX  OOOOOOOO",
"OOOOOOOO  ooXXXXXXXXXXXXXX  OOOOOOOO",
"OOOOOOOO  oooooooooXXXXXXX  OOOOOOOO",
"OOOOOOOO  oooooooooXXXXXXX  OOOOOOOO",
"OOOOOOOO..                ..OOOOOOOO",
"OOOOOOOO..                ..OOOOOOOO"
};
