/* XPM */
static char *num4_[] = {
/* columns rows colors chars-per-pixel */
"36 44 5 1 ",
"  c #000000",
". c #464646",
"X c #cc9900",
"o c #FFF9BD",
"O c None",
/* pixels */
"OOOOOOOOOOOOOOOO..        ..OOOOOOOO",
"OOOOOOOOOOOOOOOO..        ..OOOOOOOO",
"OOOOOOOOOOOOOOOO  ooXXXXXX  OOOOOOOO",
"OOOOOOOOOOOOOOOO  ooXXXXXX  OOOOOOOO",
"OOOOOOOOOOOOOOOO  ooXXXXXX  OOOOOOOO",
"OOOOOOOOOOOOOOOO  ooXXXXXX  OOOOOOOO",
"OOOOOOOOOOOOOOOO  ooXXXXXX  OOOOOOOO",
"OOOOOOOOOOOOOOOO  ooXXXXXX  OOOOOOOO",
"OOOOOOOO..        ooXXXXXX  OOOOOOOO",
"OOOOOOOO..        ooXXXXXX  OOOOOOOO",
"OOOOOOOO  ooooooooooXXXXXX  OOOOOOOO",
"OOOOOOOO  ooooooooooXXXXXX  OOOOOOOO",
"OOOOOOOO  ooXXXXXXXXXXXXXX  OOOOOOOO",
"OOOOOOOO  ooXXXXXXXXXXXXXX  OOOOOOOO",
"OOOOOOOO  ooXXXXXXXXXXXXXX  OOOOOOOO",
"OOOOOOOO  ooXXXXXXXXXXXXXX  OOOOOOOO",
"..        ooXXXXXXXXXXXXXX  OOOOOOOO",
"..        ooXXXXXXXXXXXXXX  OOOOOOOO",
"  oooooooo        XXXXXXXX  OOOOOOOO",
"  oooooooo        XXXXXXXX  OOOOOOOO",
"  ooXXXXXX  OOOO  XXXXXXXX  OOOOOOOO",
"  ooXXXXXX  OOOO  XXXXXXXX  OOOOOOOO",
"  ooXXXXXX  OOOO  XXXXXXXX  OOOOOOOO",
"  ooXXXXXX  OOOO  XXXXXXXX  OOOOOOOO",
"  ooXXXXXX        XXXXXXXX        ..",
"  ooXXXXXX        XXXXXXXX        ..",
"  ooXXXXXXXXXXXXXXXXXXXXXXoooooooo  ",
"  ooXXXXXXXXXXXXXXXXXXXXXXoooooooo  ",
"  ooXXXXXXXXXXXXXXXXXXXXXXXXXXXXXX  ",
"  ooXXXXXXXXXXXXXXXXXXXXXXXXXXXXXX  ",
"  ooXXXXXXXXXXXXXXXXXXXXXXXXXXXXXX  ",
"  ooXXXXXXXXXXXXXXXXXXXXXXXXXXXXXX  ",
"  ooXXXXXXXXXXXXXXXXXXXXXXXXXXXXXX  ",
"  ooXXXXXXXXXXXXXXXXXXXXXXXXXXXX  ..",
"..                ooXXXXXX        ..",
"..                ooXXXXXX       OOO",
"OOOOOOOOOOOOOOOO  ooXXXXXX  OOOOOOOO",
"OOOOOOOOOOOOOOOO  ooXXXXXX  OOOOOOOO",
"OOOOOOOOOOOOOOOO  ooXXXXXX  OOOOOOOO",
"OOOOOOOOOOOOOOOO  ooXXXXXX  OOOOOOOO",
"OOOOOOOOOOOOOOOO  ooXXXXXX  OOOOOOOO",
"OOOOOOOOOOOOOOOO  ooXXXXXX  OOOOOOOO",
"OOOOOOOOOOOOOOOO..        ..OOOOOOOO",
"OOOOOOOOOOOOOOOO..        ..OOOOOOOO"
};
