/* XPM */
static char *num5_[] = {
/* columns rows colors chars-per-pixel */
"36 44 5 1 ",
"  c #000000",
". c #464646",
"X c #F2CB21",
"o c #FFF9BD",
"O c None",
/* pixels */
"..                                ..",
"..                                ..",
"  oooooooooooooooooooooooooooooooo  ",
"  oooooooooooooooooooooooooooooooo  ",
"  ooXXXXXXXXXXXXXXXXXXXXXXXXXXXXXX  ",
"  ooXXXXXXXXXXXXXXXXXXXXXXXXXXXXXX  ",
"  ooXXXXXXXXXXXXXXXXXXXXXXXXXXXXXX  ",
"  ooXXXXXXXXXXXXXXXXXXXXXXXXXXXXXX  ",
"  ooXXXXXXXXXXXXXXXXXXXXXXXXXXXXXX  ",
"  ooXXXXXXXXXXXXXXXXXXXXXXXXXXXXXX  ",
"  ooXXXXXX                        OO",
"  ooXXXXXX                        OO",
"  ooXXXXXX  OOOOOOOOOOOOOOOOOOOOOOOO",
"  ooXXXXXX  OOOOOOOOOOOOOOOOOOOOOOOO",
"  ooXXXXXX  OOOOOOOOOOOOOOOOOOOOOOOO",
"  ooXXXXXX  OOOOOOOOOOOOOOOOOOOOOOOO",
"  ooXXXXXX                ..OOOOOOOO",
"  ooXXXXXX                ..OOOOOOOO",
"  ooXXXXXXoooooooooooooooo  OOOOOOOO",
"  ooXXXXXXoooooooooooooooo  OOOOOOOO",
"  ooXXXXXXXXXXXXXXXXXXXXXX  OOOOOOOO",
"  ooXXXXXXXXXXXXXXXXXXXXXX  OOOOOOOO",
"  ooXXXXXXXXXXXXXXXXXXXXXX  OOOOOOOO",
"  ooXXXXXXXXXXXXXXXXXXXXXX  OOOOOOOO",
"  ooXXXXXXXXXXXXXXXXXXXXXX        ..",
"  ooXXXXXXXXXXXXXXXXXXXXXX        ..",
"OO                        XXXXXXXX  ",
"OO                        XXXXXXXX  ",
"OOOOOOOOOOOOOOOOOOOOOOOO  XXXXXXXX  ",
"OOOOOOOOOOOOOOOOOOOOOOOO  XXXXXXXX  ",
"OOOOOOOOOOOOOOOOOOOOOOOO  XXXXXXXX  ",
"OOOOOOOOOOOOOOOOOOOOOOOO  XXXXXXXX  ",
"..                        XXXXXXXX  ",
"..                        XXXXXXXX  ",
"  oooooooooooooooooooooooo        ..",
"  oooooooooooooooooooooooo        ..",
"  ooXXXXXXXXXXXXXXXXXXXXXX  OOOOOOOO",
"  ooXXXXXXXXXXXXXXXXXXXXXX  OOOOOOOO",
"  ooXXXXXXXXXXXXXXXXXXXXXX  OOOOOOOO",
"  ooXXXXXXXXXXXXXXXXXXXXXX  OOOOOOOO",
"  ooXXXXXXXXXXXXXXXXXXXXXX  OOOOOOOO",
"  ooXXXXXXXXXXXXXXXXXXXXXX  OOOOOOOO",
"..                        ..OOOOOOOO",
"..                        ..OOOOOOOO"
};
