/* XPM */
static char *num6_[] = {
/* columns rows colors chars-per-pixel */
"36 44 5 1 ",
"  c #000000",
". c #464646",
"X c #F2CB21",
"o c #FFF9BD",
"O c None",
/* pixels */
"OOOOOOOO..                ..OOOOOOOO",
"OOOOOOOO..                ..OOOOOOOO",
"OOOOOOOO  oooooooooooooooo  OOOOOOOO",
"OOOOOOOO  oooooooooooooooo  OOOOOOOO",
"OOOOOOOO  ooXXXXXXXXXXXXXX  OOOOOOOO",
"OOOOOOOO  ooXXXXXXXXXXXXXX  OOOOOOOO",
"OOOOOOOO  ooXXXXXXXXXXXXXX  OOOOOOOO",
"OOOOOOOO  ooXXXXXXXXXXXXXX  OOOOOOOO",
"..        ooXXXXXXXXXXXXXX  OOOOOOOO",
"..        ooXXXXXXXXXXXXXX  OOOOOOOO",
"  oooooooo                ..OOOOOOOO",
"  oooooooo                ..OOOOOOOO",
"  ooXXXXXX  OOOOOOOOOOOOOOOOOOOOOOOO",
"  ooXXXXXX  OOOOOOOOOOOOOOOOOOOOOOOO",
"  ooXXXXXX  OOOOOOOOOOOOOOOOOOOOOOOO",
"  ooXXXXXX  OOOOOOOOOOOOOOOOOOOOOOOO",
"  ooXXXXXX                ..OOOOOOOO",
"  ooXXXXXX                ..OOOOOOOO",
"  ooXXXXXXoooooooooooooooo  OOOOOOOO",
"  ooXXXXXXoooooooooooooooo  OOOOOOOO",
"  ooXXXXXXXXXXXXXXXXXXXXXX  OOOOOOOO",
"  ooXXXXXXXXXXXXXXXXXXXXXX  OOOOOOOO",
"  ooXXXXXXXXXXXXXXXXXXXXXX  OOOOOOOO",
"  ooXXXXXXXXXXXXXXXXXXXXXX  OOOOOOOO",
"  ooXXXXXXXXXXXXXXXXXXXXXX        ..",
"  ooXXXXXXXXXXXXXXXXXXXXXX        ..",
"  ooXXXXXX                XXXXXXXX  ",
"  ooXXXXXX                XXXXXXXX  ",
"  ooXXXXXX  OOOOOOOOOOOO  XXXXXXXX  ",
"  ooXXXXXX  OOOOOOOOOOOO  XXXXXXXX  ",
"  ooXXXXXX  OOOOOOOOOOOO  XXXXXXXX  ",
"  ooXXXXXX  OOOOOOOOOOOO  XXXXXXXX  ",
"  ooXXXXXX                XXXXXXXX  ",
"  ooXXXXXX                XXXXXXXX  ",
"..        ooXXXXXXXXXXXXXX        ..",
"..        ooXXXXXXXXXXXXXX        ..",
"OOOOOOOO  ooXXXXXXXXXXXXXX  OOOOOOOO",
"OOOOOOOO  ooXXXXXXXXXXXXXX  OOOOOOOO",
"OOOOOOOO  ooXXXXXXXXXXXXXX  OOOOOOOO",
"OOOOOOOO  ooXXXXXXXXXXXXXX  OOOOOOOO",
"OOOOOOOO  ooXXXXXXXXXXXXXX  OOOOOOOO",
"OOOOOOOO  ooXXXXXXXXXXXXXX  OOOOOOOO",
"OOOOOOOO..                ..OOOOOOOO",
"OOOOOOOO..                ..OOOOOOOO"
};
