/* XPM */
static char *num7_[] = {
/* columns rows colors chars-per-pixel */
"36 44 5 1 ",
"  c #000000",
". c #464646",
"X c #F2CB21",
"o c #FFF9BD",
"O c None",
/* pixels */
"..                        ..OOOOOOOO",
"..                        ..OOOOOOOO",
"  oooooooooooooooooooooooo  OOOOOOOO",
"  oooooooooooooooooooooooo  OOOOOOOO",
"  ooXXXXXXXXXXXXXXXXXXXXXX  OOOOOOOO",
"  ooXXXXXXXXXXXXXXXXXXXXXX  OOOOOOOO",
"  ooXXXXXXXXXXXXXXXXXXXXXX  OOOOOOOO",
"  ooXXXXXXXXXXXXXXXXXXXXXX  OOOOOOOO",
"  ooXXXXXXXXXXXXXXXXXXXXXX        ..",
"  ooXXXXXXXXXXXXXXXXXXXXXX        ..",
"..                        ooXXXXXX  ",
"..                        ooXXXXXX  ",
"OOOOOOOOOOOOOOOOOOOOOOOO  ooXXXXXX  ",
"OOOOOOOOOOOOOOOOOOOOOOOO  ooXXXXXX  ",
"OOOOOOOOOOOOOOOOOOOOOOOO  ooXXXXXX  ",
"OOOOOOOOOOOOOOOOOOOOOOOO  ooXXXXXX  ",
"OOOOOOOOOOOOOOOOOOOOOOOO  ooXXXXXX  ",
"OOOOOOOOOOOOOOOOOOOOOOOO  ooXXXXXX  ",
"OOOOOOOOOOOOOOOOOOOOOOOO  ooXXXXXX  ",
"OOOOOOOOOOOOOOOOOOOOOOOO  ooXXXXXX  ",
"OOOOOOOOOOOOOOOOOOOOOOOO  ooXXXXXX  ",
"OOOOOOOOOOOOOOOOOOOOOOOO  ooXXXXXX  ",
"OOOOOOOOOOOOOOOOOOOOOOOO  ooXXXXXX  ",
"OOOOOOOOOOOOOOOOOOOOOOOO  ooXXXXXX  ",
"OOOOOOOOOOOOOOOO..        ooXXXXXX  ",
"OOOOOOOOOOOOOOOO..        ooXXXXXX  ",
"OOOOOOOOOOOOOOOO  oooooooo        ..",
"OOOOOOOOOOOOOOOO  oooooooo        ..",
"OOOOOOOOOOOOOOOO  ooXXXXXX  OOOOOOOO",
"OOOOOOOOOOOOOOOO  ooXXXXXX  OOOOOOOO",
"OOOOOOOOOOOOOOOO  ooXXXXXX  OOOOOOOO",
"OOOOOOOOOOOOOOOO  ooXXXXXX  OOOOOOOO",
"OOOOOOOOOOOOOOOO  ooXXXXXX  OOOOOOOO",
"OOOOOOOOOOOOOOOO  ooXXXXXX  OOOOOOOO",
"OOOOOOOOOOOOOOOO  ooXXXXXX  OOOOOOOO",
"OOOOOOOOOOOOOOOO  ooXXXXXX  OOOOOOOO",
"OOOOOOOOOOOOOOOO  ooXXXXXX  OOOOOOOO",
"OOOOOOOOOOOOOOOO  ooXXXXXX  OOOOOOOO",
"OOOOOOOOOOOOOOOO  ooXXXXXX  OOOOOOOO",
"OOOOOOOOOOOOOOOO  ooXXXXXX  OOOOOOOO",
"OOOOOOOOOOOOOOOO  ooXXXXXX  OOOOOOOO",
"OOOOOOOOOOOOOOOO  ooXXXXXX  OOOOOOOO",
"OOOOOOOOOOOOOOOO..        ..OOOOOOOO",
"OOOOOOOOOOOOOOOO..        ..OOOOOOOO"
};
