/* XPM */
static char *num8_[] = {
/* columns rows colors chars-per-pixel */
"36 44 5 1 ",
"  c #000000",
". c #464646",
"X c #cc9900",
"o c #FFF9BD",
"O c None",
/* pixels */
"OOOOOOOO..                ..OOOOOOOO",
"OOOOOOOO..                ..OOOOOOOO",
"OOOOOOOO  oooooooooooooooo  OOOOOOOO",
"OOOOOOOO  oooooooooooooooo  OOOOOOOO",
"OOOOOOOO  ooXXXXXXXXXXXXXX  OOOOOOOO",
"OOOOOOOO  ooXXXXXXXXXXXXXX  OOOOOOOO",
"OOOOOOOO  ooXXXXXXXXXXXXXX  OOOOOOOO",
"OOOOOOOO  ooXXXXXXXXXXXXXX  OOOOOOOO",
"..        ooXXXXXXXXXXXXXX        ..",
"..        ooXXXXXXXXXXXXXX        ..",
"  oooooooo                oooooooo  ",
"  oooooooo                oooooooo  ",
"  ooXXXXXX  OOOOOOOOOOOO  ooXXXXXX  ",
"  ooXXXXXX  OOOOOOOOOOOO  ooXXXXXX  ",
"  ooXXXXXX  OOOOOOOOOOOO  ooXXXXXX  ",
"  ooXXXXXX  OOOOOOOOOOOO  ooXXXXXX  ",
"  ooXXXXXX                ooXXXXXX  ",
"  ooXXXXXX                ooXXXXXX  ",
"..        ooXXXXXXXXXXXXXX        ..",
"..        ooXXXXXXXXXXXXXX        ..",
"OOOOOOOO  ooXXXXXXXXXXXXXX  OOOOOOOO",
"OOOOOOOO  ooXXXXXXXXXXXXXX  OOOOOOOO",
"OOOOOOOO  ooXXXXXXXXXXXXXX  OOOOOOOO",
"OOOOOOOO  ooXXXXXXXXXXXXXX  OOOOOOOO",
"..        ooXXXXXXXXXXXXXX        ..",
"..        ooXXXXXXXXXXXXXX        ..",
"  oooooooo                XXXXXXXX  ",
"  oooooooo                XXXXXXXX  ",
"  ooXXXXXX  OOOOOOOOOOOO  XXXXXXXX  ",
"  ooXXXXXX  OOOOOOOOOOOO  XXXXXXXX  ",
"  ooXXXXXX  OOOOOOOOOOOO  XXXXXXXX  ",
"  ooXXXXXX  OOOOOOOOOOOO  XXXXXXXX  ",
"  ooXXXXXX                XXXXXXXX  ",
"  ooXXXXXX                XXXXXXXX  ",
"..        ooXXXXXXXXXXXXXX        ..",
"..        ooXXXXXXXXXXXXXX        ..",
"OOOOOOOO  ooXXXXXXXXXXXXXX  OOOOOOOO",
"OOOOOOOO  ooXXXXXXXXXXXXXX  OOOOOOOO",
"OOOOOOOO  ooXXXXXXXXXXXXXX  OOOOOOOO",
"OOOOOOOO  ooXXXXXXXXXXXXXX  OOOOOOOO",
"OOOOOOOO  oooooooooooooooo  OOOOOOOO",
"OOOOOOOO  oooooooooooooooo  OOOOOOOO",
"OOOOOOOO..                ..OOOOOOOO",
"OOOOOOOO..                ..OOOOOOOO"
};
