/* XPM */
static char *num9_[] = {
/* columns rows colors chars-per-pixel */
"36 44 5 1 ",
"  c #000000",
". c #464646",
"X c #cc9900",
"o c #FFF9BD",
"O c None",
/* pixels */
"OOOOOOOO..                ..OOOOOOOO",
"OOOOOOOO..                ..OOOOOOOO",
"OOOOOOOO  oooooooooooooooo  OOOOOOOO",
"OOOOOOOO  oooooooooooooooo  OOOOOOOO",
"OOOOOOOO  ooXXXXXXXXXXXXXX  OOOOOOOO",
"OOOOOOOO  ooXXXXXXXXXXXXXX  OOOOOOOO",
"OOOOOOOO  ooXXXXXXXXXXXXXX  OOOOOOOO",
"OOOOOOOO  ooXXXXXXXXXXXXXX  OOOOOOOO",
"..        ooXXXXXXXXXXXXXX        ..",
"..        ooXXXXXXXXXXXXXX        ..",
"  oooooooo                oooooooo  ",
"  oooooooo                oooooooo  ",
"  ooXXXXXX  OOOOOOOOOOOO  XXXXXXXX  ",
"  ooXXXXXX  OOOOOOOOOOOO  XXXXXXXX  ",
"  ooXXXXXX  OOOOOOOOOOOO  XXXXXXXX  ",
"  ooXXXXXX  OOOOOOOOOOOO  XXXXXXXX  ",
"  ooXXXXXX                XXXXXXXX  ",
"  ooXXXXXX                XXXXXXXX  ",
"..        ooXXXXXXXXXXXXXXXXXXXXXX  ",
"..        ooXXXXXXXXXXXXXXXXXXXXXX  ",
"OOOOOOOO  ooXXXXXXXXXXXXXXXXXXXXXX  ",
"OOOOOOOO  ooXXXXXXXXXXXXXXXXXXXXXX  ",
"OOOOOOOO  ooXXXXXXXXXXXXXXXXXXXXXX  ",
"OOOOOOOO  ooXXXXXXXXXXXXXXXXXXXXXX  ",
"OOOOOOOO  ooXXXXXXXXXXXXXXXXXXXXXX  ",
"OOOOOOOO  ooXXXXXXXXXXXXXXXXXXXXXX  ",
"OOOOOOOO..                ooXXXXXX  ",
"OOOOOOOO..                ooXXXXXX  ",
"OOOOOOOOOOOOOOOOOOOOOOOO  ooXXXXXX  ",
"OOOOOOOOOOOOOOOOOOOOOOOO  ooXXXXXX  ",
"OOOOOOOOOOOOOOOOOOOOOOOO  ooXXXXXX  ",
"OOOOOOOOOOOOOOOOOOOOOOOO  ooXXXXXX  ",
"OOOOOOOOOOOOOOOO..        ooXXXXXX  ",
"OOOOOOOOOOOOOOOO..        ooXXXXXX  ",
"OOOOOOOOOOOOOOOO  oooooooo        ..",
"OOOOOOOOOOOOOOOO  oooooooo        ..",
"OOOOOOOOOOOOOOOO  ooXXXXXX  OOOOOOOO",
"OOOOOOOOOOOOOOOO  ooXXXXXX  OOOOOOOO",
"OOOOOOOOOOOOOOOO  ooXXXXXX  OOOOOOOO",
"OOOOOOOOOOOOOOOO  ooXXXXXX  OOOOOOOO",
"OOOOOOOOOOOOOOOO  ooXXXXXX  OOOOOOOO",
"OOOOOOOOOOOOOOOO  ooXXXXXX  OOOOOOOO",
"OOOOOOOOOOOOOOOO..        ..OOOOOOOO",
"OOOOOOOOOOOOOOOO..        ..OOOOOOOO"
};
