/* XPM */
static char *energy1_[] = {
/* columns rows colors chars-per-pixel */
"18 15 5 1 ",
"  c None",
". c #321300",
"X c #6F3F00",
"o c #C8913E",
"O c #E8D0AA",
/* pixels */
"   ...........    ",
"  ..XXXXXXXXX..   ",
" ..XXXXXXOoXXX..  ",
"..XXXXXXOooXXXX.. ",
".XXXXXXOooXXXXXX. ",
".XXXXXOooXXXXXXX. ",
".XXXXOoooOOOOXXX. ",
".XXXOoooooooXXXX. ",
".XXXXXXXOooXXXXX. ",
".XXXXXXOooXXXXXX. ",
"..XXXXOooXXXXXX.. ",
"...XXOooXXXXXX... ",
" ...XXXXXXXXX...  ",
"  .............   ",
"   ...........    "
};
