/* XPM */
static char *button_red_down_[] = {
/* columns rows colors chars-per-pixel */
"20 8 143 2 ",
"   c None",
".  c #5F2533",
"X  c #5E2734",
"o  c #592934",
"O  c #403836",
"+  c #4B3C37",
"@  c #4A373B",
"#  c #493E38",
"$  c #4E3C3A",
"%  c #493D3D",
"&  c #4A3C3C",
"*  c #56353C",
"=  c #503B3A",
"-  c #602937",
";  c #642C39",
":  c #642C3A",
">  c #642D3A",
",  c #652D3A",
"<  c #663B34",
"1  c #6B363D",
"2  c #49423A",
"3  c #48443B",
"4  c #4A403E",
"5  c #4A423F",
"6  c #53403C",
"7  c #634636",
"8  c #644737",
"9  c #6A4636",
"0  c #6F4537",
"q  c #68433A",
"w  c #6D423B",
"e  c #724339",
"r  c #72403F",
"t  c #76453E",
"y  c #693640",
"u  c #6D3542",
"i  c #6E3543",
"p  c #663940",
"a  c #733F49",
"s  c #703E4A",
"d  c #733E4B",
"f  c #743C4A",
"g  c #554747",
"h  c #525453",
"j  c #5D5153",
"k  c #6A4341",
"l  c #6A444D",
"z  c #764350",
"x  c #725B61",
"c  c #83505B",
"v  c #80525E",
"b  c #9A5F65",
"n  c #9E5F67",
"m  c #A05863",
"M  c #87626A",
"N  c #986063",
"B  c #9A6263",
"V  c #9B6974",
"C  c #A06464",
"Z  c #A6606B",
"A  c #A66468",
"S  c #A1656F",
"D  c #AD666C",
"F  c #AF666F",
"G  c #CE707E",
"H  c #CA7A7D",
"J  c #C97A7F",
"K  c #CD787D",
"L  c #D2717C",
"P  c #D1767D",
"I  c #B87581",
"U  c #CA7787",
"Y  c #CB7880",
"T  c #D07682",
"R  c #D47482",
"E  c #DD7C85",
"W  c #D27E8D",
"Q  c #E17E90",
"!  c #878787",
"~  c #918184",
"^  c #938386",
"/  c #948E8E",
"(  c #A58088",
")  c #BF808B",
"_  c #B68791",
"`  c #BC8E98",
"'  c #AFA6A7",
"]  c #A8AEAE",
"[  c #D38A9B",
"{  c #CC989B",
"}  c #E88490",
"|  c #E08D95",
" . c #E28C97",
".. c #E18E96",
"X. c #E58E96",
"o. c #EA8D97",
"O. c #E78B9A",
"+. c #E28F9F",
"@. c #EC899D",
"#. c #E88FA1",
"$. c #FC97A7",
"%. c #C1ACB1",
"&. c #D8BBBD",
"*. c #EFAEAC",
"=. c #F3B4AF",
"-. c #E9BAB0",
";. c #E9BAB2",
":. c #ECBAB1",
">. c #EBB8B4",
",. c #F0B6B5",
"<. c #F1B8B1",
"1. c #F6B4B8",
"2. c #F1B6BC",
"3. c #F5B9B9",
"4. c #D7C6BF",
"5. c #D5C6C1",
"6. c #D5C6C3",
"7. c #D9C6C0",
"8. c #D8C4C3",
"9. c #DEC5C1",
"0. c #DAC4C6",
"q. c #DDC4C8",
"w. c #E1C3C1",
"e. c #E4C6C6",
"r. c #E5CCCF",
"t. c #E5D5D6",
"y. c #EED1D6",
"u. c #FBD0D7",
"i. c #F5D6DC",
"p. c #FFDBDE",
"a. c #FFDFDF",
"s. c #FFE0DE",
"d. c #F0DBE0",
"f. c #F4DFE4",
"g. c #FFDDE0",
"h. c #F5E0E5",
"j. c #FFE2E0",
"k. c #FFE0E3",
"l. c #FFE5E2",
"z. c #FFE5E4",
"x. c #FFE2E9",
"c. c #FFE5ED",
"v. c #FFE9EF",
/* pixels */
"      p k < t e 0 9 8 7 q w r 1 :       ",
"    y a { 3.*.=.<.:.;.;.>.,.1.2.f a     ",
"  c i I W G L E P K H H Y T R U _ : z   ",
"  i . [ #.Q $.} o.X.......O.@.+.` X :   ",
"v l M V ) m F F A C N N b n Z S ( x - : ",
"* %.h.i.u.v.p.g.z.l.k.s.a.k.x.c.y.f.a o ",
"] h / t.r.&.e.w.9.8.4.6.6.8.0.q.d.~ j ' ",
"    ! O g $ = 6 + # 2 3 4 4 & & @ ~     "
};
