/* XPM */
static char *button_up_[] = {
/* columns rows colors chars-per-pixel */
"20 20 107 2 ",
"   c None",
".  c #6E6256",
"X  c #676C56",
"o  c #6F675A",
"O  c #6F6E5C",
"+  c #70615A",
"@  c #6B755D",
"#  c #70715F",
"$  c #717660",
"%  c #797166",
"&  c #7E776F",
"*  c #A11323",
"=  c #AC1F2F",
"-  c #9D232E",
";  c #8D383F",
":  c #A12734",
">  c #AD2031",
",  c #983E4A",
"<  c #AE3846",
"1  c #AB3C45",
"2  c #A53C4A",
"3  c #A53F4A",
"4  c #B93646",
"5  c #BF3646",
"6  c #B03B44",
"7  c #B43C46",
"8  c #B03C49",
"9  c #B03B4D",
"0  c #C0384C",
"q  c #89474B",
"w  c #95454E",
"e  c #834F51",
"r  c #994C54",
"t  c #845656",
"y  c #A74651",
"u  c #8D6162",
"i  c #926E6E",
"p  c #8F706D",
"a  c #9D7470",
"s  c #B76265",
"d  c #B76665",
"f  c #B5656E",
"g  c #BB6D6D",
"h  c #B2716F",
"j  c #B6736D",
"k  c #B5746E",
"l  c #B8786F",
"z  c #A56A70",
"x  c #A96E72",
"c  c #AE6C70",
"v  c #BD6E71",
"b  c #A77377",
"n  c #AA7370",
"m  c #AA7774",
"M  c #B37777",
"N  c #BC7477",
"B  c #B97C77",
"V  c #BD7C78",
"C  c #C46F76",
"Z  c #C47473",
"A  c #C4777D",
"S  c #D37F7D",
"D  c #8D847D",
"F  c #AE7D80",
"G  c #DE7482",
"H  c #EC7480",
"J  c #E87C89",
"K  c #F67683",
"L  c #F87682",
"P  c #FA7B86",
"I  c #F67C8B",
"U  c #FC7E8A",
"Y  c #959188",
"T  c #AF8785",
"R  c #B88888",
"E  c #AF9C96",
"W  c #AA9F9B",
"Q  c #BF9191",
"!  c #B79F9B",
"~  c #9BA29A",
"^  c #A5A79C",
"/  c #AAA19A",
"(  c #BFA39F",
")  c #BDBEB6",
"_  c #CD868A",
"`  c #D68486",
"'  c #DC8483",
"]  c #DB8584",
"[  c #DA858A",
"{  c #DD8788",
"}  c #DD838C",
"|  c #D29897",
" . c #DF979A",
".. c #C8A9A6",
"X. c #C4B1AB",
"o. c #C8BDB7",
"O. c #D9C0BC",
"+. c #E9D3C5",
"@. c #E6D1CC",
"#. c #F4D7CF",
"$. c #F0D9CB",
"%. c #F3DDCF",
"&. c #F4D9D2",
"*. c #F8DCD0",
"=. c #F9DED3",
"-. c #FCD9D7",
";. c #FFDED8",
/* pixels */
"                                        ",
"                                        ",
"                                        ",
"                                        ",
"                                        ",
"                                        ",
"                                        ",
"        ( a n B k l j V h m ..          ",
"      E T |  .` S ] ' { [ _ Q X.        ",
"      u c } J H U P L K I G f F         ",
"      e r y 8 4 5 = * > 0 9 , z         ",
"      t q ; 2 1 6 7 - : < 2 w b         ",
"    ! p R M N v g Z d s C A x i o.      ",
"    Y / @.&.#.*.%.+.$.*.;.-.O.W ~       ",
"      ^ & % o O $ @ X # . + D )         ",
"                                        ",
"                                        ",
"                                        ",
"                                        ",
"                                        "
};
