/* XPM */
static char *button_green_down_[] = {
/* columns rows colors chars-per-pixel */
"20 8 139 2 ",
"   c None",
".  c #3A3F39",
"X  c #3D383C",
"o  c #364035",
"O  c #374337",
"+  c #394537",
"@  c #364E32",
"#  c #3C4832",
"$  c #3E433F",
"%  c #3D443D",
"&  c #3D493F",
"*  c #2B5E35",
"=  c #3C5B3B",
"-  c #395C3B",
";  c #3E5D3D",
":  c #2D6423",
">  c #2F6625",
",  c #36632E",
"<  c #3D6F34",
"1  c #3E6D36",
"2  c #37613D",
"3  c #33663D",
"4  c #36663C",
"5  c #3D613B",
"6  c #3B653D",
"7  c #46783C",
"8  c #386641",
"9  c #3F6B4A",
"0  c #414141",
"q  c #404241",
"w  c #878787",
"e  c #434144",
"r  c #434146",
"t  c #454046",
"y  c #414D43",
"u  c #5D5155",
"i  c #4D694C",
"p  c #52784F",
"a  c #4A6753",
"s  c #587055",
"d  c #587C52",
"f  c #606A5F",
"g  c #6D5D68",
"h  c #51814A",
"j  c #538448",
"k  c #5E8857",
"l  c #598E56",
"z  c #5C8D55",
"x  c #539452",
"c  c #5B955A",
"v  c #5C9F5A",
"b  c #60935A",
"n  c #639B5E",
"m  c #4EAE4D",
"M  c #57AE4D",
"N  c #4EB24F",
"B  c #51B04A",
"V  c #50B54D",
"C  c #5BAF51",
"Z  c #5CAF53",
"A  c #57AA58",
"S  c #54B252",
"D  c #52B751",
"F  c #5AB153",
"G  c #62A25C",
"H  c #60B45E",
"J  c #5F9C60",
"K  c #668160",
"L  c #6E856B",
"P  c #689D69",
"I  c #729B6F",
"U  c #7F8B7D",
"Y  c #64A060",
"T  c #66A962",
"R  c #6EB567",
"E  c #74AB72",
"W  c #75C96B",
"Q  c #73CA6C",
"!  c #74CA6F",
"~  c #73CE6E",
"^  c #78CC6E",
"/  c #6BD066",
"(  c #72D76D",
")  c #7BD36F",
"_  c #75D571",
"`  c #74D671",
"'  c #79D870",
"]  c #809D7E",
"[  c #82AB7F",
"{  c #80D27E",
"}  c #869284",
"|  c #958F93",
" . c #978A94",
".. c #89AF86",
"X. c #9BA59A",
"o. c #B09BAC",
"O. c #A6D6AB",
"+. c #AEEAAE",
"@. c #ABEDAF",
"#. c #ACE8B2",
"$. c #AEE9B3",
"%. c #AAEEB1",
"&. c #B4EAB0",
"*. c #B2EDB5",
"=. c #B7ECB6",
"-. c #B9EAB3",
";. c #BAEAB6",
":. c #B3F7BA",
">. c #C1D6C3",
",. c #C6D4C5",
"<. c #C2D8C3",
"1. c #C7D5C8",
"2. c #C9D3CA",
"3. c #CBD5CC",
"4. c #CDD4CD",
"5. c #CFD4CE",
"6. c #CED5CE",
"7. c #C9DFCA",
"8. c #D2D4CF",
"9. c #DDD7D7",
"0. c #D0E6CF",
"q. c #CFF8CE",
"w. c #D4E2D3",
"e. c #D8E4D6",
"r. c #D8E6D7",
"t. c #D0EFD0",
"y. c #DFE5DB",
"u. c #DFEDDC",
"i. c #D4FDD3",
"p. c #DDF5DB",
"a. c #DCF6DB",
"s. c #DEF7DA",
"d. c #DBF8DA",
"f. c #DDFADB",
"g. c #D8FFD9",
"h. c #DBFDDA",
"j. c #DAFBDC",
"k. c #DDFCDD",
"l. c #E1F4E0",
/* pixels */
"      i a 9 * 4 6 5 ; = - 2 3 8 p       ",
"    L > O.#.:.@.+.&.-.;.=.*.%.#.h d     ",
"  7 : G H m D V B M C Z F S N A [ < k   ",
"  j : R ! _ ( / ' ) ^ W Q ~ _ { .., <   ",
"  # K I E x v T Y n b z l c J P ] s @   ",
"u 9.y.l.t.g.i.q.g.f.a.a.a.d.j.k.0.u.r.+ ",
"o.g | 8.w.>.7.<.,.2.6.6.6.3.1.,.r.} f X.",
"     .X . y O & $ q e t e q q % O U     "
};
