/* XPM */
static char *button_green_[] = {
/* columns rows colors chars-per-pixel */
"18 10 159 2 ",
"   c #0A2811",
".  c #0B2912",
"X  c #0C2912",
"o  c #0D2B13",
"O  c #17341B",
"+  c #163A1C",
"@  c #18441D",
"#  c #1C4B21",
"$  c #1D4E22",
"%  c #1E4D24",
"&  c #234328",
"*  c #244F29",
"=  c #2C4731",
"-  c #2C4932",
";  c #314E36",
":  c #3F4D3C",
">  c #2B5230",
",  c #38533D",
"<  c #3A553F",
"1  c #385E3B",
"2  c #267B20",
"3  c #2F7B23",
"4  c #366134",
"5  c #3B6037",
"6  c #336F31",
"7  c #386538",
"8  c #3F663F",
"9  c #377134",
"0  c #417E3B",
"q  c #3E3E40",
"w  c #434945",
"e  c #424B46",
"r  c #494F4D",
"t  c #4B4C4E",
"y  c #4D4F4C",
"u  c #4E4E4E",
"i  c #4F4F4F",
"p  c #4F514E",
"a  c #4E4F51",
"s  c #4C5250",
"d  c #4D5351",
"f  c #56505A",
"g  c #4A7943",
"h  c #666865",
"j  c #676966",
"k  c #777777",
"l  c #7C707E",
"z  c #20811A",
"x  c #268121",
"c  c #298520",
"v  c #2D8026",
"b  c #268D20",
"n  c #328F27",
"m  c #318428",
"M  c #2B9624",
"N  c #2F912A",
"B  c #37912F",
"V  c #359B2D",
"C  c #399D2B",
"Z  c #3B8634",
"A  c #3B8F31",
"S  c #3E9E32",
"D  c #29A022",
"F  c #31A329",
"G  c #33AC2B",
"H  c #3DA536",
"J  c #3BAA34",
"K  c #408439",
"L  c #408A3B",
"P  c #438D3E",
"I  c #439B37",
"U  c #469B3E",
"Y  c #42A539",
"T  c #478240",
"R  c #448541",
"E  c #4B8842",
"W  c #508849",
"Q  c #4C9641",
"!  c #489044",
"~  c #519447",
"^  c #56914F",
"/  c #54924F",
"(  c #51974F",
")  c #568755",
"_  c #51AF4E",
"`  c #55AF4F",
"'  c #45B141",
"]  c #4CBE45",
"[  c #4FB44A",
"{  c #4FB14E",
"}  c #5AB452",
"|  c #5FB95F",
" . c #63AE5B",
".. c #68AB5E",
"X. c #64B45B",
"o. c #64BA59",
"O. c #64BB5F",
"+. c #659762",
"@. c #6AA666",
"#. c #6CAA68",
"$. c #67B561",
"%. c #6BB868",
"&. c #72B66D",
"*. c #7BBE79",
"=. c #4FC849",
"-. c #56C453",
";. c #5EC051",
":. c #5EC155",
">. c #5DC356",
",. c #56CC51",
"<. c #5DC95A",
"1. c #68C55D",
"2. c #6EC06C",
"3. c #7ED67F",
"4. c #86C57E",
"5. c #7C6F80",
"6. c #837984",
"7. c #818181",
"8. c #8CC787",
"9. c #8EC98F",
"0. c #93C48C",
"q. c #83D581",
"w. c #90C790",
"e. c #94CA90",
"r. c #91D693",
"t. c #89E18A",
"y. c #93E195",
"u. c #BFE1BE",
"i. c #BDE8BB",
"p. c #BBE8BD",
"a. c #BFAEC1",
"s. c #BEBCC1",
"d. c #CED8CD",
"f. c #CFDBCD",
"g. c #D0DACF",
"h. c #CEDAD0",
"j. c #CFDFD2",
"k. c #D0DED1",
"l. c #D3DFD1",
"z. c #D7DDD6",
"x. c #C7E1C6",
"c. c #C6EBC0",
"v. c #C4E8C4",
"b. c #C7EBC5",
"n. c #CBE0CD",
"m. c #CFEACB",
"M. c #CBEDCA",
"N. c #C1F1C1",
"B. c #C6F6C6",
"V. c #C9F2CA",
"C. c #CEF0CB",
"Z. c #D1E3D3",
"A. c #D5E1D5",
"S. c #D7E3D7",
"D. c #D2E7D4",
"F. c #DAEBDB",
"G. c #DBEDDD",
"H. c #DFE4E0",
"J. c None",
/* pixels */
"J.J.< ; + @ # $ % * > 1 8 4 7 & J.J.",
"J., ) @.*.q.t.3.y.r.9.w.e.8.4.0.= J.",
"J.- #.&.O.>.' <.{ | 2.%. .X.o...X J.",
"J.  0 $.:.] =.,.-.[ _ ` } 1.;.Q . J.",
"J.  K U V F G D J b z c n S C 3 . J.",
"J.  T Z B Y M H N x 2 v m A I ~ o J.",
"J.O 5 +./ ! P L ( R 6 9 W ^ E g : J.",
"h z.F.x.b.i.B.N.p.V.v.u.M.C.c.m.g.k ",
"l 6.s.H.h.G.n.D.Z.j.k.A.S.l.f.d.j 7.",
"J.a.5.f q s w e d r t a i u y p J.J."
};
