/* XPM */
static char *button_red_[] = {
/* columns rows colors chars-per-pixel */
"18 10 163 2 ",
"   c #290B0B",
".  c #2C0C0D",
"X  c #2C0D0D",
"o  c #2D1111",
"O  c #2F1010",
"+  c #351516",
"@  c #361919",
"#  c #3A1818",
"$  c #3A1819",
"%  c #3A1919",
"&  c #3B1A1B",
"*  c #3F1918",
"=  c #3C1B1A",
"-  c #3E1D1D",
";  c #3F1D1F",
":  c #3C1F1F",
">  c #3D3533",
",  c #411A18",
"<  c #421C1A",
"1  c #42201F",
"2  c #441F20",
"3  c #412123",
"4  c #462324",
"5  c #472424",
"6  c #4E3133",
"7  c #403C39",
"8  c #553333",
"9  c #6B2932",
"0  c #6E323B",
"q  c #77363E",
"w  c #41403D",
"e  c #454543",
"r  c #4A4B4B",
"t  c #484C49",
"y  c #4B4F4B",
"u  c #4A4A4E",
"i  c #4D484F",
"p  c #4E494F",
"a  c #465149",
"s  c #45504A",
"d  c #4F4752",
"f  c #4F4850",
"g  c #4D5450",
"h  c #4E5452",
"j  c #5B5352",
"k  c #795D58",
"l  c #5B6864",
"z  c #656E68",
"x  c #767477",
"c  c #787371",
"v  c #7C7473",
"b  c #9B2029",
"n  c #98212C",
"m  c #833836",
"M  c #883B37",
"N  c #A3242D",
"B  c #A1252F",
"V  c #A72A33",
"C  c #A72B35",
"Z  c #B62E37",
"A  c #AC3A3F",
"S  c #B23039",
"D  c #BE313D",
"F  c #B0393D",
"G  c #CF2737",
"H  c #C52D39",
"J  c #C92A39",
"K  c #CA293B",
"L  c #D32D3D",
"P  c #C1303C",
"I  c #CB313F",
"U  c #A03F49",
"Y  c #B23741",
"T  c #BC3340",
"R  c #B93641",
"E  c #C63040",
"W  c #8D4544",
"Q  c #814B4E",
"!  c #9D444D",
"~  c #AA4E57",
"^  c #BA4951",
"/  c #AF535A",
"(  c #B2555E",
")  c #98615E",
"_  c #815D63",
"`  c #895A61",
"'  c #885E64",
"]  c #925E61",
"[  c #B75761",
"{  c #BB5D61",
"}  c #A6676B",
"|  c #AA686E",
" . c #B96064",
".. c #B96567",
"X. c #C04A53",
"o. c #C14F58",
"O. c #CF4E59",
"+. c #DC4552",
"@. c #C3545A",
"#. c #CF535E",
"$. c #C1585D",
"%. c #D1525B",
"&. c #DB505B",
"*. c #DB515B",
"=. c #E54D5B",
"-. c #C75C67",
";. c #CB5A65",
":. c #D15861",
">. c #D25B63",
",. c #DE7078",
"<. c #E4777D",
"1. c #E9727A",
"2. c #ED767D",
"3. c #DC7781",
"4. c #D77981",
"5. c #D77D83",
"6. c #D07F86",
"7. c #DF7B81",
"8. c #D87C83",
"9. c #E37580",
"0. c #E07681",
"q. c #A88A8E",
"w. c #96A299",
"e. c #9FA9AD",
"r. c #AFB9AA",
"t. c #B1B2A9",
"y. c #BDB6B2",
"u. c #B3BEB2",
"i. c #C0878B",
"p. c #DF979A",
"a. c #E09496",
"s. c #E5959D",
"d. c #E39899",
"f. c #E09A9C",
"g. c #DF9CA0",
"h. c #DD9DA3",
"j. c #DE9DA4",
"k. c #E796A0",
"l. c #E399A3",
"z. c #C0BDB8",
"x. c #C2BDBC",
"c. c #C1BFBD",
"v. c #C2BEBE",
"b. c #BDC0B7",
"n. c #BDC2B8",
"m. c #C0C0BC",
"M. c #C6CCBF",
"N. c #C8CCC3",
"B. c #FBD4CC",
"V. c #EBD0D3",
"C. c #E4DCD2",
"Z. c #FBD5D5",
"A. c #FBD6D7",
"S. c #F7D9D2",
"D. c #F0DCD2",
"F. c #F8DAD3",
"G. c #F8D9D6",
"H. c #FADED4",
"J. c #F9D7D8",
"K. c #F8D8D8",
"L. c #FBDDD8",
"P. c #F8DFDD",
"I. c None",
/* pixels */
"I.I.6 + % = 1 5 4 - & % $ # O I.I.I.",
"I.3 ' i.p.a.d.f.g.h.j.l.k.s.] 8 o I.",
"I.2 } 5.,.1.2.<.7.8.4.3.9.0.6.Q X I.",
"I.* W @.*.=.+.&.%.o.^ X.O.#.( q . I.",
"I., M F H G L I D V b N Z R U 9 X   ",
"  < m A P J K E T C n B S Y ! 0 ; : ",
"@ k ) ..$.>.:.;.-.[ ~ / {  .| ` _ q.",
"z N.C.D.H.B.L.Z.A.J.K.G.F.S.P.V.v j ",
"e.l w.u.r.M.t.z.x.v.c.m.n.b.y.c y > ",
"I.I.x g a s h u i d f p r t e 7 w I."
};
