/* XPM */
static char *door_[] = {
/* columns rows colors chars-per-pixel */
"11 20 213 2 ",
"   c #670D17",
".  c #7F161D",
"X  c #611321",
"o  c #6E1825",
"O  c #7D212E",
"+  c #87151D",
"@  c #8C121F",
"#  c #820F20",
"$  c #830E21",
"%  c #801423",
"&  c #841525",
"*  c #861626",
"=  c #8F1520",
"-  c #891426",
";  c #8F1627",
":  c #8C1821",
">  c #8E1922",
",  c #8B1827",
"<  c #8A1728",
"1  c #8C1528",
"2  c #811C2A",
"3  c #8B1829",
"4  c #8A1E2D",
"5  c #8D1E2E",
"6  c #921A23",
"7  c #911D2A",
"8  c #911A2D",
"9  c #921E31",
"0  c #961D30",
"q  c #842028",
"w  c #80232D",
"e  c #862F3F",
"r  c #972735",
"t  c #86303D",
"y  c #90353E",
"u  c #90343F",
"i  c #9C343F",
"p  c #A02738",
"a  c #A1313D",
"s  c #842F42",
"d  c #8A3441",
"f  c #8A3646",
"g  c #9F3043",
"h  c #923844",
"j  c #913B46",
"k  c #973B46",
"l  c #963C45",
"z  c #983C47",
"x  c #903C49",
"c  c #973C4B",
"v  c #933C4C",
"b  c #903F4E",
"n  c #9A3F4E",
"m  c #AB2E40",
"M  c #A33343",
"N  c #AF3D45",
"B  c #AD364A",
"V  c #A13A4B",
"C  c #A73B48",
"Z  c #A53F4D",
"A  c #AF3949",
"S  c #AF384B",
"D  c #A93E48",
"F  c #B3354A",
"G  c #B6384D",
"H  c #B93E50",
"J  c #94404D",
"K  c #9A404A",
"L  c #944153",
"P  c #A3434F",
"I  c #A6414F",
"U  c #AB4553",
"Y  c #AE4E5C",
"T  c #B24353",
"R  c #B94550",
"E  c #BA4450",
"W  c #BF4156",
"Q  c #BB4754",
"!  c #B84854",
"~  c #BF4955",
"^  c #BA4A5A",
"/  c #BF4C5B",
"(  c #BC515B",
")  c #AB5967",
"_  c #B75260",
"`  c #BF5967",
"'  c #BD586A",
"]  c #BA5E6B",
"[  c #C2424F",
"{  c #C3444F",
"}  c #C54252",
"|  c #C54552",
" . c #C54752",
".. c #C54753",
"X. c #C04154",
"o. c #C04557",
"O. c #C44556",
"+. c #C74756",
"@. c #C84553",
"#. c #C04852",
"$. c #C34956",
"%. c #C04E56",
"&. c #C84C57",
"*. c #C44558",
"=. c #C64959",
"-. c #C54B58",
";. c #CA4E59",
":. c #CC4C59",
">. c #C9505F",
",. c #CC535C",
"<. c #C8545D",
"1. c #CF565F",
"2. c #C64B60",
"3. c #C24F60",
"4. c #C64D60",
"5. c #C64F62",
"6. c #C15265",
"7. c #C75265",
"8. c #C75465",
"9. c #CD5060",
"0. c #C85164",
"q. c #CB5064",
"w. c #CB5666",
"e. c #CF5A63",
"r. c #CD5B65",
"t. c #CF5469",
"y. c #CF5669",
"u. c #CC566C",
"i. c #CF5969",
"p. c #C95F69",
"a. c #C8596C",
"s. c #CF5F6F",
"d. c #D15962",
"f. c #D45A65",
"g. c #D15E65",
"h. c #D95B66",
"j. c #D95D67",
"k. c #D05768",
"l. c #D1566A",
"z. c #D15D6A",
"x. c #D65C69",
"c. c #D15A6D",
"v. c #D15C6C",
"b. c #DB5B68",
"n. c #DA5E69",
"m. c #DD5F6B",
"M. c #DE5E6D",
"N. c #D35E71",
"B. c #CB6066",
"V. c #C6626A",
"C. c #CE6271",
"Z. c #C76A74",
"A. c #D76274",
"S. c #D96073",
"D. c #DE6173",
"F. c #DD6773",
"G. c #D96275",
"H. c #DE6377",
"J. c #D76871",
"K. c #DF6A73",
"L. c #D96E76",
"P. c #DD6378",
"I. c #D36F79",
"U. c #D36D7A",
"Y. c #D36C7F",
"T. c #DB6F7E",
"R. c #DC6D7D",
"E. c #DB707A",
"W. c #DF747E",
"Q. c #E0626E",
"!. c #E16371",
"~. c #E16570",
"^. c #E16772",
"/. c #E06375",
"(. c #E16474",
"). c #E26877",
"_. c #E06B7D",
"`. c #E46B7E",
"'. c #E46A7F",
"]. c #D86F80",
"[. c #D67886",
"{. c #DE7987",
"}. c #D47789",
"|. c #DD788A",
" X c #DD7D88",
".X c #E87185",
"XX c #EC7386",
"oX c #EC7287",
"OX c #EA7587",
"+X c #E27980",
"@X c #E47A88",
"#X c #E17F8C",
"$X c #E6828E",
"%X c #E9808F",
"&X c #EB878F",
"*X c #EB8791",
"=X c #EB8592",
"-X c #E68993",
";X c #E68A97",
":X c #EC8A97",
">X c #E38698",
",X c #E88A9A",
"<X c #F28896",
"1X c #F08C96",
"2X c #E9929B",
"3X c #EC909D",
"4X c #EE919C",
"5X c #F19097",
"6X c #F4909A",
"7X c #F4929F",
"8X c #ED92A3",
"9X c #EE9AA7",
"0X c #FE94A2",
/* pixels */
"  z P I Z U V Y c ) X ",
"w Z.$X=X<X0X%X#X;X9Xb ",
"q V.p.D a ! C i  X2Xx ",
". B.J.%.~ F.r.( I.-Xj ",
"+ g.K.1.;.n.#.N W.5Xz ",
"6 d.j. .{ h.,.<.E.&Xy ",
"= f.Q.:.@.b.&.E W.6Xz ",
"@ x.!.+.} M.9.Q E.:Xj ",
"1 l./.=.W D.2.^ ].,Xb ",
"8 N.P.H G q.S g ].>Xf ",
"$ 0.M.2.2..Xu.6.|.8XL ",
"9 N..Xl.t..XN.a.' }.s ",
"3 i.S.H F q.S M ` [.e ",
"8 v.).-.O.!.5.%.@X7Xn ",
"> e.!.+.} m.%.E L.*Xu ",
": d.!.&. .Q.-.E W.<Xk ",
", z.i.r m X.F r U.4Xd ",
"* C.OXS..XoX_.T.|.3XJ ",
"* T 7.5.y.0.3.C._ ] t ",
". 5 < < 0 1 # 4 2 O o "
};
