/* XPM */
static char *door_green_[] = {
/* columns rows colors chars-per-pixel */
"11 20 214 2 ",
"   c #1C390D",
".  c #053D16",
"X  c #03381A",
"o  c #053C1C",
"O  c #0F381A",
"+  c #0B3C1F",
"@  c #113E21",
"#  c #064818",
"$  c #0F501A",
"%  c #0D541A",
"&  c #105711",
"*  c #1C5C12",
"=  c #10541B",
"-  c #205D0D",
";  c #2F6310",
":  c #2C6812",
">  c #20661D",
",  c #246B1D",
"<  c #35691F",
"1  c #3B6C1D",
"2  c #33711E",
"3  c #0F4521",
"4  c #074629",
"5  c #0E462B",
"6  c #0A4A2F",
"7  c #164427",
"8  c #124B22",
"9  c #124F26",
"0  c #1A5225",
"q  c #155A23",
"w  c #0D4D32",
"e  c #0F4E33",
"r  c #104C30",
"t  c #124F30",
"y  c #1A4F33",
"u  c #1B5330",
"i  c #185333",
"p  c #1D5331",
"a  c #1C5232",
"s  c #14563A",
"d  c #23532D",
"f  c #226927",
"g  c #206C24",
"h  c #276F2F",
"j  c #316D23",
"k  c #326F29",
"l  c #346F2F",
"z  c #386F2B",
"x  c #29702A",
"c  c #2E7229",
"v  c #3A7420",
"b  c #3A7523",
"n  c #3A7326",
"m  c #387525",
"M  c #3E7927",
"N  c #3A7229",
"B  c #31792D",
"V  c #317B2E",
"C  c #3F7D2A",
"Z  c #306134",
"A  c #2E7A30",
"S  c #2D7833",
"D  c #367C33",
"F  c #337A34",
"G  c #327B36",
"H  c #337F35",
"J  c #32723E",
"K  c #367F3A",
"L  c #3A7A3D",
"P  c #3A7C3F",
"I  c #416B19",
"U  c #4F732D",
"Y  c #417C2C",
"T  c #4E7F2D",
"R  c #406A3A",
"E  c #456B3A",
"W  c #476F3D",
"Q  c #417A33",
"!  c #3B6341",
"~  c #3F7841",
"^  c #3C7F4A",
"/  c #3A7D52",
"(  c #446C47",
")  c #4E6D41",
"_  c #487242",
"`  c #4D7141",
"'  c #4D7342",
"]  c #4F7343",
"[  c #4D7543",
"{  c #487145",
"}  c #4E7644",
"|  c #497248",
" . c #4D7749",
".. c #447C4B",
"X. c #517044",
"o. c #567347",
"O. c #567748",
"+. c #368237",
"@. c #3C8033",
"#. c #3F8137",
"$. c #368238",
"%. c #31813C",
"&. c #3C843B",
"*. c #3A833C",
"=. c #3D863D",
"-. c #3D843E",
";. c #3C853E",
":. c #4E8532",
">. c #418538",
",. c #42853E",
"<. c #49853D",
"1. c #428D38",
"2. c #4B8838",
"3. c #5A8D3E",
"4. c #5F8E3D",
"5. c #4A943F",
"6. c #358540",
"7. c #3C8943",
"8. c #3F8549",
"9. c #4C8743",
"0. c #438A44",
"q. c #42804F",
"w. c #428F4B",
"e. c #498E4B",
"r. c #558F45",
"t. c #479047",
"y. c #4C9047",
"u. c #4C9744",
"i. c #45904D",
"p. c #4B944F",
"a. c #549344",
"s. c #5A964C",
"d. c #56994C",
"f. c #559E4D",
"g. c #5E9E4A",
"h. c #458054",
"j. c #488252",
"k. c #458A51",
"l. c #4C8B54",
"z. c #49865A",
"x. c #4C8558",
"c. c #46885A",
"v. c #43885C",
"b. c #4B8A5B",
"n. c #508B5B",
"m. c #4D9553",
"M. c #4E9956",
"N. c #4E9458",
"B. c #4E9A59",
"V. c #4F9B5A",
"C. c #569850",
"Z. c #599852",
"A. c #5E9C51",
"S. c #5D9F57",
"D. c #51995A",
"F. c #509C5B",
"G. c #539E5D",
"H. c #5CA651",
"J. c #5BAA57",
"K. c #59A25D",
"L. c #59A05E",
"P. c #5EAD5A",
"I. c #75A24F",
"U. c #66A753",
"Y. c #61A558",
"T. c #60AB58",
"R. c #64A85B",
"E. c #66AB5B",
"W. c #71A55D",
"Q. c #74A95B",
"!. c #62B05C",
"~. c #6DB25F",
"^. c #478C60",
"/. c #498C60",
"(. c #4A8F63",
"). c #4D8C61",
"_. c #518964",
"`. c #598E62",
"'. c #5E9969",
"]. c #67976F",
"[. c #68996C",
"{. c #5EA966",
"}. c #63A460",
"|. c #6AAE61",
" X c #67B462",
".X c #66B562",
"XX c #70B364",
"oX c #7DB167",
"OX c #7DB667",
"+X c #7EB16F",
"@X c #7ABB6B",
"#X c #78BF7B",
"$X c #7FC07C",
"%X c #87B26A",
"&X c #82B66E",
"*X c #85B76E",
"=X c #87B970",
"-X c #88BC72",
";X c #8EBE74",
":X c #91B972",
">X c #92BA73",
",X c #95BF77",
"<X c #87C570",
"1X c #8CC277",
"2X c #85C179",
"3X c #8FC27D",
"4X c #8EC87C",
"5X c #9AC573",
"6X c #9ACB7C",
"7X c #84B586",
"8X c #8CC580",
"9X c #9DCB82",
"0X c #93C48D",
"qX c #A1C680",
/* pixels */
"@ Z n : D N j 1 I U   ",
"7 [.4X<X2X3X,X6X5XqXo.",
"+ `.s.g.k 9.N 3.I.>XX.",
"y x.A.U.S.Z.r.Q.4.:X) ",
"5 z.D ~.,.}.<.OXT ,XO.",
"r ).> u.& e.* Y ; %X` ",
"e / t.u.K.L.y.a.:.9XX.",
"e v.+. XF M.D @X2 ;XE ",
"s v.A  Xi.F.&.XXY =X[ ",
"6 (.+.P.%.F.-.E.v *X[ ",
"4 b.+.J.%.V.-.R.Y -X[ ",
"t v.V !.7.V.*.|.2 oXW ",
"i b.V P.7.G.*.Y.- W.R ",
"o h., 1.g i.x @.m &X_ ",
"u [.>.H.*.{.0.d.2.3X .",
"# q.c f.G m.F C.j +X_ ",
"8 n.6.$Xi.L.-.$Xl 0X| ",
". h.! 8.h %.f L ~ 7X( ",
"a _.z.8.k.D.N.l...[.! ",
"X p 9 # q % = $ 0 d O "
};
