/* XPM */
static char *down2second[] = {
/* columns rows colors chars-per-pixel */
"12 19 23 1 ",
"  c None",
". c black",
"X c #161515",
"o c #1B1B1B",
"O c #1D1C1D",
"+ c gray14",
"@ c #373737",
"# c #3A393A",
"$ c #4B143A",
"% c #4C153A",
"& c #66182C",
"* c #4C3325",
"= c #661C4E",
"- c #494748",
"; c #992342",
": c #992976",
"> c #CC2F58",
", c #E59A72",
"< c #B23089",
"1 c #CA369B",
"2 c #CC379D",
"3 c #FF45C4",
"4 c #FFBD99",
/* pixels */
"     ==     ",
"    =33=+   ",
"   =3<<3=   ",
" ==3<<<<3== ",
"=3<<<<<<<<3=",
"=<<<%%%%<<<=",
" =<%%==%%<= ",
" o%%====%%o ",
"o@@4.44.4@@o",
"o@@,.44.,@@o",
" o@*,,,,*@o ",
"  %;****;%  ",
" %:;;;;;2:% ",
" %;>>>>=22= ",
" %&>>>>=23= ",
"  O----#==  ",
"  O--###X   ",
"  X11OO$    ",
"   $$       "
};
