/* XPM */
static char *left2second[] = {
/* columns rows colors chars-per-pixel */
"12 18 26 1 ",
"  c None",
". c black",
"X c #1B1B1B",
"o c #1D1C1D",
"O c gray14",
"+ c #373737",
"@ c #3A393A",
"# c #4C1221",
"$ c #4B143A",
"% c #4C153A",
"& c #66182C",
"* c #4C3325",
"= c #664432",
"- c #661C4E",
"; c #494748",
": c #494949",
"> c #992342",
", c #992976",
"< c #CC2F58",
"1 c #E59A72",
"2 c #B23089",
"3 c #CA369B",
"4 c #CC379D",
"5 c #FD44C2",
"6 c #FF45C4",
"7 c #FFBD99",
/* pixels */
"   ---      ",
"OO-662--    ",
" -622222-   ",
" -222222,-- ",
"  %%222,,,,-",
" --%%,,,,,,-",
"%%%%%------ ",
"  =1.7::++X ",
"  *1.1:+++X ",
"   *1++++X  ",
"    *XXXX   ",
"   %><<>#   ",
"  -64<<>&%  ",
"  -64%<>&%  ",
"   -%@@;o   ",
"  $3@o@;5$  ",
"  $33oo33$  ",
"   $$  $$   "
};
