/* XPM */
static char *right2second[] = {
/* columns rows colors chars-per-pixel */
"12 18 27 1 ",
"  c None",
". c #000000",
"X c #1B1B1B",
"o c #1D1C1D",
"O c #708090",
"+ c #373737",
"@ c #3A393A",
"# c #4C1221",
"$ c #4B143A",
"% c #4C153A",
"& c #66182C",
"* c #4C3325",
"= c #664432",
"- c #661C4E",
"; c #494748",
": c #494949",
"> c #992342",
", c #992976",
"< c #CC2F58",
"1 c #FF3B6E",
"2 c #E59A72",
"3 c #B23089",
"4 c #CA369B",
"5 c #CC379D",
"6 c #FD44C2",
"7 c #FF45C4",
"8 c #FFBD99",
/* pixels */
"      ---   ",
"    --377-OO",
"   -333337- ",
" --,333333- ",
"-,,,,333%%  ",
"-,,,,,,%%-- ",
" ------%%%%%",
" X++::8.2=  ",
" X+++:2.2*  ",
"  X++++2*   ",
"   XXXX*    ",
"   %><<1#   ",
"  -551<<&%  ",
"  -57-<<&%  ",
"   --@;;o   ",
"  $4@o@;6$  ",
"  $44oo46$  ",
"   $$  $$   "
};
