/* XPM */
static char *up1second[] = {
/* columns rows colors chars-per-pixel */
"12 19 19 1 ",
"  c None",
". c #161515",
"X c #1B1B1B",
"o c #1D1C1D",
"O c #708090",
"+ c #373737",
"@ c #3A393A",
"# c #4B143A",
"$ c #4C153A",
"% c #66182C",
"& c #661C4E",
"* c #494748",
"= c #992342",
"- c #992976",
"; c #CC2F58",
": c #B23089",
"> c #CA369B",
", c #CC379D",
"< c #FF45C4",
/* pixels */
"     &&     ",
"   O&<<&    ",
"   &<::<&   ",
" &&<::::<&& ",
"&<::::::::<&",
"&:::----:::&",
" &--------& ",
" X$------$X ",
"X++$&&&&$++X",
"X+++$$$$+++X",
" X++++++++X ",
"  XXXXXXXX  ",
" $-,=====-$ ",
" &,,&;;;;=$ ",
" &<,&;;;;%$ ",
"  &&@****o  ",
"   .@@@**o  ",
"    #oo>>.  ",
"       ##   "
};
