/* XPM */
static const char * down1[]  = {
/* columns rows colors chars-per-pixel */
"13 21 41 1 ",
"  c None",
". c #000000",
"X c #180F09",
"o c #21110D",
"O c #21160D",
"+ c #28180E",
"@ c #362416",
"# c #333437",
"$ c #402717",
"% c #492E1C",
"& c #4E331E",
"* c #412F23",
"= c #573A23",
"- c #494136",
"; c #5E4C3E",
": c #694732",
"> c #775339",
", c #77533F",
"< c #122A56",
"1 c #413D4A",
"2 c #344E79",
"3 c #3C557E",
"4 c #5F5149",
"5 c #474A5A",
"6 c #786B59",
"7 c #808080 ",
"8 c #835B42",
"9 c #8C6247",
"0 c #AC7B5D",
"q c #987C73",
"w c #B48E70",
"e c #B9997C",
"r c #23509A",
"t c #2658A5",
"y c #2C65B5",
"u c #787E97",
"i c #5B75A2",
"p c #778FB5",
"a c #85868C",
"s c #898EA2",
"d c #C1AC8F",
/* pixels */
"  .OOX O.    ",
"  .@=%X=OOX  ",
"  XO==X===X. ",
" Xo===&====X ",
".X==&&$&===X.",
".===$:::>&==.",
".==&:0000:&=.",
".&=:,www,0$@7",
"7+=wodddow:. ",
" .>d;ddd;d0. ",
" .8eddddde8. ",
" 7+8eeeee8+7 ",
"  .$8qqq9$.  ",
"  .$%uss=$.  ",
"  -*=ipp==*  ",
" .d15yyy550. ",
" 76ryytyy39. ",
"  .yyy<23==. ",
"  .332.+@@@# ",
" a.==+#####a ",
"aa#44#aaaaaaa"
};

