/* XPM */
static const char * left2[]  = {
/* columns rows colors chars-per-pixel */
"15 17 11 1 ",
"  c None",
". c #000000",
"X c #21110D",
"o c #402717",
"O c #573A23",
"+ c #AC7B5D",
"@ c #1D438A",
"# c #2C65B5",
"$ c #A4A8B5",
"% c #C1AC8F",
"& c #C2C2C5",
/* pixels */
"      .. ....  ",
"    ...O.oOO.  ",
"   .OOoOoOO..  ",
"  .OOOOOOOOOo. ",
" .OOOOOOOOOOOo.",
" .OOOooOOOoOOo.",
".oOo++oOOOoooo.",
".oo++++oOOooOo.",
".o.X%%X+Oo+OOo.",
" ..X%%X%o++Ooo.",
"  .%%%%%%++oo. ",
"  .+%%%%++++.  ",
"   .++++++o.   ",
"  .+o$$$oo%%.  ",
"  .+o####o%%.  ",
"  &.o##@##@o.  ",
" &&&.Oo..Oo.&& "
};

