/* XPM */
static char *ar[] = {
/* columns rows colors chars-per-pixel */
"96 27 8 1 ",
"  c #808080",
". c #101010",
"X c #111111",
"o c #222222",
"O c #282828",
"+ c #888383",
"@ c #FFFFFF",
"# c None",
/* pixels */
"######XXXXXXXXXXXXXXXXXXXXX###########XXXXXXXXXXXXXXXXXXXXX###########XXXXXXXXXXXXXXXXXXXXX#####",
"####XX+++++++++++++++++++++XX#######XX+++++++++++++++++++++XX#######XX+++++++++++++++++++++XX###",
"###X+++++++++++++++++++++++++X#####X+++++++++++++++++++++++++X#####X+++++++++++++++++++++++++X##",
"##X++++++++++++++++++++++++++X####X++++++++++++++++++++++++++X####X++++++++++++++++++++++++++X##",
"##X++++++++++++++++++++++++++X####X++++++++++++++++++++++++++X####X++++++++++++++++++++++++++X##",
"##X++++++++++++++++++++++++++X####X++++++++++++++++++++++++++X####X++++++++++++++++++++++++++X##",
"##X+++++++++++@@@++++++++++++X####X++++++++++@@@@@@@+++++++++X####X++++++++++@@@@@@@@++++++++X##",
"##X+++++++++++@@@++++++++++++X####X++++++++++@@+++@@+++++++++X####X+++++++++++++@@@++++++++++X##",
"##X++++++++++@@@@++++++++++++X####X+++++++++@@@+++@@@++++++++X####X+++++++++++++@@@++++++++++X##",
"##X+++++++++++@@@++++++++++++X####X++++++++++++++@@@@++++++++X####X++++++++++++@@@+++++++++++X##",
"##X+++++++++++@@@++++++++++++X####X++++++++++++++@@@+++++++++X####X++++++++++++@@@+++++++++++X##",
"##X+++++++++++@@@++++++++++++X####X++++++++++++@@@@@+++++++++X####X++++++++++++@@@@++++++++++X##",
"##X+++++++++++@@@++++++++++++X####X++++++++++@@@@@+++++++++++X####X+++++++++++++++@@@++++++++X##",
"##X+++++++++++@@@++++++++++++X####X+++++++++@@@@+++++++++++++X####X+++++++++@@@+++@@@++++++++X##",
"# X+++++++++++@@@++++++++++++X ## X+++++++++@@@@+++++++++++++X ## X++++++++++@@+++@++++++++++X #",
" oX+++++++++@@@@@@@@+++++++++Xo  oX+++++++++@@@@@@@@@++++++++Xo  oX++++++++++@@@@@@++++++++++Xo ",
" oX++++++++++++++++++++++++++Xo  oX++++++++++++++++++++++++++Xo  oX++++++++++++++++++++++++++Xo ",
" oX++++++++++++++++++++++++++Xo  oX++++++++++++++++++++++++++Xo  oX++++++++++++++++++++++++++Xo ",
" oX++++++++++++++++++++++++++Xo  oX++++++++++++++++++++++++++Xo  oX++++++++++++++++++++++++++Xo ",
" oX++++++++++++++++++++++++++Xo  oX++++++++++++++++++++++++++Xo  oX++++++++++++++++++++++++++Xo ",
" oX++++++++++++++++++++++++++Xo  oX++++++++++++++++++++++++++Xo  oX++++++++++++++++++++++++++Xo ",
" oOX++++++++++++++++++++++++XOo  oOX++++++++++++++++++++++++XOo  oOX++++++++++++++++++++++++XOo ",
" o.OXXXXXXXXXXXXXXXXXXXXXXXXO.o  o.OXXXXXXXXXXXXXXXXXXXXXXXXO.o  o.OXXXXXXXXXXXXXXXXXXXXXXXXO.o ",
"# o.OOOOOOOOOOOOOOOOOOOOOOOO.oo # o.OOOOOOOOOOOOOOOOOOOOOOOO.oo # o.OOOOOOOOOOOOOOOOOOOOOOOO.oo ",
"# oo........................oo ## oo........................oo ## oo........................oo #",
"## ooooooooooooooooooooooooo  #### ooooooooooooooooooooooooo  #### ooooooooooooooooooooooooo  ##",
"###                         #######                         #######                         ####"
};


