/* XPM */
static char *start_button[] = {
/* columns rows colors chars-per-pixel */
"180 60 6 1 ",
"  c #A738D5",
". c #2A260B",
"X c #BC9414",
"o c #C39C18",
"O c #F2CB21",
"+ c #F8F6A5",
/* pixels */
"                                                                                                                                                                                    ",
"                                                                                                                                                                                    ",
"                                                                                                                                                                                    ",
"             ........................................................................................................................................................               ",
"             ........................................................................................................................................................               ",
"             ........................................................................................................................................................               ",
"             ........................................................................................................................................................               ",
"         ........OOOOOOOOOOOOOOOOOOOOOOOOOOOOOOOOOOOOOOOOOOOOOOOOOOOOOOOOOOOOOOOOOOOOOOOOOOOOOOOOOOOOOOOOOOOOOOOOOOOOOOOOOOOOOOOOOOOOOOOOOOOOOOOOOOOOOOOOOOOOOOOO........           ",
"         ........OOOOOOOOOOOOOOOOOOOOOOOOOOOOOOOOOOOOOOOOOOOOOOOOOOOOOOOOOOOOOOOOOOOOOOOOOOOOOOOOOOOOOOOOOOOOOOOOOOOOOOOOOOOOOOOOOOOOOOOOOOOOOOOOOOOOOOOOOOOOOOOO........           ",
"         ........OOOOOOOOOOOOOOOOOOOOOOOOOOOOOOOOOOOOOOOOOOOOOOOOOOOOOOOOOOOOOOOOOOOOOOOOOOOOOOOOOOOOOOOOOOOOOOOOOOOOOOOOOOOOOOOOOOOOOOOOOOOOOOOOOOOOOOOOOOOOOOOO........           ",
"         ........OOOOOOOOOOOOOOOOOOOOOOOOOOOOOOOOOOOOOOOOOOOOOOOOOOOOOOOOOOOOOOOOOOOOOOOOOOOOOOOOOOOOOOOOOOOOOOOOOOOOOOOOOOOOOOOOOOOOOOOOOOOOOOOOOOOOOOOOOOOOOOOO........           ",
"     ........OOOOOOOOOOOOOOOOOOOOOOOOOOOOOOOOOOOOOOOOOOOOOOOOOOOOOOOOOOOOOOOOOOOOOOOOOOOOOOOOOOOOOOOOOOOOOOOOOOOOOOOOOOOOOOOOOOOOOOOOOOOOOOOOOOOOOOOOOOOOOOOOOOOOOOOO........       ",
"     ........OOOOOOOOOOOOOOOOOOOOOOOOOOOOOOOOOOOOOOOOOOOOOOOOOOOOOOOOOOOOOOOOOOOOOOOOOOOOOOOOOOOOOOOOOOOOOOOOOOOOOOOOOOOOOOOOOOOOOOOOOOOOOOOOOOOOOOOOOOOOOOOOOOOOOOOO........       ",
"     ........OOOOOOOOOOOOOOOOOOOOOOOOOOOOOOOOOOOOOOOOOOOOOOOOOOOOOOOOOOOOOOOOOOOOOOOOOOOOOOOOOOOOOOOOOOOOOOOOOOOOOOOOOOOOOOOOOOOOOOOOOOOOOOOOOOOOOOOOOOOOOOOOOOOOOOOO........       ",
"     ........OOOOOOOOOOOOOOOOOOOOOOOOOOOOOOOOOOOOOOOOOOOOOOOOOOOOOOOOOOOOOOOOOOOOOOOOOOOOOOOOOOOOOOOOOOOOOOOOOOOOOOOOOOOOOOOOOOOOOOOOOOOOOOOOOOOOOOOOOOOOOOOOOOOOOOOO........       ",
"     ....OOOOOOOOooooXXXXXXXXXXXXXXXXooooOOOOooooXXXXXXXXXXXXXXXXXXXXooooOOOOooooXXXXXXXXXXXXXXXXooooOOOOooooXXXXXXXXXXXXXXXXooooOOOOooooXXXXXXXXXXXXXXXXXXXXooooOOOOOOOO....       ",
"     ....OOOOOOOOooooXXXXXXXXXXXXXXXXooooOOOOooooXXXXXXXXXXXXXXXXXXXXooooOOOOooooXXXXXXXXXXXXXXXXooooOOOOooooXXXXXXXXXXXXXXXXooooOOOOooooXXXXXXXXXXXXXXXXXXXXooooOOOOOOOO....       ",
"     ....OOOOOOOOooooXXXXXXXXXXXXXXXXooooOOOOooooXXXXXXXXXXXXXXXXXXXXooooOOOOooooXXXXXXXXXXXXXXXXooooOOOOooooXXXXXXXXXXXXXXXXooooOOOOooooXXXXXXXXXXXXXXXXXXXXooooOOOOOOOO....       ",
"     ....OOOOOOOOooooXXXXXXXXXXXXXXXXooooOOOOooooXXXXXXXXXXXXXXXXXXXXooooOOOOooooXXXXXXXXXXXXXXXXooooOOOOooooXXXXXXXXXXXXXXXXooooOOOOooooXXXXXXXXXXXXXXXXXXXXooooOOOOOOOO....       ",
"     ....OOOOOOOOXXXX++++++++++++++++XXXXOOOOXXXX++++++++++++++++++++XXXXOOOOXXXX++++++++++++++++XXXXOOOOXXXX++++++++++++++++XXXXOOOOXXXX++++++++++++++++++++XXXXOOOOOOOO....       ",
"     ....OOOOOOOOXXXX++++++++++++++++XXXXOOOOXXXX++++++++++++++++++++XXXXOOOOXXXX++++++++++++++++XXXXOOOOXXXX++++++++++++++++XXXXOOOOXXXX++++++++++++++++++++XXXXOOOOOOOO....       ",
"     ....OOOOOOOOXXXX++++++++++++++++XXXXOOOOXXXX++++++++++++++++++++XXXXOOOOXXXX++++++++++++++++XXXXOOOOXXXX++++++++++++++++XXXXOOOOXXXX++++++++++++++++++++XXXXOOOOOOOO....       ",
"     ....OOOOOOOOXXXX++++++++++++++++XXXXOOOOXXXX++++++++++++++++++++XXXXOOOOXXXX++++++++++++++++XXXXOOOOXXXX++++++++++++++++XXXXOOOOXXXX++++++++++++++++++++XXXXOOOOOOOO....       ",
"     ....OOOOOOOOXXXX++++XXXXXXXXXXXXooooOOOOooooXXXXXXXX++++XXXXXXXXooooOOOOXXXX++++XXXXXXXX++++XXXXOOOOXXXX++++XXXXXXXX++++XXXXOOOOooooXXXXXXXX++++XXXXXXXXooooOOOOOOOO....       ",
"     ....OOOOOOOOXXXX++++XXXXXXXXXXXXooooOOOOooooXXXXXXXX++++XXXXXXXXooooOOOOXXXX++++XXXXXXXX++++XXXXOOOOXXXX++++XXXXXXXX++++XXXXOOOOooooXXXXXXXX++++XXXXXXXXooooOOOOOOOO....       ",
"     ....OOOOOOOOXXXX++++XXXXXXXXXXXXooooOOOOooooXXXXXXXX++++XXXXXXXXooooOOOOXXXX++++XXXXXXXX++++XXXXOOOOXXXX++++XXXXXXXX++++XXXXOOOOooooXXXXXXXX++++XXXXXXXXooooOOOOOOOO....       ",
"     ....OOOOOOOOXXXX++++XXXXXXXXXXXXooooOOOOooooXXXXXXXX++++XXXXXXXXooooOOOOXXXX++++XXXXXXXX++++XXXXOOOOXXXX++++XXXXXXXX++++XXXXOOOOooooXXXXXXXX++++XXXXXXXXooooOOOOOOOO....       ",
"     ....OOOOOOOOXXXX++++++++++++++++XXXXOOOOOOOOOOOOXXXX++++XXXXOOOOOOOOOOOOXXXX++++XXXXXXXX++++XXXXOOOOXXXX++++++++++++++++XXXXOOOOOOOOOOOOXXXX++++XXXXOOOOOOOOOOOOOOOO....       ",
"     ....OOOOOOOOXXXX++++++++++++++++XXXXOOOOOOOOOOOOXXXX++++XXXXOOOOOOOOOOOOXXXX++++XXXXXXXX++++XXXXOOOOXXXX++++++++++++++++XXXXOOOOOOOOOOOOXXXX++++XXXXOOOOOOOOOOOOOOOO....       ",
"     ....OOOOOOOOXXXX++++++++++++++++XXXXOOOOOOOOOOOOXXXX++++XXXXOOOOOOOOOOOOXXXX++++XXXXXXXX++++XXXXOOOOXXXX++++++++++++++++XXXXOOOOOOOOOOOOXXXX++++XXXXOOOOOOOOOOOOOOOO....       ",
"     ....OOOOOOOOXXXX++++++++++++++++XXXXOOOOOOOOOOOOXXXX++++XXXXOOOOOOOOOOOOXXXX++++XXXXXXXX++++XXXXOOOOXXXX++++++++++++++++XXXXOOOOOOOOOOOOXXXX++++XXXXOOOOOOOOOOOOOOOO....       ",
"     ....OOOOOOOOooooXXXXXXXXXXXX++++XXXXOOOOOOOOOOOOXXXX++++XXXXOOOOOOOOOOOOXXXX++++++++++++++++XXXXOOOOXXXX++++XXXX++++XXXXooooOOOOOOOOOOOOXXXX++++XXXXOOOOOOOOOOOOOOOO....       ",
"     ....OOOOOOOOooooXXXXXXXXXXXX++++XXXXOOOOOOOOOOOOXXXX++++XXXXOOOOOOOOOOOOXXXX++++++++++++++++XXXXOOOOXXXX++++XXXX++++XXXXooooOOOOOOOOOOOOXXXX++++XXXXOOOOOOOOOOOOOOOO....       ",
"     ....OOOOOOOOooooXXXXXXXXXXXX++++XXXXOOOOOOOOOOOOXXXX++++XXXXOOOOOOOOOOOOXXXX++++++++++++++++XXXXOOOOXXXX++++XXXX++++XXXXooooOOOOOOOOOOOOXXXX++++XXXXOOOOOOOOOOOOOOOO....       ",
"     ....OOOOOOOOooooXXXXXXXXXXXX++++XXXXOOOOOOOOOOOOXXXX++++XXXXOOOOOOOOOOOOXXXX++++++++++++++++XXXXOOOOXXXX++++XXXX++++XXXXooooOOOOOOOOOOOOXXXX++++XXXXOOOOOOOOOOOOOOOO....       ",
"     ....OOOOOOOOXXXX++++++++++++++++XXXXOOOOOOOOOOOOXXXX++++XXXXOOOOOOOOOOOOXXXX++++XXXXXXXX++++XXXXOOOOXXXX++++XXXXXXXX++++XXXXOOOOOOOOOOOOXXXX++++XXXXOOOOOOOOOOOOOOOO....       ",
"     ....OOOOOOOOXXXX++++++++++++++++XXXXOOOOOOOOOOOOXXXX++++XXXXOOOOOOOOOOOOXXXX++++XXXXXXXX++++XXXXOOOOXXXX++++XXXXXXXX++++XXXXOOOOOOOOOOOOXXXX++++XXXXOOOOOOOOOOOOOOOO....       ",
"     ....OOOOOOOOXXXX++++++++++++++++XXXXOOOOOOOOOOOOXXXX++++XXXXOOOOOOOOOOOOXXXX++++XXXXXXXX++++XXXXOOOOXXXX++++XXXXXXXX++++XXXXOOOOOOOOOOOOXXXX++++XXXXOOOOOOOOOOOOOOOO....       ",
"     ....OOOOOOOOXXXX++++++++++++++++XXXXOOOOOOOOOOOOXXXX++++XXXXOOOOOOOOOOOOXXXX++++XXXXXXXX++++XXXXOOOOXXXX++++XXXXXXXX++++XXXXOOOOOOOOOOOOXXXX++++XXXXOOOOOOOOOOOOOOOO....       ",
"     ....OOOOOOOOooooXXXXXXXXXXXXXXXXooooOOOOOOOOOOOOooooXXXXooooOOOOOOOOOOOOooooXXXXooooooooXXXXooooOOOOooooXXXXooooooooXXXXooooOOOOOOOOOOOOooooXXXXooooOOOOOOOOOOOOOOOO....       ",
"     ....OOOOOOOOooooXXXXXXXXXXXXXXXXooooOOOOOOOOOOOOooooXXXXooooOOOOOOOOOOOOooooXXXXooooooooXXXXooooOOOOooooXXXXooooooooXXXXooooOOOOOOOOOOOOooooXXXXooooOOOOOOOOOOOOOOOO....       ",
"     ....OOOOOOOOooooXXXXXXXXXXXXXXXXooooOOOOOOOOOOOOooooXXXXooooOOOOOOOOOOOOooooXXXXooooooooXXXXooooOOOOooooXXXXooooooooXXXXooooOOOOOOOOOOOOooooXXXXooooOOOOOOOOOOOOOOOO....       ",
"     ....OOOOOOOOooooXXXXXXXXXXXXXXXXooooOOOOOOOOOOOOooooXXXXooooOOOOOOOOOOOOooooXXXXooooooooXXXXooooOOOOooooXXXXooooooooXXXXooooOOOOOOOOOOOOooooXXXXooooOOOOOOOOOOOOOOOO....       ",
"     ........OOOOOOOOOOOOOOOOOOOOOOOOOOOOOOOOOOOOOOOOOOOOOOOOOOOOOOOOOOOOOOOOOOOOOOOOOOOOOOOOOOOOOOOOOOOOOOOOOOOOOOOOOOOOOOOOOOOOOOOOOOOOOOOOOOOOOOOOOOOOOOOOOOOOOOOO........       ",
"     ........OOOOOOOOOOOOOOOOOOOOOOOOOOOOOOOOOOOOOOOOOOOOOOOOOOOOOOOOOOOOOOOOOOOOOOOOOOOOOOOOOOOOOOOOOOOOOOOOOOOOOOOOOOOOOOOOOOOOOOOOOOOOOOOOOOOOOOOOOOOOOOOOOOOOOOOO........       ",
"     ........OOOOOOOOOOOOOOOOOOOOOOOOOOOOOOOOOOOOOOOOOOOOOOOOOOOOOOOOOOOOOOOOOOOOOOOOOOOOOOOOOOOOOOOOOOOOOOOOOOOOOOOOOOOOOOOOOOOOOOOOOOOOOOOOOOOOOOOOOOOOOOOOOOOOOOOO........       ",
"     ........OOOOOOOOOOOOOOOOOOOOOOOOOOOOOOOOOOOOOOOOOOOOOOOOOOOOOOOOOOOOOOOOOOOOOOOOOOOOOOOOOOOOOOOOOOOOOOOOOOOOOOOOOOOOOOOOOOOOOOOOOOOOOOOOOOOOOOOOOOOOOOOOOOOOOOOO........       ",
"         ........OOOOOOOOOOOOOOOOOOOOOOOOOOOOOOOOOOOOOOOOOOOOOOOOOOOOOOOOOOOOOOOOOOOOOOOOOOOOOOOOOOOOOOOOOOOOOOOOOOOOOOOOOOOOOOOOOOOOOOOOOOOOOOOOOOOOOOOOOOOOOOOO........           ",
"         ........OOOOOOOOOOOOOOOOOOOOOOOOOOOOOOOOOOOOOOOOOOOOOOOOOOOOOOOOOOOOOOOOOOOOOOOOOOOOOOOOOOOOOOOOOOOOOOOOOOOOOOOOOOOOOOOOOOOOOOOOOOOOOOOOOOOOOOOOOOOOOOOO........           ",
"         ........OOOOOOOOOOOOOOOOOOOOOOOOOOOOOOOOOOOOOOOOOOOOOOOOOOOOOOOOOOOOOOOOOOOOOOOOOOOOOOOOOOOOOOOOOOOOOOOOOOOOOOOOOOOOOOOOOOOOOOOOOOOOOOOOOOOOOOOOOOOOOOOO........           ",
"         ........OOOOOOOOOOOOOOOOOOOOOOOOOOOOOOOOOOOOOOOOOOOOOOOOOOOOOOOOOOOOOOOOOOOOOOOOOOOOOOOOOOOOOOOOOOOOOOOOOOOOOOOOOOOOOOOOOOOOOOOOOOOOOOOOOOOOOOOOOOOOOOOO........           ",
"             ........................................................................................................................................................               ",
"             ........................................................................................................................................................               ",
"             ........................................................................................................................................................               ",
"             ........................................................................................................................................................               ",
"                                                                                                                                                                                    ",
"                                                                                                                                                                                    ",
"                                                                                                                                                                                    ",
"                                                                                                                                                                                    ",
"                                                                                                                                                                                    "
};
