/* XPM */
static const char * up2[] = {
/* columns rows colors chars-per-pixel */
"13 19 82 1 ",
"  c None",
". c #030201",
"X c #040302",
"o c #050302",
"O c #040405",
"+ c #808080",
"@ c #1F130B",
"# c #1F150F",
"$ c #20140C",
"% c #21140C",
"& c #22150C",
"* c #23150D",
"= c #23160D",
"- c #24160E",
"; c #251912",
": c #241913",
"> c #251913",
", c #281B10",
"< c #2A1C11",
"1 c #2B1D11",
"2 c #2C1D12",
"3 c #2D1E12",
"4 c #2E1F12",
"5 c #2F1F13",
"6 c #2C1F15",
"7 c #2E2017",
"8 c #3E2616",
"9 c #402717",
"0 c #432919",
"q c #462C1B",
"w c #422B1D",
"e c #4B301D",
"r c #4C311D",
"t c #493325",
"y c #523721",
"u c #543822",
"i c #563922",
"p c #563923",
"a c #573A23",
"s c #563B27",
"d c #543C2A",
"f c #523B2C",
"g c #543D2C",
"h c #553D2D",
"j c #553D2E",
"k c #553F32",
"l c #574032",
"z c #734F39",
"x c #75503A",
"c c #78533C",
"v c #7A543D",
"b c #7D573E",
"n c #7E583E",
"m c #0F2041",
"M c #0E2144",
"N c #0F2246",
"B c #122346",
"V c #3A3C52",
"C c #46474C",
"Z c #48494E",
"A c #414F6C",
"S c #675F70",
"D c #767676",
"F c #777777",
"G c #7A7A7B",
"H c #7B7B7B",
"J c #7C7B7B",
"K c #7D7C7C",
"L c #7E7E7E",
"P c #80593F",
"I c #A7775A",
"U c #A9795B",
"Y c #AA795B",
"T c #1D4083",
"R c #1F4183",
"E c #1D438A",
"W c #23519A",
"Q c #275298",
"! c #24539F",
"~ c #2F62AC",
"^ c #2B63B2",
"/ c #85868C",
/* pixels */
"    F.JFXX.  ",
"  FXX44ora,  ",
" Loraarra4XH ",
" F4aaaaaaaroH",
"Loraaaaaaaae@",
"Loraaaaaaaae@",
"L%eaaaaaaaae@",
" ;8eaaaaaae9@",
" L%99eaae998;",
" L-09999990o ",
"  lzq0990qxk ",
"  LjUcqqvUf  ",
"  L4PIIIIn1  ",
"  L1aaasjd7L ",
"  L#tjdA~QSj ",
"  LN!^WVaabk ",
"  HNEEN1yy6  ",
"  CBTTmO++Z/ ",
" //C;w;Z/////"
};

