/* XPM */
static char *fire1[] = {
/* columns rows colors chars-per-pixel */
"8 16 6 1 ",
"  c #3291EB",
". c #47AFFA",
"X c #5ACBFD",
"o c #98FFF6",
"O c #ECFFFB",
"+ c None",
/* pixels */
"++++ +++",
"+o+++++X",
" ++++ .+",
"+ +.++ +",
"++++X+.+",
"+ ++X.++",
"+.++.X+.",
"+ .+ . X",
"+ ..    ",
"+ . . X ",
" .X . X.",
" .X.o ..",
".XoOooX.",
" .oOOXX ",
" .XooX. ",
"+ .XX. +"
};
