/* XPM */
static char *fire3[] = {
/* columns rows colors chars-per-pixel */
"14 16 6 1 ",
"  c #3291EB",
". c #47AFFA",
"X c #5ACBFD",
"o c #98FFF6",
"O c #ECFFFB",
"+ c None",
/* pixels */
"+++++++++++++ ",
"++.+++.++ ++ +",
"++ ++++++.+++o",
"+++ + +. . +++",
" o+ .  . X.+.+",
".++ . X. o. .+",
"++ .o.OoXoXX +",
" +..OoOOoOXo .",
"+. XOooOoOOo..",
".. OoOOOOOoX..",
"+..oOoOoOOo.. ",
"+ .OoOOOOoOX.+",
"++.OOOOOOOOX +",
"++ XOOOOOOX.++",
"+++.XOOOOX.+++",
"++++ .XX. ++++"
};
