/* XPM */
static char *quit_button[] = {
/* columns rows colors chars-per-pixel */
"145 60 6 1 ",
"  c None",
". c #2A260B",
"X c #BC9414",
"o c #C39C18",
"O c #F2CB21",
"+ c #F8F6A5",
/* pixels */
"                                                                                                                                                 ",
"                                                                                                                                                 ",
"                                                                                                                                                 ",
"             ........................................................................................................................            ",
"             ........................................................................................................................            ",
"             ........................................................................................................................            ",
"             ........................................................................................................................            ",
"         ........OOOOOOOOOOOOOOOOOOOOOOOOOOOOOOOOOOOOOOOOOOOOOOOOOOOOOOOOOOOOOOOOOOOOOOOOOOOOOOOOOOOOOOOOOOOOOOOOOOOOOOOOOOOOOOOO........        ",
"         ........OOOOOOOOOOOOOOOOOOOOOOOOOOOOOOOOOOOOOOOOOOOOOOOOOOOOOOOOOOOOOOOOOOOOOOOOOOOOOOOOOOOOOOOOOOOOOOOOOOOOOOOOOOOOOOOO........        ",
"         ........OOOOOOOOOOOOOOOOOOOOOOOOOOOOOOOOOOOOOOOOOOOOOOOOOOOOOOOOOOOOOOOOOOOOOOOOOOOOOOOOOOOOOOOOOOOOOOOOOOOOOOOOOOOOOOOO........        ",
"         ........OOOOOOOOOOOOOOOOOOOOOOOOOOOOOOOOOOOOOOOOOOOOOOOOOOOOOOOOOOOOOOOOOOOOOOOOOOOOOOOOOOOOOOOOOOOOOOOOOOOOOOOOOOOOOOOO........        ",
"     ........OOOOOOOOOOOOOOOOOOOOOOOOOOOOOOOOOOOOOOOOOOOOOOOOOOOOOOOOOOOOOOOOOOOOOOOOOOOOOOOOOOOOOOOOOOOOOOOOOOOOOOOOOOOOOOOOOOOOOOOO........    ",
"     ........OOOOOOOOOOOOOOOOOOOOOOOOOOOOOOOOOOOOOOOOOOOOOOOOOOOOOOOOOOOOOOOOOOOOOOOOOOOOOOOOOOOOOOOOOOOOOOOOOOOOOOOOOOOOOOOOOOOOOOOO........    ",
"     ........OOOOOOOOOOOOOOOOOOOOOOOOOOOOOOOOOOOOOOOOOOOOOOOOOOOOOOOOOOOOOOOOOOOOOOOOOOOOOOOOOOOOOOOOOOOOOOOOOOOOOOOOOOOOOOOOOOOOOOOO........    ",
"     ........OOOOOOOOOOOOOOOOOOOOOOOOOOOOOOOOOOOOOOOOOOOOOOOOOOOOOOOOOOOOOOOOOOOOOOOOOOOOOOOOOOOOOOOOOOOOOOOOOOOOOOOOOOOOOOOOOOOOOOOO........    ",
"     ....OOOOOOOOooooXXXXXXXXXXXXXXXXooooOOOOOOOOooooXXXXooooooooXXXXooooOOOOooooXXXXXXXXXXXXooooOOOOooooXXXXXXXXXXXXXXXXXXXXooooOOOOOOOO....    ",
"     ....OOOOOOOOooooXXXXXXXXXXXXXXXXooooOOOOOOOOooooXXXXooooooooXXXXooooOOOOooooXXXXXXXXXXXXooooOOOOooooXXXXXXXXXXXXXXXXXXXXooooOOOOOOOO....    ",
"     ....OOOOOOOOooooXXXXXXXXXXXXXXXXooooOOOOOOOOooooXXXXooooooooXXXXooooOOOOooooXXXXXXXXXXXXooooOOOOooooXXXXXXXXXXXXXXXXXXXXooooOOOOOOOO....    ",
"     ....OOOOOOOOooooXXXXXXXXXXXXXXXXooooOOOOOOOOooooXXXXooooooooXXXXooooOOOOooooXXXXXXXXXXXXooooOOOOooooXXXXXXXXXXXXXXXXXXXXooooOOOOOOOO....    ",
"     ....OOOOOOOOXXXX++++++++++++++++XXXXOOOOOOOOXXXX++++XXXXXXXX++++XXXXOOOOXXXX++++++++++++XXXXOOOOXXXX++++++++++++++++++++XXXXOOOOOOOO....    ",
"     ....OOOOOOOOXXXX++++++++++++++++XXXXOOOOOOOOXXXX++++XXXXXXXX++++XXXXOOOOXXXX++++++++++++XXXXOOOOXXXX++++++++++++++++++++XXXXOOOOOOOO....    ",
"     ....OOOOOOOOXXXX++++++++++++++++XXXXOOOOOOOOXXXX++++XXXXXXXX++++XXXXOOOOXXXX++++++++++++XXXXOOOOXXXX++++++++++++++++++++XXXXOOOOOOOO....    ",
"     ....OOOOOOOOXXXX++++++++++++++++XXXXOOOOOOOOXXXX++++XXXXXXXX++++XXXXOOOOXXXX++++++++++++XXXXOOOOXXXX++++++++++++++++++++XXXXOOOOOOOO....    ",
"     ....OOOOOOOOXXXX++++XXXXXXXX++++XXXXOOOOOOOOXXXX++++XXXXXXXX++++XXXXOOOOooooXXXX++++XXXXooooOOOOooooXXXXXXXX++++XXXXXXXXooooOOOOOOOO....    ",
"     ....OOOOOOOOXXXX++++XXXXXXXX++++XXXXOOOOOOOOXXXX++++XXXXXXXX++++XXXXOOOOooooXXXX++++XXXXooooOOOOooooXXXXXXXX++++XXXXXXXXooooOOOOOOOO....    ",
"     ....OOOOOOOOXXXX++++XXXXXXXX++++XXXXOOOOOOOOXXXX++++XXXXXXXX++++XXXXOOOOooooXXXX++++XXXXooooOOOOooooXXXXXXXX++++XXXXXXXXooooOOOOOOOO....    ",
"     ....OOOOOOOOXXXX++++XXXXXXXX++++XXXXOOOOOOOOXXXX++++XXXXXXXX++++XXXXOOOOooooXXXX++++XXXXooooOOOOooooXXXXXXXX++++XXXXXXXXooooOOOOOOOO....    ",
"     ....OOOOOOOOXXXX++++XXXXXXXX++++XXXXOOOOOOOOXXXX++++XXXXXXXX++++XXXXOOOOOOOOXXXX++++XXXXOOOOOOOOOOOOOOOOXXXX++++XXXXOOOOOOOOOOOOOOOO....    ",
"     ....OOOOOOOOXXXX++++XXXXXXXX++++XXXXOOOOOOOOXXXX++++XXXXXXXX++++XXXXOOOOOOOOXXXX++++XXXXOOOOOOOOOOOOOOOOXXXX++++XXXXOOOOOOOOOOOOOOOO....    ",
"     ....OOOOOOOOXXXX++++XXXXXXXX++++XXXXOOOOOOOOXXXX++++XXXXXXXX++++XXXXOOOOOOOOXXXX++++XXXXOOOOOOOOOOOOOOOOXXXX++++XXXXOOOOOOOOOOOOOOOO....    ",
"     ....OOOOOOOOXXXX++++XXXXXXXX++++XXXXOOOOOOOOXXXX++++XXXXXXXX++++XXXXOOOOOOOOXXXX++++XXXXOOOOOOOOOOOOOOOOXXXX++++XXXXOOOOOOOOOOOOOOOO....    ",
"     ....OOOOOOOOXXXX++++XXXX++++++++XXXXooooOOOOXXXX++++XXXXXXXX++++XXXXOOOOooooXXXX++++XXXXooooOOOOOOOOOOOOXXXX++++XXXXOOOOOOOOOOOOOOOO....    ",
"     ....OOOOOOOOXXXX++++XXXX++++++++XXXXooooOOOOXXXX++++XXXXXXXX++++XXXXOOOOooooXXXX++++XXXXooooOOOOOOOOOOOOXXXX++++XXXXOOOOOOOOOOOOOOOO....    ",
"     ....OOOOOOOOXXXX++++XXXX++++++++XXXXooooOOOOXXXX++++XXXXXXXX++++XXXXOOOOooooXXXX++++XXXXooooOOOOOOOOOOOOXXXX++++XXXXOOOOOOOOOOOOOOOO....    ",
"     ....OOOOOOOOXXXX++++XXXX++++++++XXXXooooOOOOXXXX++++XXXXXXXX++++XXXXOOOOooooXXXX++++XXXXooooOOOOOOOOOOOOXXXX++++XXXXOOOOOOOOOOOOOOOO....    ",
"     ....OOOOOOOOXXXX++++++++++++++++++++XXXXOOOOooooXXXX++++++++XXXXooooOOOOXXXX++++++++++++XXXXOOOOOOOOOOOOXXXX++++XXXXOOOOOOOOOOOOOOOO....    ",
"     ....OOOOOOOOXXXX++++++++++++++++++++XXXXOOOOooooXXXX++++++++XXXXooooOOOOXXXX++++++++++++XXXXOOOOOOOOOOOOXXXX++++XXXXOOOOOOOOOOOOOOOO....    ",
"     ....OOOOOOOOXXXX++++++++++++++++++++XXXXOOOOooooXXXX++++++++XXXXooooOOOOXXXX++++++++++++XXXXOOOOOOOOOOOOXXXX++++XXXXOOOOOOOOOOOOOOOO....    ",
"     ....OOOOOOOOXXXX++++++++++++++++++++XXXXOOOOooooXXXX++++++++XXXXooooOOOOXXXX++++++++++++XXXXOOOOOOOOOOOOXXXX++++XXXXOOOOOOOOOOOOOOOO....    ",
"     ....OOOOOOOOooooXXXXXXXXXXXXXXXXXXXXooooOOOOOOOOooooXXXXXXXXooooOOOOOOOOooooXXXXXXXXXXXXooooOOOOOOOOOOOOooooXXXXooooOOOOOOOOOOOO........    ",
"     ....OOOOOOOOooooXXXXXXXXXXXXXXXXXXXXooooOOOOOOOOooooXXXXXXXXooooOOOOOOOOooooXXXXXXXXXXXXooooOOOOOOOOOOOOooooXXXXooooOOOOOOOOOOOO........    ",
"     ....OOOOOOOOooooXXXXXXXXXXXXXXXXXXXXooooOOOOOOOOooooXXXXXXXXooooOOOOOOOOooooXXXXXXXXXXXXooooOOOOOOOOOOOOooooXXXXooooOOOOOOOOOOOO........    ",
"     ....OOOOOOOOooooXXXXXXXXXXXXXXXXXXXXooooOOOOOOOOooooXXXXXXXXooooOOOOOOOOooooXXXXXXXXXXXXooooOOOOOOOOOOOOooooXXXXooooOOOOOOOOOOOO........    ",
"     ........OOOOOOOOOOOOOOOOOOOOOOOOOOOOOOOOOOOOOOOOOOOOOOOOOOOOOOOOOOOOOOOOOOOOOOOOOOOOOOOOOOOOOOOOOOOOOOOOOOOOOOOOOOOOOOOOOOOOOOOO....        ",
"     ........OOOOOOOOOOOOOOOOOOOOOOOOOOOOOOOOOOOOOOOOOOOOOOOOOOOOOOOOOOOOOOOOOOOOOOOOOOOOOOOOOOOOOOOOOOOOOOOOOOOOOOOOOOOOOOOOOOOOOOOO....        ",
"     ........OOOOOOOOOOOOOOOOOOOOOOOOOOOOOOOOOOOOOOOOOOOOOOOOOOOOOOOOOOOOOOOOOOOOOOOOOOOOOOOOOOOOOOOOOOOOOOOOOOOOOOOOOOOOOOOOOOOOOOOO....        ",
"     ........OOOOOOOOOOOOOOOOOOOOOOOOOOOOOOOOOOOOOOOOOOOOOOOOOOOOOOOOOOOOOOOOOOOOOOOOOOOOOOOOOOOOOOOOOOOOOOOOOOOOOOOOOOOOOOOOOOOOOOOO....        ",
"         ........OOOOOOOOOOOOOOOOOOOOOOOOOOOOOOOOOOOOOOOOOOOOOOOOOOOOOOOOOOOOOOOOOOOOOOOOOOOOOOOOOOOOOOOOOOOOOOOOOOOOOOOOOOOOOOOO........        ",
"         ........OOOOOOOOOOOOOOOOOOOOOOOOOOOOOOOOOOOOOOOOOOOOOOOOOOOOOOOOOOOOOOOOOOOOOOOOOOOOOOOOOOOOOOOOOOOOOOOOOOOOOOOOOOOOOOOO........        ",
"         ........OOOOOOOOOOOOOOOOOOOOOOOOOOOOOOOOOOOOOOOOOOOOOOOOOOOOOOOOOOOOOOOOOOOOOOOOOOOOOOOOOOOOOOOOOOOOOOOOOOOOOOOOOOOOOOOO........        ",
"         ........OOOOOOOOOOOOOOOOOOOOOOOOOOOOOOOOOOOOOOOOOOOOOOOOOOOOOOOOOOOOOOOOOOOOOOOOOOOOOOOOOOOOOOOOOOOOOOOOOOOOOOOOOOOOOOOO........        ",
"             ........................................................................................................................            ",
"             ........................................................................................................................            ",
"             ........................................................................................................................            ",
"             ........................................................................................................................            ",
"                                                                                                                                                 ",
"                                                                                                                                                 ",
"                                                                                                                                                 ",
"                                                                                                                                                 ",
"                                                                                                                                                 "
};
