/* XPM */
static char *waiting_[] = {
/* columns rows colors chars-per-pixel */
"329 51 4 1 ",
"  c None",
". c #040404",
"X c #BC9414",
"o c #FCF4A4",
/* pixels */
"     ................                ................        ........................        ................................................................................................................        ................        ................................                                                            ",
"     ................                ................        ........................        ................................................................................................................        ................        ................................                                                            ",
"     ..XXXXXXXXXXXX..                ..XXXXXXXXXXXX..        ..XXXXXXXXXXXXXXXXXXXX..        ..XXXXXXXXXXXXXXXXXXXXXXXXXXXX....XXXXXXXXXXXXXXXXXXXXXXXXXXXX....XXXXXXXXXXXXXXXXXXXXXXXXXXXX....XXXXXXXXXXXX..        ..XXXXXXXXXXXX..        ..XXXXXXXXXXXXXXXXXXXXXXXXXXXX..                                                            ",
"     ..XXXXXXXXXXXX..                ..XXXXXXXXXXXX..        ..XXXXXXXXXXXXXXXXXXXX..        ..XXXXXXXXXXXXXXXXXXXXXXXXXXXX....XXXXXXXXXXXXXXXXXXXXXXXXXXXX....XXXXXXXXXXXXXXXXXXXXXXXXXXXX....XXXXXXXXXXXX..        ..XXXXXXXXXXXX..        ..XXXXXXXXXXXXXXXXXXXXXXXXXXXX..                                                            ",
"     ..XXooooooooXX..                ..XXooooooooXX..        ..XXooooooooooooooooXX..        ..XXooooooooooooooooooooooooXX....XXooooooooooooooooooooooooXX....XXooooooooooooooooooooooooXX....XXooooooooXX..        ..XXooooooooXX..        ..XXooooooooooooooooooooooooXX..                                                            ",
"     ..XXooooooooXX..                ..XXooooooooXX..        ..XXooooooooooooooooXX..        ..XXooooooooooooooooooooooooXX....XXooooooooooooooooooooooooXX....XXooooooooooooooooooooooooXX....XXooooooooXX..        ..XXooooooooXX..        ..XXooooooooooooooooooooooooXX..                                                            ",
"     ..XXooooooooXX..                ..XXooooooooXX..        ..XXooooooooooooooooXX..        ..XXooooooooooooooooooooooooXX....XXooooooooooooooooooooooooXX....XXooooooooooooooooooooooooXX....XXooooooooXX..        ..XXooooooooXX..        ..XXooooooooooooooooooooooooXX..                                                            ",
"     ..XXooooooooXX..                ..XXooooooooXX..        ..XXooooooooooooooooXX..        ..XXooooooooooooooooooooooooXX....XXooooooooooooooooooooooooXX....XXooooooooooooooooooooooooXX....XXooooooooXX..        ..XXooooooooXX..        ..XXooooooooooooooooooooooooXX..                                                            ",
"     ..XXooooooooXX....................XXooooooooXX............XXooooooooooooooooXX............XXooooooooooooooooooooooooXX....XXooooooooooooooooooooooooXX....XXooooooooooooooooooooooooXX....XXooooooooXX..        ..XXooooooooXX............XXooooooooooooooooooooooooXX..                                                            ",
"     ..XXooooooooXX....................XXooooooooXX............XXooooooooooooooooXX............XXooooooooooooooooooooooooXX....XXooooooooooooooooooooooooXX....XXooooooooooooooooooooooooXX....XXooooooooXX..        ..XXooooooooXX............XXooooooooooooooooooooooooXX..                                                            ",
"     ..XXooooooooXX....XXXXXXXXXXXX....XXooooooooXX....XXXXXXXXXXooooooooooooooooXXXXXXXXXX....XXooooooooooooooooooooooooXX....XXooooooooooooooooooooooooXX....XXooooooooooooooooooooooooXX....XXooooooooXX..        ..XXooooooooXX....XXXXXXXXXXooooooooooooooooooooooooXX..                                                            ",
"     ..XXooooooooXX....XXXXXXXXXXXX....XXooooooooXX....XXXXXXXXXXooooooooooooooooXXXXXXXXXX....XXooooooooooooooooooooooooXX....XXooooooooooooooooooooooooXX....XXooooooooooooooooooooooooXX....XXooooooooXX..        ..XXooooooooXX....XXXXXXXXXXooooooooooooooooooooooooXX..                                                            ",
"     ..XXooooooooXX....XXooooooooXX....XXooooooooXX....XXooooooooXXXXXXXXXXXXXXXXooooooooXX....XXXXXXXXXXooooooooXXXXXXXXXX....XXXXXXXXXXooooooooXXXXXXXXXX....XXXXXXXXXXooooooooXXXXXXXXXX....XXooooooooXX..        ..XXooooooooXX....XXooooooooXXXXXXXXXXXXXXXXXXXXXXXXXX..                                                            ",
"     ..XXooooooooXX....XXooooooooXX....XXooooooooXX....XXooooooooXXXXXXXXXXXXXXXXooooooooXX....XXXXXXXXXXooooooooXXXXXXXXXX....XXXXXXXXXXooooooooXXXXXXXXXX....XXXXXXXXXXooooooooXXXXXXXXXX....XXooooooooXX..        ..XXooooooooXX....XXooooooooXXXXXXXXXXXXXXXXXXXXXXXXXX..                                                            ",
"     ..XXooooooooXX....XXooooooooXX....XXooooooooXX....XXooooooooXX............XXooooooooXX............XXooooooooXX....................XXooooooooXX....................XXooooooooXX............XXooooooooXX..        ..XXooooooooXX....XXooooooooXX..........................                                                            ",
"     ..XXooooooooXX....XXooooooooXX....XXooooooooXX....XXooooooooXX............XXooooooooXX............XXooooooooXX....................XXooooooooXX....................XXooooooooXX............XXooooooooXX..        ..XXooooooooXX....XXooooooooXX..........................                                                            ",
"     ..XXooooooooXX....XXooooooooXX....XXooooooooXX....XXooooooooXX..        ..XXooooooooXX..        ..XXooooooooXX..                ..XXooooooooXX..                ..XXooooooooXX..        ..XXooooooooXX..        ..XXooooooooXX....XXooooooooXX..........................                                                            ",
"     ..XXooooooooXX....XXooooooooXX....XXooooooooXX....XXooooooooXX..        ..XXooooooooXX..        ..XXooooooooXX..                ..XXooooooooXX..                ..XXooooooooXX..        ..XXooooooooXX............XXooooooooXX....XXooooooooXX..........................                                                            ",
"     ..XXooooooooXX....XXooooooooXX....XXooooooooXX....XXooooooooXX..        ..XXooooooooXX..        ..XXooooooooXX..                ..XXooooooooXX..                ..XXooooooooXX..        ..XXooooooooXX............XXooooooooXX....XXooooooooXX....XXXXXXXXXXXXXXXXXXXX..                                                            ",
"     ..XXooooooooXX....XXooooooooXX....XXooooooooXX....XXooooooooXX..        ..XXooooooooXX..        ..XXooooooooXX..                ..XXooooooooXX..                ..XXooooooooXX..        ..XXooooooooXXXXXXXXXX....XXooooooooXX....XXooooooooXX....XXXXXXXXXXXXXXXXXXXX..                                                            ",
"     ..XXooooooooXX....XXooooooooXX....XXooooooooXX....XXooooooooXX..        ..XXooooooooXX..        ..XXooooooooXX..                ..XXooooooooXX..                ..XXooooooooXX..        ..XXooooooooXXXXXXXXXX....XXooooooooXX....XXooooooooXX....XXooooooooooooooooXX..                                                            ",
"     ..XXooooooooXX....XXooooooooXX....XXooooooooXX....XXooooooooXX..        ..XXooooooooXX..        ..XXooooooooXX..                ..XXooooooooXX..                ..XXooooooooXX..        ..XXooooooooooooooooXX....XXooooooooXX....XXooooooooXX....XXooooooooooooooooXX..                                                            ",
"     ..XXooooooooXX....XXooooooooXX....XXooooooooXX....XXooooooooXX..        ..XXooooooooXX..        ..XXooooooooXX..                ..XXooooooooXX..                ..XXooooooooXX..        ..XXooooooooooooooooXX....XXooooooooXX....XXooooooooXX....XXooooooooooooooooXX..                                                            ",
"     ..XXooooooooXX....XXooooooooXX....XXooooooooXX....XXooooooooXX..        ..XXooooooooXX..        ..XXooooooooXX..                ..XXooooooooXX..                ..XXooooooooXX..        ..XXooooooooooooooooXX....XXooooooooXX....XXooooooooXX....XXooooooooooooooooXX..                                                            ",
"     ..XXooooooooXX....XXooooooooXX....XXooooooooXX....XXooooooooXX............XXooooooooXX..        ..XXooooooooXX..                ..XXooooooooXX..                ..XXooooooooXX..        ..XXooooooooooooooooXX....XXooooooooXX....XXooooooooXX....XXooooooooooooooooXX..                                                            ",
"     ..XXooooooooXX....XXooooooooXX....XXooooooooXX....XXooooooooXX............XXooooooooXX..        ..XXooooooooXX..                ..XXooooooooXX..                ..XXooooooooXX..        ..XXooooooooooooooooXX....XXooooooooXX....XXooooooooXX....XXooooooooooooooooXX..                                                            ",
"     ..XXooooooooXX....XXooooooooXX....XXooooooooXX....XXooooooooXXXXXXXXXXXXXXXXooooooooXX..        ..XXooooooooXX..                ..XXooooooooXX..                ..XXooooooooXX..        ..XXooooooooooooooooXX....XXooooooooXX....XXooooooooXX....XXooooooooooooooooXX..                                                            ",
"     ..XXooooooooXX....XXooooooooXX....XXooooooooXX....XXooooooooXXXXXXXXXXXXXXXXooooooooXX..        ..XXooooooooXX..                ..XXooooooooXX..                ..XXooooooooXX..        ..XXooooooooooooooooXXXXXXXXooooooooXX....XXooooooooXX....XXooooooooooooooooXX..                                                            ",
"     ..XXooooooooXX....XXooooooooXX....XXooooooooXX....XXooooooooooooooooooooooooooooooooXX..        ..XXooooooooXX..                ..XXooooooooXX..                ..XXooooooooXX..        ..XXooooooooooooooooXXXXXXXXooooooooXX....XXooooooooXX....XXXXXXXXXXooooooooXX..                                                            ",
"     ..XXooooooooXX....XXooooooooXX....XXooooooooXX....XXooooooooooooooooooooooooooooooooXX..        ..XXooooooooXX..                ..XXooooooooXX..                ..XXooooooooXX..        ..XXooooooooXXXXXXXXooooooooooooooooXX....XXooooooooXX....XXXXXXXXXXooooooooXX..                                                            ",
"     ..XXooooooooXX....XXooooooooXX....XXooooooooXX....XXooooooooooooooooooooooooooooooooXX..        ..XXooooooooXX..                ..XXooooooooXX..                ..XXooooooooXX..        ..XXooooooooXXXXXXXXooooooooooooooooXX....XXooooooooXX............XXooooooooXX..                                                            ",
"     ..XXooooooooXX....XXooooooooXX....XXooooooooXX....XXooooooooooooooooooooooooooooooooXX..        ..XXooooooooXX..                ..XXooooooooXX..                ..XXooooooooXX..        ..XXooooooooXX....XXooooooooooooooooXX....XXooooooooXX............XXooooooooXX..                                                            ",
"     ..XXooooooooXX....XXooooooooXX....XXooooooooXX....XXooooooooooooooooooooooooooooooooXX............XXooooooooXX..........        ..XXooooooooXX..        ..........XXooooooooXX............XXooooooooXX....XXooooooooooooooooXX....XXooooooooXX............XXooooooooXX..      ............      ............      ............      ",
"     ..XXooooooooXX....XXooooooooXX....XXooooooooXX....XXooooooooooooooooooooooooooooooooXX............XXooooooooXX..........        ..XXooooooooXX..        ..........XXooooooooXX............XXooooooooXX....XXooooooooooooooooXX....XXooooooooXX............XXooooooooXX..      ............      ............      ............      ",
"     ..XXooooooooXXXXXXXXooooooooXXXXXXXXooooooooXX....XXooooooooooooooooooooooooooooooooXX....XXXXXXXXXXooooooooXXXXXXXXXX..        ..XXooooooooXX..        ..XXXXXXXXXXooooooooXXXXXXXXXX....XXooooooooXX....XXooooooooooooooooXX....XXooooooooXXXXXXXXXXXXXXXXooooooooXX..    ..XXXXXXXXXXXX..  ..XXXXXXXXXXXX..  ..XXXXXXXXXXXX..    ",
"     ..XXooooooooXXXXXXXXooooooooXXXXXXXXooooooooXX....XXooooooooooooooooooooooooooooooooXX....XXXXXXXXXXooooooooXXXXXXXXXX..        ..XXooooooooXX..        ..XXXXXXXXXXooooooooXXXXXXXXXX....XXooooooooXX....XXooooooooooooooooXX....XXooooooooXXXXXXXXXXXXXXXXooooooooXX..    ..XXXXXXXXXXXX..  ..XXXXXXXXXXXX..  ..XXXXXXXXXXXX..    ",
"     ..XXXXXXXXXXooooooooooooooooooooooooXXXXXXXXXX....XXooooooooXXXXXXXXXXXXXXXXooooooooXX....XXooooooooooooooooooooooooXX..        ..XXooooooooXX..        ..XXooooooooooooooooooooooooXX....XXooooooooXX....XXooooooooooooooooXX....XXXXXXXXXXooooooooooooooooXXXXXXXXXX..    ..XXooooooooXX..  ..XXooooooooXX..  ..XXooooooooXX..    ",
"     ..XXXXXXXXXXooooooooooooooooooooooooXXXXXXXXXX....XXooooooooXXXXXXXXXXXXXXXXooooooooXX....XXooooooooooooooooooooooooXX..        ..XXooooooooXX..        ..XXooooooooooooooooooooooooXX....XXooooooooXX....XXXXXXXXXXooooooooXX....XXXXXXXXXXooooooooooooooooXXXXXXXXXX..    ..XXooooooooXX..  ..XXooooooooXX..  ..XXooooooooXX..    ",
"     ..........XXooooooooooooooooooooooooXX............XXooooooooXX............XXooooooooXX....XXooooooooooooooooooooooooXX..        ..XXooooooooXX..        ..XXooooooooooooooooooooooooXX....XXooooooooXX....XXXXXXXXXXooooooooXX............XXooooooooooooooooXX..........    ..XXooooooooXX..  ..XXooooooooXX..  ..XXooooooooXX..    ",
"     ..........XXooooooooooooooooooooooooXX............XXooooooooXX............XXooooooooXX....XXooooooooooooooooooooooooXX..        ..XXooooooooXX..        ..XXooooooooooooooooooooooooXX....XXooooooooXX............XXooooooooXX............XXooooooooooooooooXX..........    ..XXooooooooXX..  ..XXooooooooXX..  ..XXooooooooXX..    ",
"             ..XXooooooooooooooooooooooooXX..        ..XXooooooooXX..        ..XXooooooooXX....XXooooooooooooooooooooooooXX..        ..XXooooooooXX..        ..XXooooooooooooooooooooooooXX....XXooooooooXX............XXooooooooXX..        ..XXooooooooooooooooXX..            ..XXooooooooXX..  ..XXooooooooXX..  ..XXooooooooXX..    ",
"             ..XXooooooooooooooooooooooooXX..        ..XXooooooooXX..        ..XXooooooooXX....XXooooooooooooooooooooooooXX..        ..XXooooooooXX..        ..XXooooooooooooooooooooooooXX....XXooooooooXX..        ..XXooooooooXX..        ..XXooooooooooooooooXX..            ..XXooooooooXX..  ..XXooooooooXX..  ..XXooooooooXX..    ",
"             ..XXooooooooooooooooooooooooXX..        ..XXooooooooXX..        ..XXooooooooXX....XXooooooooooooooooooooooooXX..        ..XXooooooooXX..        ..XXooooooooooooooooooooooooXX....XXooooooooXX..        ..XXooooooooXX..        ..XXooooooooooooooooXX..            ..XXooooooooXX..  ..XXooooooooXX..  ..XXooooooooXX..    ",
"             ..XXooooooooooooooooooooooooXX..        ..XXooooooooXX..        ..XXooooooooXX....XXooooooooooooooooooooooooXX..        ..XXooooooooXX..        ..XXooooooooooooooooooooooooXX....XXooooooooXX..        ..XXooooooooXX..        ..XXooooooooooooooooXX..            ..XXooooooooXX..  ..XXooooooooXX..  ..XXooooooooXX..    ",
"             ..XXXXXXXXXXXXXXXXXXXXXXXXXXXX..        ..XXXXXXXXXXXX..        ..XXXXXXXXXXXX....XXXXXXXXXXXXXXXXXXXXXXXXXXXX..        ..XXXXXXXXXXXX..        ..XXXXXXXXXXXXXXXXXXXXXXXXXXXX....XXXXXXXXXXXX..        ..XXXXXXXXXXXX..        ..XXXXXXXXXXXXXXXXXXXX..            ..XXXXXXXXXXXX..  ..XXXXXXXXXXXX..  ..XXXXXXXXXXXX..    ",
"             ..XXXXXXXXXXXXXXXXXXXXXXXXXXXX..        ..XXXXXXXXXXXX..        ..XXXXXXXXXXXX....XXXXXXXXXXXXXXXXXXXXXXXXXXXX..        ..XXXXXXXXXXXX..        ..XXXXXXXXXXXXXXXXXXXXXXXXXXXX....XXXXXXXXXXXX..        ..XXXXXXXXXXXX..        ..XXXXXXXXXXXXXXXXXXXX..            ..XXXXXXXXXXXX..  ..XXXXXXXXXXXX..  ..XXXXXXXXXXXX..    ",
"             ................................        ................        ................................................        ................        ................................................        ................        ........................              ............      ............      ............      ",
"             ................................        ................        ................................................        ................        ................................................        ................        ........................              ............      ............      ............      ",
"                                                                                                                                                                                                                                                                                                                                         ",
"                                                                                                                                                                                                                                                                                                                                         ",
"                                                                                                                                                                                                                                                                                                                                         "
};
