/* XPM */
static char *win_[] = {
/* columns rows colors chars-per-pixel */
"146 51 4 1 ",
"  c None",
". c #040404",
"X c #BC9414",
"o c #FCF4A4",
/* pixels */
"            ................                ................................................................        ................              ",
"            ................                ................................................................        ................              ",
"            ..XXXXXXXXXXXX..                ..XXXXXXXXXXXX....XXXXXXXXXXXXXXXXXXXXXXXXXXXX....XXXXXXXXXXXX..        ..XXXXXXXXXXXX..              ",
"            ..XXXXXXXXXXXX..                ..XXXXXXXXXXXX....XXXXXXXXXXXXXXXXXXXXXXXXXXXX....XXXXXXXXXXXX..        ..XXXXXXXXXXXX..              ",
"            ..XXooooooooXX..                ..XXooooooooXX....XXooooooooooooooooooooooooXX....XXooooooooXX..        ..XXooooooooXX..              ",
"            ..XXooooooooXX..                ..XXooooooooXX....XXooooooooooooooooooooooooXX....XXooooooooXX..        ..XXooooooooXX..              ",
"            ..XXooooooooXX..                ..XXooooooooXX....XXooooooooooooooooooooooooXX....XXooooooooXX..        ..XXooooooooXX..              ",
"            ..XXooooooooXX..                ..XXooooooooXX....XXooooooooooooooooooooooooXX....XXooooooooXX..        ..XXooooooooXX..              ",
"            ..XXooooooooXX....................XXooooooooXX....XXooooooooooooooooooooooooXX....XXooooooooXX..        ..XXooooooooXX..              ",
"            ..XXooooooooXX....................XXooooooooXX....XXooooooooooooooooooooooooXX....XXooooooooXX..        ..XXooooooooXX..              ",
"            ..XXooooooooXX....XXXXXXXXXXXX....XXooooooooXX....XXooooooooooooooooooooooooXX....XXooooooooXX..        ..XXooooooooXX..              ",
"            ..XXooooooooXX....XXXXXXXXXXXX....XXooooooooXX....XXooooooooooooooooooooooooXX....XXooooooooXX..        ..XXooooooooXX..              ",
"            ..XXooooooooXX....XXooooooooXX....XXooooooooXX....XXXXXXXXXXooooooooXXXXXXXXXX....XXooooooooXX..        ..XXooooooooXX..              ",
"            ..XXooooooooXX....XXooooooooXX....XXooooooooXX....XXXXXXXXXXooooooooXXXXXXXXXX....XXooooooooXX..        ..XXooooooooXX..              ",
"            ..XXooooooooXX....XXooooooooXX....XXooooooooXX............XXooooooooXX............XXooooooooXX..        ..XXooooooooXX..              ",
"            ..XXooooooooXX....XXooooooooXX....XXooooooooXX............XXooooooooXX............XXooooooooXX..        ..XXooooooooXX..              ",
"            ..XXooooooooXX....XXooooooooXX....XXooooooooXX..        ..XXooooooooXX..        ..XXooooooooXX..        ..XXooooooooXX..              ",
"            ..XXooooooooXX....XXooooooooXX....XXooooooooXX..        ..XXooooooooXX..        ..XXooooooooXX............XXooooooooXX..              ",
"            ..XXooooooooXX....XXooooooooXX....XXooooooooXX..        ..XXooooooooXX..        ..XXooooooooXX............XXooooooooXX..              ",
"            ..XXooooooooXX....XXooooooooXX....XXooooooooXX..        ..XXooooooooXX..        ..XXooooooooXXXXXXXXXX....XXooooooooXX..              ",
"            ..XXooooooooXX....XXooooooooXX....XXooooooooXX..        ..XXooooooooXX..        ..XXooooooooXXXXXXXXXX....XXooooooooXX..              ",
"            ..XXooooooooXX....XXooooooooXX....XXooooooooXX..        ..XXooooooooXX..        ..XXooooooooooooooooXX....XXooooooooXX..              ",
"            ..XXooooooooXX....XXooooooooXX....XXooooooooXX..        ..XXooooooooXX..        ..XXooooooooooooooooXX....XXooooooooXX..              ",
"            ..XXooooooooXX....XXooooooooXX....XXooooooooXX..        ..XXooooooooXX..        ..XXooooooooooooooooXX....XXooooooooXX..              ",
"            ..XXooooooooXX....XXooooooooXX....XXooooooooXX..        ..XXooooooooXX..        ..XXooooooooooooooooXX....XXooooooooXX..              ",
"            ..XXooooooooXX....XXooooooooXX....XXooooooooXX..        ..XXooooooooXX..        ..XXooooooooooooooooXX....XXooooooooXX..              ",
"            ..XXooooooooXX....XXooooooooXX....XXooooooooXX..        ..XXooooooooXX..        ..XXooooooooooooooooXX....XXooooooooXX..              ",
"            ..XXooooooooXX....XXooooooooXX....XXooooooooXX..        ..XXooooooooXX..        ..XXooooooooooooooooXXXXXXXXooooooooXX..              ",
"            ..XXooooooooXX....XXooooooooXX....XXooooooooXX..        ..XXooooooooXX..        ..XXooooooooooooooooXXXXXXXXooooooooXX..              ",
"            ..XXooooooooXX....XXooooooooXX....XXooooooooXX..        ..XXooooooooXX..        ..XXooooooooXXXXXXXXooooooooooooooooXX..              ",
"            ..XXooooooooXX....XXooooooooXX....XXooooooooXX..        ..XXooooooooXX..        ..XXooooooooXXXXXXXXooooooooooooooooXX..              ",
"            ..XXooooooooXX....XXooooooooXX....XXooooooooXX..        ..XXooooooooXX..        ..XXooooooooXX....XXooooooooooooooooXX..              ",
"            ..XXooooooooXX....XXooooooooXX....XXooooooooXX............XXooooooooXX............XXooooooooXX....XXooooooooooooooooXX..              ",
"            ..XXooooooooXX....XXooooooooXX....XXooooooooXX............XXooooooooXX............XXooooooooXX....XXooooooooooooooooXX..              ",
"            ..XXooooooooXXXXXXXXooooooooXXXXXXXXooooooooXX....XXXXXXXXXXooooooooXXXXXXXXXX....XXooooooooXX....XXooooooooooooooooXX..              ",
"            ..XXooooooooXXXXXXXXooooooooXXXXXXXXooooooooXX....XXXXXXXXXXooooooooXXXXXXXXXX....XXooooooooXX....XXooooooooooooooooXX..              ",
"            ..XXXXXXXXXXooooooooooooooooooooooooXXXXXXXXXX....XXooooooooooooooooooooooooXX....XXooooooooXX....XXooooooooooooooooXX..              ",
"            ..XXXXXXXXXXooooooooooooooooooooooooXXXXXXXXXX....XXooooooooooooooooooooooooXX....XXooooooooXX....XXXXXXXXXXooooooooXX..              ",
"            ..........XXooooooooooooooooooooooooXX............XXooooooooooooooooooooooooXX....XXooooooooXX....XXXXXXXXXXooooooooXX..              ",
"            ..........XXooooooooooooooooooooooooXX............XXooooooooooooooooooooooooXX....XXooooooooXX............XXooooooooXX..              ",
"                    ..XXooooooooooooooooooooooooXX..        ..XXooooooooooooooooooooooooXX....XXooooooooXX............XXooooooooXX..              ",
"                    ..XXooooooooooooooooooooooooXX..        ..XXooooooooooooooooooooooooXX....XXooooooooXX..        ..XXooooooooXX..              ",
"                    ..XXooooooooooooooooooooooooXX..        ..XXooooooooooooooooooooooooXX....XXooooooooXX..        ..XXooooooooXX..              ",
"                    ..XXooooooooooooooooooooooooXX..        ..XXooooooooooooooooooooooooXX....XXooooooooXX..        ..XXooooooooXX..              ",
"                    ..XXXXXXXXXXXXXXXXXXXXXXXXXXXX..        ..XXXXXXXXXXXXXXXXXXXXXXXXXXXX....XXXXXXXXXXXX..        ..XXXXXXXXXXXX..              ",
"                    ..XXXXXXXXXXXXXXXXXXXXXXXXXXXX..        ..XXXXXXXXXXXXXXXXXXXXXXXXXXXX....XXXXXXXXXXXX..        ..XXXXXXXXXXXX..              ",
"                    ................................        ................................................        ................              ",
"                    ................................        ................................................        ................              ",
"                                                                                                                                                  ",
"                                                                                                                                                  ",
"                                                                                                                                                  "
};
