/* XPM */
static char *arrow2[] = {
/* columns rows colors chars-per-pixel */
"40 18 46 1 ",
"  c #765735",
". c #7A5B38",
"X c #494541",
"o c #756452",
"O c #686564",
"+ c #6C6968",
"@ c #706D6B",
"# c #706D6C",
"$ c #74716F",
"% c #787572",
"& c #9C2422",
"* c #A32422",
"= c #A32B29",
"- c #DF0202",
"; c #C91312",
": c #EE0202",
"> c #F60202",
", c #FD0202",
"< c #FD1111",
"1 c #FD2020",
"2 c #834805",
"3 c #8B4C05",
"4 c #925005",
"5 c #925006",
"6 c #9A5406",
"7 c #A15806",
"8 c #A46765",
"9 c #CD5250",
"0 c #928F8F",
"q c #959492",
"w c #A4A2A0",
"e c #B3B2B1",
"r c #B7B6B5",
"t c #CD9190",
"y c #D19897",
"u c #EF8080",
"i c #F68080",
"p c #FE8080",
"a c #FE8888",
"s c #FE8F8F",
"d c #C1A382",
"f c #C4A582",
"g c #C8A782",
"h c #CCA982",
"j c #D0AB82",
"k c None",
/* pixels */
"kkkkkkkkkkkkkkkkkkkkkkkkkkkkkkkkkkkkks11",
"kkkkkkkkkkkkkkkkkkkkkkkkkkkkkkkkkkkkks11",
"rrrrrrrkkkkkkkkkkkkkkkkkkkkkkkkkkuuwwyss",
"@@@@@@@rkkkkkkkkkkkkkkkkkkkkkkkku--XXwkk",
"@@@@@@@rkkkkkkkkkkkkkkkkkkkkkkkku--XXwkk",
"kkeOO%%$@@kkkkkkkkkkkkkkkkkkkkkkwXX::&XX",
"kkeOO%%$@@kkkkkkkkkkkkkkkkkkkkkkwXX::&XX",
"kkkee@@o..jjgddgggggjjhggddfggaa8XX>>;&&",
"kkkkkOO 2277522445557765522344<<=XX,,>::",
"kkkkkOO 2277522445557765522344<<=XX,,>::",
"kkeOO%%$@@kkkkkkkkkkkkkkkkkkkkkki::,,>::",
"kkeOO%%$@@kkkkkkkkkkkkkkkkkkkkkki::,,>::",
"rr0++$$qrrkkkkkkkkkkkkkkkkkkkkkkt&&**9ii",
"@@###@@rkkkkkkkkkkkkkkkkkkkkkkkkwXXXXwkk",
"@@###@@rkkkkkkkkkkkkkkkkkkkkkkkkwXXXXwkk",
"kkkkkkkkkkkkkkkkkkkkkkkkkkkkkkkkkkkkkp,,",
"kkkkkkkkkkkkkkkkkkkkkkkkkkkkkkkkkkkkkp,,",
"kkkkkkkkkkkkkkkkkkkkkkkkkkkkkkkkkkkkkkpp"
};
