/* XPM */
static char *arrow5[] = {
/* columns rows colors chars-per-pixel */
"8 13 38 1 ",
"  c #686564",
". c #6A6766",
"X c #6B6867",
"o c #6C6967",
"O c #6C6968",
"+ c #6D6A69",
"@ c #6F6C6B",
"# c #706D6B",
"$ c #706D6C",
"% c #716E6C",
"& c #726F6D",
"* c #73706D",
"= c #74716E",
"- c #75726F",
"; c #757270",
": c #767370",
"> c #777575",
", c #787572",
"< c #787674",
"1 c #797775",
"2 c #797776",
"3 c #7F7C7B",
"4 c #8E8C8B",
"5 c #91908E",
"6 c #919090",
"7 c #929191",
"8 c #949392",
"9 c #959493",
"0 c #969493",
"q c #959494",
"w c #959594",
"e c #969594",
"r c #969595",
"t c #979694",
"y c #989595",
"u c #A2A1A0",
"i c #A3A1A0",
"p c None",
/* pixels */
"pppppppp",
"u333333p",
"t######8",
"pp7.O*:e",
"ppp o=,r",
"pppiy3&9",
"ppppp4.7",
"ppppp5 6",
"ppp>21-q",
"ppp o=,r",
"pp0X+&;w",
"u3<@#$%8",
"t##$$$#8"
};
