/* XPM */
static char *arrow1[] = {
/* columns rows colors chars-per-pixel */
"43 13 36 1 ",
"  c #723431",
". c #7A5B38",
"X c #494541",
"o c #686564",
"O c #6C6968",
"+ c #706D6B",
"@ c #706D6C",
"# c #74716F",
"$ c #787572",
"% c #9C2422",
"& c #9F2422",
"* c #A32422",
"= c #EE0202",
"- c #F60202",
"; c #FD0202",
": c #834805",
"> c #8B4C05",
", c #8B4C06",
"< c #925005",
"1 c #925006",
"2 c #9A5406",
"3 c #A15806",
"4 c #A06261",
"5 c #C85250",
"6 c #A4835E",
"7 c #928F8F",
"8 c #A4A2A0",
"9 c #B3B2B1",
"0 c #B7B6B5",
"q c #F68080",
"w c #C1A382",
"e c #C4A582",
"r c #C8A782",
"t c #CCA982",
"y c #D0AB82",
"u c None",
/* pixels */
"u0000000uuuuuuuuuuuuuuuuuuuuuuuuu88888uuuuu",
"0+++++++uuuuuuuuuuuuuuuuuuuuuuuuuXXXXXuuuuu",
"0+++++++uuuuuuuuuuuuuuuuuuuuuuuuuXXXXXuuuuu",
"uuuoo+$$++0uuuuuuuuuuuuuuuuuuuuuuXX%==XX8uu",
"uuuoo+$$++0uuuuuuuuuuuuuuuuuuuuuuXX%==XX8uu",
"uuu997++..6yywwerrrrtyyrrewwrrewwXX&--%%488",
"uuuuu9oo::133::><<1123311,::<<>::XX*;;==%XX",
"uuuuu9oo::133::><<1123311,::<<>::XX*;;==%XX",
"uuuoo+$$++0uuuuuuuuuuuuuuuuuuuuuuXX%==XX%==",
"uuuoo+$$++0uuuuuuuuuuuuuuuuuuuuuuXX%==XX%==",
"u00OO+##00uuuuuuuuuuuuuuuuuuuuuuuXX %%%%5qq",
"0++@@@++uuuuuuuuuuuuuuuuuuuuuuuuuXXXXX==quu",
"0++@@@++uuuuuuuuuuuuuuuuuuuuuuuuuXXXXX==quu"
};
