/* XPM */
static char *arrow4[] = {
/* columns rows colors chars-per-pixel */
"13 23 55 1 ",
"  c #7B5021",
". c #7A5B38",
"X c #776047",
"o c #686564",
"O c #6C6968",
"+ c #6E6B69",
"@ c #6F6C6A",
"# c #706D6B",
"$ c #706D6C",
"% c #726F6D",
"& c #73706E",
"* c #74716F",
"= c #767370",
"- c #787572",
"; c #7A7775",
": c #7E7B7A",
"> c #7F7D7D",
", c #B51212",
"< c #AE3A0F",
"1 c #AF3837",
"2 c #C10202",
"3 c #D00202",
"4 c #DF1111",
"5 c #D01C17",
"6 c #EE0202",
"7 c #FD1111",
"8 c #EB261C",
"9 c #C92121",
"0 c #D72727",
"q c #D42C2B",
"w c #F02727",
"e c #FD2020",
"r c #834805",
"t c #9D412B",
"y c #8D4846",
"u c #9E4947",
"i c #C95B5B",
"p c #F35B5B",
"a c #CB7E7D",
"s c #FE6565",
"d c #FE6E6E",
"f c #82807F",
"g c #858280",
"h c #9B9998",
"j c #A2A19F",
"k c #B3B2B1",
"l c #B7B6B5",
"z c #E78080",
"x c #EA8282",
"c c #F68080",
"v c #F58A8A",
"b c #FE8888",
"n c #FE8F8F",
"m c #E99595",
"M c None",
/* pixels */
"MMllllllmbMMM",
"Mg######q7sMM",
"Mg######q7sMM",
"MMM>o+=-%#y,2",
"MMM>o+=-%#y,2",
"MMMMkh;#X.t54",
"MMMMMM:o r<8e",
"MMMMMM:o r<8e",
"MMM>o+=-%#jMM",
"MMM>o+=-%#jMM",
"MMlfO@&*u1aMM",
"Mg#$$$##96pMM",
"Mg#$$$##96pMM",
"MMMMMMMMMMM03",
"MMMMMMMMMMM03",
"MMMMMMMMMnvxz",
"MMMMMMMMiedMM",
"MMMMMMMMiedMM",
"MMMMMMMMMMMMM",
"MMMMMMMMMMMMM",
"MMMMMMMcMMMMM",
"MMMMMMw6MMMMM",
"MMMMMMw6MMMMM"
};
