/* XPM */
static char *arrow3[] = {
/* columns rows colors chars-per-pixel */
"28 16 39 1 ",
"  c #7A5B38",
". c #686564",
"X c #6C6968",
"o c #706D6B",
"O c #706D6C",
"+ c #74716F",
"@ c #787572",
"# c #C10202",
"$ c #D00202",
"% c #DF0202",
"& c #DF0A0A",
"* c #EE0202",
"= c #EE0A0A",
"- c #FD1111",
"; c #C8310C",
": c #FD2F2F",
"> c #834805",
", c #8B4C05",
"< c #925005",
"1 c #925006",
"2 c #A15806",
"3 c #DC5946",
"4 c #A4835E",
"5 c #928F8F",
"6 c #B3B2B1",
"7 c #B7B6B5",
"8 c #E08080",
"9 c #E78080",
"0 c #EF8080",
"q c #EF8484",
"w c #F68080",
"e c #FE8888",
"r c #E39785",
"t c #FE9797",
"y c #C1A382",
"u c #C4A582",
"i c #C8A782",
"p c #D0AB82",
"a c None",
/* pixels */
"a7777777aaaaaaaaaawwaaaeeaaa",
"7oooooooaaaaaaaaaa**waa--eaa",
"7oooooooaaaaaaaaaa**waa--eaa",
"aaa..o@@oo7aaaaaaaaaaaaaa0%%",
"aaa..o@@oo7aaaaaaaaaaaaaa0%%",
"aaa665oo  4ppyyuiiiireeii3==",
"aaaaa6..>>122>>,<<11;--11;--",
"aaaaa6..>>122>>,<<11;--11;--",
"aaa..o@@oo7aaaaaaaaaaaaaa0%%",
"aaa..o@@oo7aaaaaaaaaaaaaa0%%",
"a77XXo++77aaaaaaaaaaa99aaa00",
"7ooOOOooaaaaaaaaaaaa9$$aaaaa",
"7ooOOOooaaaaaaaaaaaa9$$aaaaa",
"aaaaaaaaaaaaaaaaaa::taa--&##",
"aaaaaaaaaaaaaaaaaa::taa--&##",
"aaaaaaaaaaaaaaaaaattaaaeeq88"
};
